<?xml version="1.0" encoding="UTF-8" standalone="no"?>
<svg width="760px" height="126px" viewBox="0 0 760 126" version="1.1" xmlns="http://www.w3.org/2000/svg" xmlns:xlink="http://www.w3.org/1999/xlink" xmlns:sketch="http://www.bohemiancoding.com/sketch/ns">
    <!-- Generator: Sketch 3.4.2 (15855) - http://www.bohemiancoding.com/sketch -->
    <title>acs-publications-logo</title>
    <desc>Created with Sketch.</desc>
    <defs>
        <path id="path-1" d="M0,3.5246129 L759.231648,3.5246129 L759.231648,129 L0,129 L0,3.5246129 Z"></path>
        <path id="path-3" d="M0,3.5246129 L759.231648,3.5246129 L759.231648,129 L0,129 L0,3.5246129 Z"></path>
    </defs>
    <g id="Page-1" stroke="none" stroke-width="1" fill="none" fill-rule="evenodd" sketch:type="MSPage">
        <g id="acs-publications-logo" sketch:type="MSLayerGroup" transform="translate(0.000000, -3.000000)">
            <path d="M0,62.8192548 L65.8652747,129.000416 L132.753626,62.8192548 L0,62.8192548 Z" id="Fill-1" fill="#0054A5" sketch:type="MSShapeGroup"></path>
            <g id="Group-69">
                <g id="Group-4">
                    <mask id="mask-2" sketch:name="Clip 3" fill="white">
                        <use xlink:href="#path-1"></use>
                    </mask>
                    <g id="Clip-3"></g>
                    <path d="M69.3190989,71.1364258 L69.8118462,71.1364258 L75.1986593,71.1364258 L75.1986593,68.2360065 L68.3294286,68.2360065 C68.3294286,68.2360065 67.8366813,68.1402968 67.298,68.5897161 C66.7593187,69.0349742 66.847011,69.2139097 66.847011,69.2139097 L68.3294286,71.6316194 L69.3190989,71.1364258 Z M93.2382198,82.0889419 C90.8621758,82.0889419 90.4320659,80.2205226 90.4320659,78.2314258 C90.4320659,75.4849742 91.4175604,74.0826194 93.0586593,74.0826194 C94.5243736,74.0826194 95.4514066,74.9356839 95.5892088,76.4129419 L100.019758,76.4129419 C99.6481099,72.759329 97.2094286,70.6121032 92.8582198,70.6121032 C88.887011,70.6121032 85.7634945,73.4709097 85.7634945,78.0691355 C85.7634945,82.6881677 88.6114066,85.5636194 93.3175604,85.5636194 C97.0716264,85.5636194 99.7023956,83.3498129 100.119978,79.6878774 L95.630967,79.6878774 C95.4514066,81.0486194 94.7415165,82.0889419 93.2382198,82.0889419 L93.2382198,82.0889419 Z M51.4048132,39.4565226 C51.4048132,39.4565226 52.2149231,39.2817484 52.478,39.5439097 C52.9331648,39.9974903 52.6116264,40.2596516 52.6116264,40.7590065 L38.3386593,54.0002323 L35.378,56.4637161 C46.1933846,54.0002323 54.5492088,43.7135226 54.5492088,43.7135226 C55.5347033,43.7135226 57.5098681,46.1728452 57.5098681,46.1728452 C57.5098681,46.1728452 58.4953626,43.2141677 60.9674505,41.7327484 C63.8821758,40.2596516 63.3852527,37.355071 63.3852527,37.355071 C68.3294286,38.7865548 67.8366813,42.7231355 67.8366813,42.7231355 C68.3294286,41.2458774 73.2652527,40.7590065 73.2652527,40.7590065 L73.2652527,45.1907806 C72.7766813,47.1549097 73.7204176,48.6321677 73.7204176,48.6321677 C80.1386593,38.2996839 72.2839341,24.1096839 70.7973407,22.1413935 C69.3190989,19.1868774 69.3190989,18.2048129 69.8118462,14.8008774 C70.7973407,12.3415548 76.1883297,12.8325871 77.178,13.3319419 C78.6520659,13.3319419 79.148989,14.3098452 79.148989,14.3098452 C79.6417363,7.41874839 73.7204176,8.89184516 73.7204176,8.89184516 L73.7204176,9.56597419 L70.7973407,9.56597419 C70.7973407,9.56597419 70.9685495,9.22474839 71.0061319,8.85439355 L70.8892088,8.85023226 C70.8892088,8.85023226 70.6637143,9.87807097 69.5445934,9.12071613 C69.0936044,8.80445806 68.7762418,7.91394194 68.7762418,7.91394194 C68.7762418,7.91394194 69.6782198,7.86816774 70.4382198,8.00132903 C70.9601978,8.08871613 71.0478901,8.4882 71.0061319,8.85439355 L73.7204176,8.89184516 C72.7766813,5.50039355 68.8221758,5.99142581 65.3687692,5.99142581 C61.9571209,5.99142581 62.9426154,3.52378065 62.9426154,3.52378065 C58.9922857,6.97765161 61.9571209,9.87807097 61.9571209,9.87807097 C57.5098681,17.2643613 58.4953626,19.1868774 58.4953626,19.1868774 C62.4498681,23.1234581 62.4498681,28.0046516 62.4498681,28.0046516 L61.4601978,28.0046516 C61.4601978,24.1096839 58.9922857,19.6779097 54.5492088,17.7137806 C49.154044,14.8008774 43.7254725,19.1868774 43.7254725,19.1868774 C43.7254725,19.1868774 5.38723077,57.9409742 4.39756044,58.9272 C3.41206593,59.859329 2.42657143,59.859329 1.47865934,60.3545226 C1.47865934,60.3545226 7.3623956,61.3407484 11.8054725,57.4499419 C23.076022,45.1907806 41.3034945,27.5552323 41.3034945,27.5552323 C41.3034945,27.5552323 41.9758022,27.2472968 42.288989,27.6051677 C42.9654725,28.3625226 42.288989,28.9867161 42.288989,28.9867161 C42.288989,28.9867161 12.745033,57.9409742 11.8054725,58.9272 C10.3230549,59.859329 8.84063736,60.3545226 8.84063736,60.3545226 C14.2316264,61.3407484 18.6788791,57.4499419 18.6788791,57.4499419 L43.7254725,32.4322645 C43.7254725,32.4322645 44.401956,32.3448774 44.6692088,32.7027484 C45.0742637,33.2395548 44.7151429,33.9136839 44.7151429,33.9136839 C44.7151429,33.9136839 21.6353626,56.9547484 20.1571209,57.9409742 C19.6643736,58.4320065 16.6953626,59.859329 16.6953626,59.859329 C22.5832747,60.8455548 27.5190989,55.9685226 27.5190989,55.9685226 L47.1872308,36.3688452 C47.1872308,36.3688452 47.9931648,36.3272323 48.1727253,36.6434903 C48.4859121,37.226071 48.1727253,37.8461032 48.1727253,37.8461032 C48.1727253,37.8461032 29.4942637,55.4774903 29.0015165,56.4637161 C27.5190989,57.9409742 25.047011,58.9272 25.047011,58.9272 C25.047011,58.9272 27.0305275,58.9272 31.4694286,57.4499419 C35.8749231,55.9685226 51.4048132,39.4565226 51.4048132,39.4565226 L51.4048132,39.4565226 Z M93.8729451,58.9272 C92.9333846,57.4499419 91.8977802,55.5648774 91.8977802,55.5648774 C91.8977802,55.5648774 91.9437143,55.8769742 91.6764615,57.2252323 C91.4969011,58.0699742 90.4612967,58.4320065 90.4612967,58.4320065 C90.4612967,58.4320065 89.8766813,56.5511032 88.9830549,55.9685226 C86.8241538,54.5370387 87.5006374,52.5229742 87.5006374,52.5229742 C87.5006374,52.5229742 86.4232747,52.6602968 85.8386593,54.0002323 C85.254044,55.3901032 85.5212967,55.9685226 85.5212967,55.9685226 C85.5212967,55.9685226 83.8634945,54.4954258 83.5962418,53.0140065 C83.2371209,51.3120387 84.1766813,50.3757484 84.1766813,50.3757484 C84.1766813,50.3757484 82.1096484,49.5684581 81.6169011,50.0594903 C80.6355824,50.5588452 79.6417363,51.5409097 79.6417363,51.5409097 C79.6417363,51.5409097 80.6355824,46.6638774 79.148989,45.6818129 L78.1634945,44.6955871 C78.1634945,44.6955871 78.5643736,45.8607484 76.6852527,46.6638774 C75.110967,47.3338452 74.7518462,49.9721032 73.2652527,50.5588452 C73.2652527,51.0498774 71.9248132,47.6459419 71.787011,46.6638774 C71.478,44.8329097 72.1461319,44.4251032 72.1461319,42.4568129 C72.1461319,42.4568129 69.8118462,43.5720387 68.4630549,43.7135226 C67.6571209,43.8009097 66.3500879,45.6818129 66.3500879,45.6818129 C66.3500879,45.6818129 67.4316264,43.3057161 65.8615165,41.2458774 C65.1892088,40.3512 64.876022,39.2817484 64.876022,39.2817484 C64.876022,39.2817484 63.8821758,41.2458774 62.9426154,42.2362645 C61.9571209,43.2141677 59.485033,44.6955871 58.9922857,46.1728452 C58.0026154,47.6459419 58.0026154,49.0815871 58.0026154,49.0815871 C58.0026154,49.0815871 57.0171209,47.1549097 56.5201978,46.6638774 C56.0316264,46.1728452 54.6369011,45.8149742 54.6369011,45.8149742 C54.6369011,45.8149742 54.590967,47.3338452 53.0667912,49.0815871 C51.4048132,50.958329 52.6116264,53.5092 52.6116264,53.5092 C52.6116264,53.5092 49.5674505,54.1791677 49.154044,53.0140065 C48.9410769,52.3440387 49.6969011,51.3120387 49.6969011,51.3120387 C49.6969011,51.3120387 48.1727253,51.5409097 47.1872308,52.5229742 C46.6903077,53.5092 46.1933846,54.9864581 45.7048132,55.9685226 C44.7151429,57.4499419 43.7254725,58.9272 43.2327253,58.9272 C42.288989,58.4320065 41.838,55.4358774 41.838,55.4358774 C41.838,55.4358774 36.8144835,57.9409742 40.2720659,61.8317806 L48.1727253,61.8317806 C48.1727253,61.8317806 48.3522857,60.2671355 50.4193187,58.7441032 C52.1188791,57.4915548 50.1478901,54.9864581 50.1478901,54.9864581 C50.1478901,54.9864581 53.5595385,54.9864581 54.0522857,55.9685226 C54.0522857,55.9685226 53.5595385,54.4954258 54.5492088,53.5092 C55.5347033,52.5229742 56.0316264,50.5588452 56.0316264,50.5588452 C56.0316264,50.5588452 56.5201978,52.0319419 57.0171209,52.5229742 C57.5098681,53.0140065 58.9922857,54.4954258 58.9922857,54.4954258 C58.9922857,54.4954258 59.034044,52.4855226 59.485033,52.0319419 C59.936022,51.5866839 60.9674505,50.5588452 60.9674505,49.0815871 L60.9674505,46.6638774 C60.9674505,46.6638774 65.3687692,49.5684581 65.3687692,51.5409097 C65.3687692,51.5409097 65.8615165,50.5588452 66.847011,49.5684581 C68.3294286,49.0815871 69.3190989,48.6321677 69.3190989,48.6321677 C69.3190989,48.6321677 68.3294286,50.5588452 72.2839341,54.9864581 C72.2839341,54.9864581 73.4949231,53.7755226 73.4949231,52.3024258 C73.4949231,51.803071 75.3281099,52.4855226 76.1883297,53.5092 C77.178,54.6702 77.178,56.9547484 77.178,56.9547484 C77.178,56.9547484 78.2971209,55.4358774 79.148989,54.9864581 C80.005033,54.5370387 81.6169011,54.9864581 81.6169011,54.9864581 C81.6169011,54.9864581 80.6355824,57.4499419 82.1096484,59.3724581 C83.5962418,60.8455548 84.5358022,61.8317806 84.5358022,61.8317806 L92.9333846,61.8317806 C92.9333846,61.8317806 94.8626154,60.3545226 93.8729451,58.9272 L93.8729451,58.9272 Z M91.450967,26.5690065 C91.450967,26.5690065 119.462396,54.9864581 122.924154,57.9409742 C126.331626,60.8455548 131.768549,59.859329 131.768549,59.859329 C130.778879,59.859329 129.789209,58.9272 129.789209,58.9272 C129.789209,58.9272 98.8129451,28.0046516 88.9830549,19.1868774 C79.6417363,10.3732645 73.0439341,23.3939419 73.0439341,23.3939419 C73.0439341,23.3939419 75.110967,27.9588774 76.1883297,31.4460387 C77.5747033,35.9235871 77.2197582,41.4747484 77.2197582,41.4747484 C88.5320659,55.7022 98.8129451,55.9685226 98.8129451,55.9685226 C97.8316264,55.4774903 96.8377802,54.9864581 96.8377802,54.9864581 L82.6023956,41.2458774 C82.6023956,41.2458774 82.2474505,40.8006194 82.6023956,40.2596516 C82.9656923,39.7311677 83.5962418,40.2596516 83.5962418,40.2596516 C83.5962418,40.2596516 93.8729451,50.0594903 97.8316264,54.0002323 C101.77778,58.4320065 108.150088,58.4320065 108.647011,58.4320065 C108.150088,58.4320065 104.696681,55.4774903 104.696681,55.4774903 L86.0641538,37.4466194 C86.0641538,37.4466194 85.6632747,36.7766516 86.0182198,36.3688452 C86.4232747,35.8736516 87.0078901,36.3688452 87.0078901,36.3688452 C87.0078901,36.3688452 103.757121,53.0140065 107.164593,56.4637161 C111.114923,59.859329 116.501736,59.3724581 116.501736,59.3724581 C116.008989,59.3724581 113.582835,57.9409742 113.582835,57.9409742 L88.4861319,33.414329 C88.4861319,33.414329 87.9516264,32.6569742 88.4401978,32.1659419 C88.9371209,31.6749097 89.479978,31.937071 89.479978,31.937071 C89.479978,31.937071 111.114923,54.0002323 115.019319,57.4499419 C118.973824,60.8455548 125.346132,60.3545226 124.364813,59.859329 C123.416901,59.859329 123.416901,59.3724581 121.934484,58.9272 C120.452066,58.4320065 90.4612967,28.0046516 90.4612967,28.0046516 C90.4612967,28.0046516 90.239978,27.4678452 90.4612967,27.0600387 C90.8705275,26.4400065 91.450967,26.5690065 91.450967,26.5690065 L91.450967,26.5690065 Z M75.1193187,84.4067806 L75.0942637,84.4525548 C75.0942637,84.4525548 75.5369011,83.4205548 75.5369011,82.8296516 C75.5369011,81.0569419 74.0920659,79.6212968 72.3131648,79.6212968 C72.2045934,79.6212968 71.9916264,79.6379419 71.9916264,79.6379419 L64.876022,68.7228774 C64.876022,68.7228774 64.6463516,68.2692968 63.8821758,68.2360065 C62.9426154,68.186071 57.5098681,68.2360065 57.5098681,68.2360065 L57.5098681,71.1364258 L62.9426154,71.1364258 C62.9426154,71.3819419 66.9347033,77.3076194 69.4861319,81.2525226 C69.4861319,81.2525226 69.0894286,82.2512323 69.0894286,82.8296516 C69.0894286,84.5940387 70.5259121,86.0338452 72.3131648,86.0338452 C72.4593187,86.0338452 72.7474505,86.0047161 72.7474505,86.0047161 L76.1632747,91.0565226 C76.1632747,91.0565226 77.6707473,92.7085548 76.1883297,92.7085548 L75.8793187,92.7085548 C75.3990989,91.9553613 74.5555824,91.464329 73.5993187,91.464329 C72.6472308,91.464329 71.8162418,91.9595226 71.3276703,92.7002323 C70.5008571,92.7002323 69.6072308,92.7085548 68.6843736,92.7085548 C68.2041538,91.9553613 67.394044,91.464329 66.4336044,91.464329 C65.4815165,91.464329 64.6421758,91.9595226 64.1661319,92.7002323 C63.1973407,92.7002323 62.2661319,92.7085548 61.3892088,92.7085548 C60.908989,91.9553613 60.1072308,91.4352 59.1384396,91.4352 C58.1905275,91.4352 57.3511868,91.9303935 56.870967,92.6669419 C56.348989,92.6669419 56.0316264,92.7085548 56.0316264,92.7085548 C56.0316264,92.7085548 54.5533846,92.9582323 55.5388791,91.4809742 C56.1193187,90.7277806 57.9149231,88.0978452 59.4766813,85.8382645 C59.4766813,85.8382645 59.6812967,85.8840387 59.839978,85.8840387 C61.6188791,85.8840387 63.0595385,84.4567161 63.0595385,82.6840065 C63.0595385,82.1055871 62.641956,81.0985548 62.641956,81.0985548 L65.3687692,77.0412968 L63.3852527,74.5861355 L60.1406374,79.4922968 C60.1406374,79.4922968 59.9401978,79.4756516 59.839978,79.4756516 C58.0569011,79.4756516 56.6162418,80.9154581 56.6162418,82.6840065 C56.6162418,83.2041677 56.9503077,84.1030065 56.9503077,84.1030065 L52.1188791,91.2312968 C49.7845934,93.8653935 52.381956,95.6922 54.0522857,95.6589097 C54.6744835,95.6505871 55.6808571,95.6381032 56.941956,95.6339419 C57.4221758,96.3455226 58.2114066,96.7949419 59.1384396,96.7949419 C60.0654725,96.7949419 60.8881099,96.3288774 61.3725055,95.6214581 C62.2911868,95.6214581 63.2307473,95.6297806 64.1953626,95.6297806 C64.6839341,96.3372 65.5065714,96.824071 66.4336044,96.824071 C67.3606374,96.824071 68.1832747,96.3621677 68.6634945,95.6505871 C69.6114066,95.6505871 70.5133846,95.6505871 71.3694286,95.6547484 C71.858,96.3621677 72.6806374,96.824071 73.5993187,96.824071 C74.5305275,96.824071 75.348989,96.3621677 75.8375604,95.6505871 C76.9692088,95.6547484 77.6707473,95.6589097 77.6707473,95.6589097 C78.936022,95.8295226 82.1848132,94.5769742 79.7169011,91.6224581 C79.219978,90.6487161 75.1234945,84.3901355 75.1193187,84.4067806 L75.1193187,84.4067806 Z M80.6355824,59.3724581 C80.1386593,57.9409742 80.6355824,56.4637161 80.6355824,56.4637161 C80.6355824,56.4637161 78.6520659,56.6884258 78.1634945,57.9409742 C77.3993187,59.8177161 76.1883297,59.859329 76.1883297,59.859329 C76.1883297,59.859329 76.6852527,56.9547484 75.6914066,55.9685226 C75.1986593,54.9864581 74.2131648,54.0002323 74.2131648,54.0002323 C74.2131648,54.0002323 74.4386593,55.3901032 73.7204176,55.9685226 C72.3674505,57.0462968 72.2839341,56.9547484 72.2839341,56.9547484 C72.2839341,56.9547484 70.3045934,55.9685226 69.3190989,54.0002323 C68.3294286,52.5229742 68.3294286,51.0498774 68.3294286,51.0498774 C68.3294286,51.0498774 66.847011,51.0498774 66.3500879,52.5229742 C65.8615165,54.0002323 65.3687692,54.9864581 65.3687692,54.9864581 C65.3687692,54.9864581 63.3852527,49.5684581 61.9571209,49.5684581 C61.9571209,49.5684581 62.4916264,50.6920065 61.9571209,51.5409097 C61.1971209,52.7476839 59.530967,53.6007484 60.5164615,55.5648774 C62.5834945,59.6387806 61.5061319,61.8317806 61.5061319,61.8317806 L83.0993187,61.8317806 C83.0993187,61.8317806 80.6355824,61.3407484 80.6355824,59.3724581 L80.6355824,59.3724581 Z M37.1026154,71.2571032 L31.9997582,85.4679097 L36.5681099,85.4679097 L37.1026154,83.595329 L41.7503077,83.595329 L42.3056923,85.4679097 L46.9533846,85.4679097 L41.8463516,71.2571032 L37.1026154,71.2571032 Z M37.9962418,80.6366516 L39.4369011,75.5473935 L40.9401978,80.6366516 L37.9962418,80.6366516 Z M64.5461319,104.584877 C64.5461319,104.068877 64.9971209,103.777587 66.0285495,103.777587 C66.4795385,103.777587 66.8971209,103.85249 67.2353626,104.035587 C67.5736044,104.210361 67.8325055,104.501652 67.9076703,105.001006 L72.334044,105.001006 C71.999978,102.512555 70.2001978,100.506813 66.2498681,100.506813 C62.6878901,100.506813 60.0738242,102.017361 60.0738242,105.034297 C60.0738242,110.223426 67.5569011,109.099877 68.2208571,110.868426 C68.2459121,110.951652 68.2667912,111.0432 68.2667912,111.130587 C68.2667912,111.800555 67.4942637,112.179232 66.325033,112.179232 C65.874044,112.179232 65.3771209,112.062716 64.9971209,111.825523 C64.6463516,111.613297 64.3874505,111.288716 64.2663516,110.864265 L64.2663516,110.868426 C64.2538242,110.810168 64.2371209,110.756071 64.2287692,110.701974 L59.7606374,110.701974 C59.7606374,110.756071 59.7648132,110.810168 59.768989,110.868426 C59.9694286,113.361039 62.3955824,115.450006 66.0661319,115.450006 C69.861956,115.450006 72.5595385,113.947781 72.7223956,110.868426 C72.7265714,110.760232 72.7307473,110.664523 72.7307473,110.56049 C72.7307473,105.388006 64.5461319,106.715458 64.5461319,104.584877 L64.5461319,104.584877 Z M58.9922857,56.9547484 C55.8896484,55.3901032 56.6538242,53.6007484 56.6538242,53.6007484 C56.6538242,53.6007484 55.2674505,53.5092 55.041956,54.9864581 C54.6828352,57.0005226 54.970967,58.9396839 55.0294286,59.3058774 C54.9918462,59.1519097 54.8331648,58.7108129 54.0522857,57.9409742 C53.0667912,56.9547484 52.1188791,56.9547484 52.1188791,56.9547484 C52.1188791,56.9547484 52.6116264,57.9409742 52.1188791,58.9272 C51.6303077,59.859329 50.6406374,59.859329 50.1478901,60.8455548 C49.6551429,61.8317806 50.1478901,61.8317806 50.1478901,61.8317806 L60.4747033,61.8317806 C60.4747033,61.8317806 60.6083297,57.7578774 58.9922857,56.9547484 L58.9922857,56.9547484 Z" id="Fill-2" fill="#FFCD34" sketch:type="MSShapeGroup" mask="url(#mask-2)"></path>
                </g>
                <path d="M181.31178,120.722361 L179.052659,105.254845 C178.65178,102.36691 178.376176,100.074039 178.217495,98.4927484 L178.138154,98.4927484 C177.820791,99.7993935 177.38233,101.576265 176.747604,103.515426 L171.030901,120.722361 L167.143209,120.722361 L161.70211,104.622329 C160.988044,102.483426 160.390901,100.348684 159.994198,98.4927484 L159.919033,98.4927484 C159.797934,100.702394 159.559912,102.957813 159.200791,105.571103 L157.375956,120.722361 L153.646945,120.722361 L157.576396,94.0193613 L162.019473,94.0193613 L167.694418,110.872587 C168.174637,112.216684 168.767604,114.355587 169.243648,116.174071 L169.285407,116.174071 C169.761451,114.313974 170.237495,112.649458 170.755297,111.109781 L176.547165,94.0193613 L181.073758,94.0193613 L185.124308,120.722361 L181.31178,120.722361 Z" id="Fill-5" fill="#0054A5" sketch:type="MSShapeGroup"></path>
                <path d="M197.052967,103.670642 C194.234286,103.670642 191.494945,105.846997 191.494945,110.711545 C191.494945,115.459577 193.440879,118.072868 197.052967,118.072868 C199.992747,118.072868 202.531648,115.775835 202.531648,110.753158 C202.531648,106.283932 200.702637,103.670642 197.052967,103.670642 M196.614505,121.081481 C191.256923,121.081481 187.761758,117.989642 187.761758,111.069416 C187.761758,105.297706 191.415604,100.703642 197.37033,100.703642 C202.410549,100.703642 206.264835,103.475061 206.264835,110.553416 C206.264835,116.487416 202.452308,121.081481 196.614505,121.081481" id="Fill-7" fill="#0054A5" sketch:type="MSShapeGroup"></path>
                <path d="M213.595077,121.079816 C212.087604,121.079816 210.459033,120.921687 209.231341,120.563816 L209.548703,117.397074 C210.818154,117.913074 212.446725,118.191881 213.91244,118.191881 C216.455516,118.191881 218.201011,117.043365 218.201011,115.183268 C218.201011,110.755655 209.030901,113.522913 209.030901,106.602687 C209.030901,103.236203 211.649143,100.706139 216.889802,100.706139 C218.079912,100.706139 219.51222,100.864268 220.70233,101.101461 L220.422549,104.026848 C219.270022,103.668977 217.883648,103.435945 216.57244,103.435945 C213.954198,103.435945 212.72233,104.542848 212.72233,106.244816 C212.72233,110.593365 221.934198,108.104913 221.934198,114.787945 C221.934198,118.391623 218.756396,121.079816 213.595077,121.079816" id="Fill-9" fill="#0054A5" sketch:type="MSShapeGroup"></path>
                <path d="M232.56167,121.039452 C228.511121,121.039452 227.279253,119.374935 227.279253,115.142903 L227.279253,103.828355 L223.232879,103.828355 L223.232879,101.061097 L227.279253,101.061097 L227.279253,94.6943226 L230.853758,93.7039355 L230.853758,101.061097 L236.374198,101.061097 L236.374198,103.828355 L230.853758,103.828355 L230.853758,113.877871 C230.853758,117.123677 231.488484,117.993387 233.67244,117.993387 C234.582769,117.993387 235.459692,117.87271 236.173758,117.672968 L236.528703,120.602516 C235.380352,120.881323 233.831121,121.039452 232.56167,121.039452" id="Fill-11" fill="#0054A5" sketch:type="MSShapeGroup"></path>
                <path d="M255.850659,97.0670903 L255.850659,120.724026 L252.196813,120.724026 L252.196813,97.0670903 L244.496593,97.0670903 L244.496593,94.0210258 L263.592637,94.0210258 L263.592637,97.0670903 L255.850659,97.0670903 Z" id="Fill-13" fill="#0054A5" sketch:type="MSShapeGroup"></path>
                <path d="M273.546967,104.227423 C269.375319,103.474229 267.391802,106.520294 267.391802,112.812165 L267.391802,120.722777 L263.821473,120.722777 L263.821473,101.060681 L267.274879,101.060681 C267.274879,102.288261 267.15378,104.110906 266.836418,105.729648 L266.915758,105.729648 C267.750923,102.999842 269.776198,100.311648 273.705648,100.70281 L273.546967,104.227423 Z" id="Fill-15" fill="#0054A5" sketch:type="MSShapeGroup"></path>
                <path d="M289.734549,120.722361 C289.734549,119.536394 289.81389,117.755361 290.051912,116.569394 L289.972571,116.569394 C288.820044,119.257587 286.402242,121.080232 283.028176,121.080232 C278.501582,121.080232 277.111033,118.2672 277.111033,114.788361 L277.111033,101.060265 L280.64378,101.060265 L280.64378,113.71891 C280.64378,116.486168 281.437187,118.150684 284.017846,118.150684 C287.274989,118.150684 289.617626,114.829974 289.617626,110.477265 L289.617626,101.060265 L293.187956,101.060265 L293.187956,120.722361 L289.734549,120.722361 Z" id="Fill-17" fill="#0054A5" sketch:type="MSShapeGroup"></path>
                <path d="M302.304615,121.079816 C300.797143,121.079816 299.168571,120.921687 297.940879,120.563816 L298.258242,117.397074 C299.527692,117.913074 301.156264,118.191881 302.621978,118.191881 C305.165055,118.191881 306.910549,117.043365 306.910549,115.183268 C306.910549,110.755655 297.74044,113.522913 297.74044,106.602687 C297.74044,103.236203 300.358681,100.706139 305.599341,100.706139 C306.789451,100.706139 308.221758,100.864268 309.411868,101.101461 L309.132088,104.026848 C307.97956,103.668977 306.593187,103.435945 305.281978,103.435945 C302.663736,103.435945 301.431868,104.542848 301.431868,106.244816 C301.431868,110.593365 310.643736,108.104913 310.643736,114.787945 C310.643736,118.391623 307.465934,121.079816 302.304615,121.079816" id="Fill-19" fill="#0054A5" sketch:type="MSShapeGroup"></path>
                <path d="M321.273297,121.039452 C317.222747,121.039452 315.990879,119.374935 315.990879,115.142903 L315.990879,103.828355 L311.944505,103.828355 L311.944505,101.061097 L315.990879,101.061097 L315.990879,94.6943226 L319.565385,93.7039355 L319.565385,101.061097 L325.085824,101.061097 L325.085824,103.828355 L319.565385,103.828355 L319.565385,113.877871 C319.565385,117.123677 320.20011,117.993387 322.384066,117.993387 C323.294396,117.993387 324.171319,117.87271 324.885385,117.672968 L325.24033,120.602516 C324.091978,120.881323 322.542747,121.039452 321.273297,121.039452" id="Fill-21" fill="#0054A5" sketch:type="MSShapeGroup"></path>
                <path d="M336.029407,103.394332 C333.448747,103.394332 331.623912,105.296042 331.185451,108.300494 L340.434901,108.300494 C340.514242,105.296042 338.80633,103.394332 336.029407,103.394332 M343.967648,110.830558 L331.068527,110.830558 C330.909846,115.973913 333.014462,118.191881 337.298857,118.191881 C339.207209,118.191881 341.190725,117.796558 342.93622,117.043365 L343.454022,119.852235 C341.470505,120.647042 339.08611,121.079816 336.626549,121.079816 C330.634242,121.079816 327.377099,117.913074 327.377099,110.988687 C327.377099,105.137913 330.671824,100.706139 336.267429,100.706139 C341.783692,100.706139 344.088747,104.384719 344.088747,108.774881 C344.088747,109.249268 344.046989,110.044074 343.967648,110.830558" id="Fill-23" fill="#0054A5" sketch:type="MSShapeGroup"></path>
                <path d="M360.275077,104.028513 C359.084967,103.753868 357.894857,103.595739 356.779912,103.595739 C353.009143,103.595739 350.512,105.846997 350.512,111.506352 C350.512,115.734223 351.898374,118.147771 354.875736,118.147771 C358.450242,118.147771 360.275077,113.998965 360.275077,110.553416 L360.275077,104.028513 Z M360.392,120.72361 C360.392,119.612545 360.471341,117.873126 360.709363,116.728771 L360.630022,116.687158 C359.519253,119.3379 357.101451,121.081481 354.002989,121.081481 C349.159033,121.081481 346.737055,117.556868 346.737055,111.82261 C346.737055,104.939835 350.708264,100.786868 356.942769,100.786868 C358.01178,100.786868 359.084967,100.861771 360.275077,100.982448 L360.275077,91.8442548 L363.845407,91.8442548 L363.845407,120.72361 L360.392,120.72361 Z" id="Fill-25" fill="#0054A5" sketch:type="MSShapeGroup"></path>
                <path d="M370.943055,121.079816 C369.594264,121.079816 368.479319,119.968752 368.479319,118.624655 C368.479319,117.280558 369.594264,116.173655 370.943055,116.173655 C372.329429,116.173655 373.402615,117.280558 373.402615,118.624655 C373.402615,119.968752 372.329429,121.079816 370.943055,121.079816" id="Fill-27" fill="#0054A5" sketch:type="MSShapeGroup"></path>
                <path d="M412.097473,120.722361 L409.834176,105.254845 C409.437473,102.36691 409.161868,100.074039 409.003187,98.4927484 L408.91967,98.4927484 C408.602308,99.7993935 408.168022,101.576265 407.533297,103.515426 L401.816593,120.722361 L397.928901,120.722361 L392.487802,104.622329 C391.773736,102.483426 391.176593,100.348684 390.784066,98.4927484 L390.700549,98.4927484 C390.583626,100.702394 390.345604,102.957813 389.986484,105.571103 L388.161648,120.722361 L384.428462,120.722361 L388.362088,94.0193613 L392.805165,94.0193613 L398.48011,110.872587 C398.96033,112.216684 399.553297,114.355587 400.029341,116.174071 L400.071099,116.174071 C400.542967,114.313974 401.023187,112.649458 401.540989,111.109781 L407.332857,94.0193613 L411.859451,94.0193613 L415.91,120.722361 L412.097473,120.722361 Z" id="Fill-29" fill="#0054A5" sketch:type="MSShapeGroup"></path>
                <path d="M427.834484,103.670642 C425.015802,103.670642 422.280637,105.846997 422.280637,110.711545 C422.280637,115.459577 424.226571,118.072868 427.834484,118.072868 C430.774264,118.072868 433.313165,115.775835 433.313165,110.753158 C433.313165,106.283932 431.48833,103.670642 427.834484,103.670642 M427.400198,121.081481 C422.03844,121.081481 418.547451,117.989642 418.547451,111.069416 C418.547451,105.297706 422.197121,100.703642 428.151846,100.703642 C433.196242,100.703642 437.046352,103.475061 437.046352,110.553416 C437.046352,116.487416 433.233824,121.081481 427.400198,121.081481" id="Fill-31" fill="#0054A5" sketch:type="MSShapeGroup"></path>
                <path d="M444.378681,121.079816 C442.871209,121.079816 441.242637,120.921687 440.010769,120.563816 L440.328132,117.397074 C441.601758,117.913074 443.23033,118.191881 444.696044,118.191881 C447.239121,118.191881 448.98044,117.043365 448.98044,115.183268 C448.98044,110.755655 439.814505,113.522913 439.814505,106.602687 C439.814505,103.236203 442.432747,100.706139 447.673407,100.706139 C448.863516,100.706139 450.295824,100.864268 451.485934,101.101461 L451.206154,104.026848 C450.053626,103.668977 448.663077,103.435945 447.356044,103.435945 C444.737802,103.435945 443.505934,104.542848 443.505934,106.244816 C443.505934,110.593365 452.713626,108.104913 452.713626,114.787945 C452.713626,118.391623 449.54,121.079816 444.378681,121.079816" id="Fill-33" fill="#0054A5" sketch:type="MSShapeGroup"></path>
                <path d="M463.345275,121.039452 C459.294725,121.039452 458.062857,119.374935 458.062857,115.142903 L458.062857,103.828355 L454.016484,103.828355 L454.016484,101.061097 L458.062857,101.061097 L458.062857,94.6943226 L461.637363,93.7039355 L461.637363,101.061097 L467.153626,101.061097 L467.153626,103.828355 L461.637363,103.828355 L461.637363,113.877871 C461.637363,117.123677 462.272088,117.993387 464.456044,117.993387 C465.366374,117.993387 466.239121,117.87271 466.957363,117.672968 L467.312308,120.602516 C466.163956,120.881323 464.614725,121.039452 463.345275,121.039452" id="Fill-35" fill="#0054A5" sketch:type="MSShapeGroup"></path>
                <path d="M489.688879,121.039452 C481.074154,121.039452 477.503824,115.579839 477.503824,108.022935 C477.503824,99.875129 481.554374,93.783 490.603385,93.783 C492.666242,93.783 494.850198,94.0618065 496.754374,94.6152581 L496.161407,97.9359677 C494.294813,97.3034516 492.22778,96.908129 490.206681,96.908129 C484.093275,96.908129 481.470857,101.577097 481.470857,107.427871 C481.470857,113.998548 484.331297,117.797806 490.561626,117.797806 C492.50756,117.797806 494.850198,117.240194 496.437011,116.449548 L497.034154,119.612129 C495.008879,120.444387 492.386462,121.039452 489.688879,121.039452" id="Fill-37" fill="#0054A5" sketch:type="MSShapeGroup"></path>
                <mask id="mask-4" sketch:name="Clip 40" fill="white">
                    <use xlink:href="#path-3"></use>
                </mask>
                <g id="Clip-40"></g>
                <path d="M501.387033,101.061097 L504.965714,101.061097 L504.965714,120.723194 L501.387033,120.723194 L501.387033,101.061097 Z M503.174286,97.1453226 C501.867253,97.1453226 500.794066,96.1549355 500.794066,94.8524516 C500.794066,93.5458065 501.867253,92.5179677 503.174286,92.5179677 C504.485495,92.5179677 505.558681,93.5458065 505.558681,94.8524516 C505.558681,96.1174839 504.485495,97.1453226 503.174286,97.1453226 L503.174286,97.1453226 Z" id="Fill-39" fill="#0054A5" sketch:type="MSShapeGroup" mask="url(#mask-4)"></path>
                <path d="M516.986659,121.039452 C512.93611,121.039452 511.704242,119.374935 511.704242,115.142903 L511.704242,103.828355 L507.657868,103.828355 L507.657868,101.061097 L511.704242,101.061097 L511.704242,94.6943226 L515.278747,93.7039355 L515.278747,101.061097 L520.795011,101.061097 L520.795011,103.828355 L515.278747,103.828355 L515.278747,113.877871 C515.278747,117.123677 515.913473,117.993387 518.097429,117.993387 C519.007758,117.993387 519.880505,117.87271 520.598747,117.672968 L520.953692,120.602516 C519.805341,120.881323 518.25611,121.039452 516.986659,121.039452" id="Fill-41" fill="#0054A5" sketch:type="MSShapeGroup" mask="url(#mask-4)"></path>
                <path d="M531.740681,103.394332 C529.160022,103.394332 527.335187,105.296042 526.900901,108.300494 L536.150352,108.300494 C536.225516,105.296042 534.52178,103.394332 531.740681,103.394332 M539.678923,110.830558 L526.779802,110.830558 C526.616945,115.973913 528.72156,118.191881 533.014308,118.191881 C534.918484,118.191881 536.902,117.796558 538.647495,117.043365 L539.165297,119.852235 C537.18178,120.647042 534.797385,121.079816 532.337824,121.079816 C526.341341,121.079816 523.088374,117.913074 523.088374,110.988687 C523.088374,105.137913 526.383099,100.706139 531.982879,100.706139 C537.499143,100.706139 539.800022,104.384719 539.800022,108.774881 C539.800022,109.249268 539.76244,110.044074 539.678923,110.830558" id="Fill-42" fill="#0054A5" sketch:type="MSShapeGroup" mask="url(#mask-4)"></path>
                <path d="M555.988022,104.028513 C554.797912,103.753868 553.603626,103.595739 552.492857,103.595739 C548.722088,103.595739 546.220769,105.846997 546.220769,111.506352 C546.220769,115.734223 547.611319,118.147771 550.588681,118.147771 C554.163187,118.147771 555.988022,113.998965 555.988022,110.553416 L555.988022,104.028513 Z M556.104945,120.72361 C556.104945,119.612545 556.184286,117.873126 556.426484,116.728771 L556.342967,116.687158 C555.232198,119.3379 552.81022,121.081481 549.715934,121.081481 C544.871978,121.081481 542.45,117.556868 542.45,111.82261 C542.45,104.939835 546.421209,100.786868 552.651538,100.786868 C553.724725,100.786868 554.797912,100.861771 555.988022,100.982448 L555.988022,91.8442548 L559.562527,91.8442548 L559.562527,120.72361 L556.104945,120.72361 Z" id="Fill-43" fill="#0054A5" sketch:type="MSShapeGroup" mask="url(#mask-4)"></path>
                <path d="M566.656,121.079816 C565.307209,121.079816 564.192264,119.968752 564.192264,118.624655 C564.192264,117.280558 565.307209,116.173655 566.656,116.173655 C568.042374,116.173655 569.11556,117.280558 569.11556,118.624655 C569.11556,119.968752 568.042374,121.079816 566.656,121.079816" id="Fill-44" fill="#0054A5" sketch:type="MSShapeGroup" mask="url(#mask-4)"></path>
                <path d="M607.810835,120.722361 L605.547538,105.254845 C605.150835,102.36691 604.875231,100.074039 604.716549,98.4927484 L604.633033,98.4927484 C604.31567,99.7993935 603.881385,101.576265 603.246659,103.515426 L597.529956,120.722361 L593.638088,120.722361 L588.201165,104.622329 C587.487099,102.483426 586.889956,100.348684 586.497429,98.4927484 L586.413912,98.4927484 C586.296989,100.702394 586.058967,102.957813 585.699846,105.571103 L583.875011,120.722361 L580.141824,120.722361 L584.071275,94.0193613 L588.518527,94.0193613 L594.193473,110.872587 C594.673692,112.216684 595.266659,114.355587 595.742703,116.174071 L595.784462,116.174071 C596.25633,114.313974 596.736549,112.649458 597.254352,111.109781 L603.04622,94.0193613 L607.572813,94.0193613 L611.623363,120.722361 L607.810835,120.722361 Z" id="Fill-45" fill="#0054A5" sketch:type="MSShapeGroup" mask="url(#mask-4)"></path>
                <path d="M623.547429,103.670642 C620.728747,103.670642 617.993582,105.846997 617.993582,110.711545 C617.993582,115.459577 619.939516,118.072868 623.547429,118.072868 C626.487209,118.072868 629.02611,115.775835 629.02611,110.753158 C629.02611,106.283932 627.201275,103.670642 623.547429,103.670642 M623.113143,121.081481 C617.751385,121.081481 614.260396,117.989642 614.260396,111.069416 C614.260396,105.297706 617.910066,100.703642 623.864791,100.703642 C628.909187,100.703642 632.759297,103.475061 632.759297,110.553416 C632.759297,116.487416 628.946769,121.081481 623.113143,121.081481" id="Fill-46" fill="#0054A5" sketch:type="MSShapeGroup" mask="url(#mask-4)"></path>
                <path d="M640.092044,121.079816 C638.584571,121.079816 636.956,120.921687 635.724132,120.563816 L636.041495,117.397074 C637.315121,117.913074 638.943692,118.191881 640.409407,118.191881 C642.952484,118.191881 644.697978,117.043365 644.697978,115.183268 C644.697978,110.755655 635.527868,113.522913 635.527868,106.602687 C635.527868,103.236203 638.14611,100.706139 643.386769,100.706139 C644.576879,100.706139 646.009187,100.864268 647.199297,101.101461 L646.919516,104.026848 C645.766989,103.668977 644.37644,103.435945 643.069407,103.435945 C640.451165,103.435945 639.219297,104.542848 639.219297,106.244816 C639.219297,110.593365 648.426989,108.104913 648.426989,114.787945 C648.426989,118.391623 645.253363,121.079816 640.092044,121.079816" id="Fill-47" fill="#0054A5" sketch:type="MSShapeGroup" mask="url(#mask-4)"></path>
                <path d="M659.05822,121.039452 C655.00767,121.039452 653.775802,119.374935 653.775802,115.142903 L653.775802,103.828355 L649.729429,103.828355 L649.729429,101.061097 L653.775802,101.061097 L653.775802,94.6943226 L657.350308,93.7039355 L657.350308,101.061097 L662.866571,101.061097 L662.866571,103.828355 L657.350308,103.828355 L657.350308,113.877871 C657.350308,117.123677 657.985033,117.993387 660.168989,117.993387 C661.079319,117.993387 661.952066,117.87271 662.670308,117.672968 L663.025253,120.602516 C661.876901,120.881323 660.32767,121.039452 659.05822,121.039452" id="Fill-48" fill="#0054A5" sketch:type="MSShapeGroup" mask="url(#mask-4)"></path>
                <path d="M680.838901,96.8294806 C679.924396,96.8294806 679.130989,96.8669323 678.416923,96.9085452 L678.416923,106.009287 C678.813626,106.046739 679.607033,106.08419 680.68022,106.08419 C684.53033,106.08419 686.751868,104.145029 686.751868,101.298706 C686.751868,98.0945129 684.730769,96.8294806 680.838901,96.8294806 L680.838901,96.8294806 Z M687.666374,120.72361 L678.892967,108.776545 L678.416923,108.776545 L678.416923,120.72361 L674.763077,120.72361 L674.763077,94.0206097 C676.587912,93.8999323 678.533846,93.8624806 681.473626,93.8624806 C686.751868,93.8624806 690.564396,95.7225774 690.564396,100.824319 C690.564396,105.37261 686.952308,108.023352 682.701319,108.33961 C683.498901,109.292545 684.32989,110.320384 685.006374,111.190094 L692.30989,120.72361 L687.666374,120.72361 Z" id="Fill-49" fill="#0054A5" sketch:type="MSShapeGroup" mask="url(#mask-4)"></path>
                <path d="M701.982769,103.394332 C699.40211,103.394332 697.577275,105.296042 697.142989,108.300494 L706.39244,108.300494 C706.467604,105.296042 704.763868,103.394332 701.982769,103.394332 M709.921011,110.830558 L697.02189,110.830558 C696.859033,115.973913 698.963648,118.191881 703.256396,118.191881 C705.160571,118.191881 707.144088,117.796558 708.889582,117.043365 L709.407385,119.852235 C707.423868,120.647042 705.043648,121.079816 702.579912,121.079816 C696.583429,121.079816 693.330462,117.913074 693.330462,110.988687 C693.330462,105.137913 696.625187,100.706139 702.224967,100.706139 C707.741231,100.706139 710.04211,104.384719 710.04211,108.774881 C710.04211,109.249268 710.004527,110.044074 709.921011,110.830558" id="Fill-50" fill="#0054A5" sketch:type="MSShapeGroup" mask="url(#mask-4)"></path>
                <path d="M724.758132,111.505519 C718.28978,111.505519 716.423187,113.286552 716.423187,115.263165 C716.423187,116.965132 717.613297,118.267616 719.442308,118.267616 C722.615934,118.267616 724.758132,115.105035 724.758132,112.017358 L724.758132,111.505519 Z M724.958571,120.722777 C724.958571,119.337068 724.958571,117.913906 725.159011,116.802842 L725.075495,116.802842 C724.127582,119.220552 721.622088,121.080648 718.369121,121.080648 C715.116154,121.080648 712.89044,118.941745 712.89044,115.775003 C712.89044,111.547132 717.216593,109.012906 724.758132,109.012906 L724.758132,108.105745 C724.758132,104.980616 723.689121,103.474229 720.590659,103.474229 C718.728242,103.474229 716.343846,104.110906 714.635934,104.89739 L713.963626,102.088519 C715.867802,101.297874 718.486044,100.669519 721.066703,100.669519 C726.587143,100.669519 728.332637,103.3161 728.332637,107.548132 L728.332637,115.063423 C728.332637,116.923519 728.37022,119.02081 728.453736,120.722777 L724.958571,120.722777 Z" id="Fill-51" fill="#0054A5" sketch:type="MSShapeGroup" mask="url(#mask-4)"></path>
                <path d="M746.106615,104.028513 C744.91233,103.753868 743.72222,103.595739 742.611451,103.595739 C738.840681,103.595739 736.339363,105.846997 736.339363,111.506352 C736.339363,115.734223 737.729912,118.147771 740.707275,118.147771 C744.28178,118.147771 746.106615,113.998965 746.106615,110.553416 L746.106615,104.028513 Z M746.223538,120.72361 C746.223538,119.612545 746.302879,117.873126 746.540901,116.728771 L746.46156,116.687158 C745.350791,119.3379 742.928813,121.081481 739.830352,121.081481 C734.990571,121.081481 732.568593,117.556868 732.568593,111.82261 C732.568593,104.939835 736.539802,100.786868 742.770132,100.786868 C743.843319,100.786868 744.91233,100.861771 746.106615,100.982448 L746.106615,91.8442548 L749.676945,91.8442548 L749.676945,120.72361 L746.223538,120.72361 Z" id="Fill-52" fill="#0054A5" sketch:type="MSShapeGroup" mask="url(#mask-4)"></path>
                <path d="M756.774176,121.079816 C755.425385,121.079816 754.31044,119.968752 754.31044,118.624655 C754.31044,117.280558 755.425385,116.173655 756.774176,116.173655 C758.160549,116.173655 759.233736,117.280558 759.233736,118.624655 C759.233736,119.968752 758.160549,121.079816 756.774176,121.079816" id="Fill-53" fill="#0054A5" sketch:type="MSShapeGroup" mask="url(#mask-4)"></path>
                <path d="M181.913516,27.8694097 C180.823626,24.8899258 180.009341,22.1809258 179.286923,19.5634742 L179.103187,19.5634742 C178.380769,22.1809258 177.566484,24.8899258 176.568462,27.6904742 L168.321209,50.7148935 L190.068901,50.7148935 L181.913516,27.8694097 Z M197.318132,71.5712806 L192.244505,57.3063774 L166.237473,57.3063774 L161.163846,71.5712806 L152.645165,71.5712806 L174.848022,10.6250226 L184.268681,10.6250226 L206.651099,71.5712806 L197.318132,71.5712806 Z" id="Fill-54" fill="#0054A5" sketch:type="MSShapeGroup" mask="url(#mask-4)"></path>
                <path d="M234.633297,72.2945129 C214.973516,72.2945129 206.818132,59.8314484 206.818132,42.5870613 C206.818132,23.9860935 216.059231,10.0832226 236.717033,10.0832226 C241.431538,10.0832226 246.413297,10.7157387 250.76033,11.9766097 L249.403187,19.5626419 C245.148022,18.1186742 240.433516,17.2156742 235.810879,17.2156742 C221.855275,17.2156742 215.87967,27.8685774 215.87967,41.2346419 C215.87967,56.2236097 222.402308,64.8915774 236.629341,64.8915774 C241.068242,64.8915774 246.413297,63.6265452 250.037912,61.8205452 L251.399231,69.0445452 C246.776593,70.9379323 240.796813,72.2945129 234.633297,72.2945129" id="Fill-55" fill="#0054A5" sketch:type="MSShapeGroup" mask="url(#mask-4)"></path>
                <path d="M270.405077,72.3839806 C265.423319,72.3839806 260.800681,71.7514645 256.99233,70.669529 L257.990352,62.7214645 C261.886396,64.2569806 266.325297,65.1599806 270.856066,65.1599806 C277.925736,65.1599806 284.085077,62.2720452 284.085077,54.7775613 C284.085077,41.0536258 256.449473,46.4674645 256.449473,27.0550452 C256.449473,17.0346581 264.062,9.81065806 277.833868,9.81065806 C281.366615,9.81065806 285.446396,10.1726903 288.887275,10.9841419 L287.889253,18.2996903 C284.627934,17.3051419 280.915626,16.6726258 277.382879,16.6726258 C269.047934,16.6726258 265.060022,20.4635613 265.060022,26.1562065 C265.060022,39.2476258 293.058923,34.5536903 293.058923,53.6914645 C293.058923,64.6190129 284.085077,72.3839806 270.405077,72.3839806" id="Fill-56" fill="#0054A5" sketch:type="MSShapeGroup" mask="url(#mask-4)"></path>
                <path d="M326.012022,15.1396065 C323.201692,15.1396065 321.030264,15.1396065 318.946527,15.3185419 L318.946527,41.9549613 C320.754659,42.2254452 322.838396,42.4085419 325.018176,42.4085419 C335.524549,42.3169935 341.867626,36.7200581 341.867626,28.4099613 C341.867626,19.7461548 336.706308,15.1396065 326.012022,15.1396065 M324.563011,47.1940258 C322.658835,47.1940258 320.754659,47.1024774 318.946527,46.9235419 L318.946527,71.5708645 L313.146308,71.5708645 L313.146308,10.6246065 C317.31378,10.445671 322.02411,10.3541226 327.101912,10.3541226 C340.598176,10.3541226 347.939275,17.3950258 347.939275,27.4195742 C347.939275,39.3375097 337.608286,47.1940258 324.563011,47.1940258" id="Fill-57" fill="#0054A5" sketch:type="MSShapeGroup" mask="url(#mask-4)"></path>
                <path d="M385.97811,71.5712806 C385.97811,68.4128613 386.245363,63.8978613 386.792396,61.0973129 L386.608659,61.0057645 C384.073934,67.8677323 378.273714,72.2953452 370.302066,72.2953452 C359.883385,72.2953452 356.709758,65.8827968 356.709758,57.9388935 L356.709758,26.6959258 L362.41811,26.6959258 L362.41811,55.7708613 C362.41811,63.2653452 364.414154,67.6887968 371.571516,67.6887968 C380.086022,67.6887968 386.065802,59.4702484 386.065802,48.0932806 L386.065802,26.6959258 L391.77833,26.6959258 L391.77833,71.5712806 L385.97811,71.5712806 Z" id="Fill-58" fill="#0054A5" sketch:type="MSShapeGroup" mask="url(#mask-4)"></path>
                <path d="M427.275758,30.5779935 C417.58367,30.5779935 413.052901,41.8634129 413.052901,49.8988645 L413.052901,66.2444129 C415.863231,67.2389613 418.848945,67.5968323 422.477736,67.5968323 C432.349385,67.5968323 438.872022,61.7294129 438.872022,47.6434452 C438.872022,36.9863806 435.247407,30.5779935 427.275758,30.5779935 M421.930703,72.1118323 C415.950923,72.1118323 411.875319,71.5708645 407.344549,70.488929 L407.344549,5.6601871 L413.052901,5.6601871 L413.052901,29.2255742 C413.052901,31.6640903 412.777297,35.0929935 412.23444,37.3484129 L412.414,37.4399613 C414.952901,30.2201226 421.024549,25.9714452 428.181912,25.9714452 C438.78433,25.9714452 444.855978,33.1080581 444.855978,47.1024774 C444.855978,63.3523161 435.702571,72.1118323 421.930703,72.1118323" id="Fill-59" fill="#0054A5" sketch:type="MSShapeGroup" mask="url(#mask-4)"></path>
                <path d="M456.070989,5.65935484 L461.779341,5.65935484 L461.779341,71.5700323 L456.070989,71.5700323 L456.070989,5.65935484 Z" id="Fill-60" fill="#0054A5" sketch:type="MSShapeGroup" mask="url(#mask-4)"></path>
                <path d="M477.355165,26.6988387 L483.063516,26.6988387 L483.063516,71.5741935 L477.355165,71.5741935 L477.355165,26.6988387 Z M480.257363,16.2207097 C477.994066,16.2207097 476.177582,14.4147097 476.177582,12.1592903 C476.177582,9.89970968 477.994066,8.09370968 480.257363,8.09370968 C482.520659,8.09370968 484.332967,9.81232258 484.332967,12.1592903 C484.332967,14.3273226 482.520659,16.2207097 480.257363,16.2207097 L480.257363,16.2207097 Z" id="Fill-61" fill="#0054A5" sketch:type="MSShapeGroup" mask="url(#mask-4)"></path>
                <path d="M513.414242,72.1134968 C503.901714,72.1134968 494.113582,68.0479161 494.113582,50.7119806 C494.113582,35.8145613 501.542374,26.1562065 515.226549,26.1562065 C519.757319,26.1562065 523.924791,26.8761097 527.18611,28.2326903 L525.916659,32.9266258 C522.834901,31.7531419 518.57556,30.6712065 514.320396,30.6712065 C505.258857,30.6712065 500.185231,38.6151097 500.185231,49.5384968 C500.185231,59.2010129 502.991385,67.3280129 514.587648,67.3280129 C518.851165,67.3280129 522.834901,66.4250129 526.279956,64.8894968 L527.457538,69.4960452 C523.469626,71.2104968 518.304132,72.1134968 513.414242,72.1134968" id="Fill-62" fill="#0054A5" sketch:type="MSShapeGroup" mask="url(#mask-4)"></path>
                <path d="M560.787714,49.8118935 C543.750352,49.8118935 538.860462,54.6847645 538.860462,59.7448935 C538.860462,64.2598935 541.938044,67.5972484 546.744418,67.5972484 C555.167055,67.5972484 560.787714,59.1123774 560.787714,50.893829 L560.787714,49.8118935 Z M560.875407,71.5712806 C560.875407,67.9592806 560.967275,64.3472806 561.418264,61.729829 L561.238703,61.6382806 C559.063099,67.5057 553.175187,72.2953452 545.291231,72.2953452 C538.313429,72.2953452 533.060242,67.8677323 533.060242,60.6478935 C533.060242,51.7094419 542.576945,45.4799903 560.787714,45.4799903 L560.787714,43.0414742 C560.787714,34.6439903 558.248813,30.5784097 550.185297,30.5784097 C545.834088,30.5784097 540.397165,32.1139258 536.684857,33.9199258 L535.323538,29.2259903 C539.582879,27.3284419 545.291231,25.9718613 550.999582,25.9718613 C562.687714,25.9718613 566.49189,32.1139258 566.49189,41.5933452 L566.49189,57.6684097 C566.49189,62.2707968 566.587934,67.5057 566.675626,71.5712806 L560.875407,71.5712806 Z" id="Fill-63" fill="#0054A5" sketch:type="MSShapeGroup" mask="url(#mask-4)"></path>
                <path d="M593.92956,72.2029645 C585.143626,72.2029645 582.696593,68.2289323 582.696593,59.1989323 L582.696593,31.2100935 L572.365604,31.2100935 L572.365604,26.6950935 L582.696593,26.6950935 L582.696593,11.5271903 L588.313077,9.99167419 L588.313077,26.6950935 L602.176813,26.6950935 L602.176813,31.2100935 L588.313077,31.2100935 L588.313077,56.4025452 C588.313077,64.9789645 589.84978,67.1469968 595.47044,67.1469968 C597.82978,67.1469968 600.001209,66.8765129 601.721648,66.4229323 L602.54011,71.2999645 C600.093077,71.8409323 596.73989,72.2029645 593.92956,72.2029645" id="Fill-64" fill="#0054A5" sketch:type="MSShapeGroup" mask="url(#mask-4)"></path>
                <path d="M612.585055,26.6988387 L618.293407,26.6988387 L618.293407,71.5741935 L612.585055,71.5741935 L612.585055,26.6988387 Z M615.487253,16.2207097 C613.223956,16.2207097 611.407473,14.4147097 611.407473,12.1592903 C611.407473,9.89970968 613.223956,8.09370968 615.487253,8.09370968 C617.750549,8.09370968 619.562857,9.81232258 619.562857,12.1592903 C619.562857,14.3273226 617.750549,16.2207097 615.487253,16.2207097 L615.487253,16.2207097 Z" id="Fill-65" fill="#0054A5" sketch:type="MSShapeGroup" mask="url(#mask-4)"></path>
                <path d="M649.638396,30.5779935 C642.209604,30.5779935 635.139934,36.2664774 635.139934,48.816929 C635.139934,60.7390258 640.397297,67.5968323 649.726088,67.5968323 C657.159055,67.5968323 664.044989,61.9083484 664.044989,48.7253806 C664.044989,37.4399613 659.150923,30.5779935 649.638396,30.5779935 M648.732242,72.294929 C636.772681,72.294929 629.16433,64.9793806 629.16433,49.2705097 C629.16433,36.7200581 636.772681,25.9714452 650.273121,25.9714452 C660.78367,25.9714452 669.932901,31.7514774 669.932901,48.4548968 C669.932901,61.5463161 661.961253,72.294929 648.732242,72.294929" id="Fill-66" fill="#0054A5" sketch:type="MSShapeGroup" mask="url(#mask-4)"></path>
                <path d="M710.330659,71.5712806 L710.330659,42.4963452 C710.330659,35.0018613 708.246923,30.5784097 701.181429,30.5784097 C692.662747,30.5784097 686.682967,38.7969581 686.682967,50.1697645 L686.682967,71.5712806 L680.974615,71.5712806 L680.974615,26.6959258 L686.770659,26.6959258 C686.770659,29.8585065 686.499231,34.3735065 685.956374,37.1698935 L686.135934,37.2614419 C688.674835,30.3953129 694.475055,25.9718613 702.446703,25.9718613 C712.865385,25.9718613 716.039011,32.3844097 716.039011,40.3324742 L716.039011,71.5712806 L710.330659,71.5712806 Z" id="Fill-67" fill="#0054A5" sketch:type="MSShapeGroup" mask="url(#mask-4)"></path>
                <path d="M738.309516,72.2945129 C734.868637,72.2945129 731.064462,71.9324806 728.254132,71.121029 L729.068418,65.703029 C731.96644,66.7849645 735.862484,67.4174806 739.307538,67.4174806 C746.013912,67.4174806 750.907978,64.2590613 750.907978,59.2030935 C750.907978,47.5556419 728.070396,54.9585774 728.070396,38.7961258 C728.070396,31.389029 733.962484,25.9751903 745.107758,25.9751903 C748.00578,25.9751903 751.446659,26.3372226 754.165121,26.9655774 L753.442703,31.8426097 C750.632374,31.0311581 747.458747,30.4901903 744.293473,30.4901903 C737.31567,30.4901903 733.86644,33.4655129 733.86644,38.1636097 C733.86644,49.8110613 756.79589,42.6786097 756.79589,58.3874806 C756.79589,66.0609 749.90578,72.2945129 738.309516,72.2945129" id="Fill-68" fill="#0054A5" sketch:type="MSShapeGroup" mask="url(#mask-4)"></path>
            </g>
        </g>
    </g>
</svg>