<svg xmlns="http://www.w3.org/2000/svg" xml:space="preserve" width="955.29797" height="306.70801" viewBox="0 0 955.29798 306.708">
  <path fill="#28327f" d="M819.55826562 163.55224915c-.87677744-.87677745-4.69500179 0-5.27763454 1.15960887.87112081 8.98838294 4.4008571 38.29537602 7.342304 42.93381152 4.69500179 3.19033856 23.49763545 8.41140681 41.4121784 8.41140681 42.5944138 0 67.26297139-22.0495385 67.26297139-53.95292414 0-19.15334464-9.98394959-32.79147634-30.83428282-46.42960803-12.04296241-8.12291875-19.07980847-11.89023344-30.83993945-20.884273-11.75447435-8.70555151-17.33756684-17.98807914-17.33756684-30.17245727 0-15.08622864 10.28940753-26.40514258 27.0217151-26.40514258 8.81302746 0 15.57835533 1.45375356 22.92631596 6.38633375 8.21342481 5.50955632 11.16052834 14.50925251 13.21388455 32.20318696.87677744.58263275 4.40651372.28848806 5.28329116-.58263275 1.1822354-18.27091057 2.93013365-29.00719177 4.9948031-40.32610571-10.86072702-.57697613-23.49197881-4.34994744-43.77099255-4.34994744-32.60480759 0-60.20915544 17.98807913-60.20915544 50.76824221 0 26.11665452 13.51368586 39.74912958 44.63645674 60.0620831 22.92065933 15.08622863 30.55145139 24.94573238 30.55145139 41.19722652 0 15.36906006-9.68414827 25.5227085-25.25119034 25.5227085-9.99526284 0-19.39657967-2.02507305-27.32717305-7.2461413-10.87204028-7.84008733-17.62039827-16.82847027-23.79743676-38.29537602M675.04837328 81.73477223c0 .87112081 4.98914647.87112081 5.87723717-.2941447.28283144-15.080572 3.81822435-38.00123132 5.58309249-45.54717395-15.27289738-.86546419-40.25256953-4.34994744-56.69638905-4.34994744-24.6742142 0-44.93625806 4.34994744-60.51461338 12.47852282-31.4225722 16.24018088-45.82434877 46.12415008-45.82434877 77.75036091 0 62.3699876 36.72848988 94.28468648 101.64396037 94.28468648 21.1388213 0 34.65816379-3.47882662 44.35362531-6.38067712 7.63644869-6.09218907 18.20868765-29.0128484 20.85598986-39.74347296-.29980131-1.1652655-3.81822434-2.61336244-4.69500178-2.61336244-4.9948031 10.15364844-12.64256505 21.1784177-19.696381 27.84758289-9.10717213 8.71120813-23.49763544 10.74193782-33.19309696 10.74193782-45.51889082 0-65.4924466-39.46064152-65.4924466-87.33268986 0-55.40667771 23.49763544-80.06957866 54.92586427-80.06957866 11.16618497 0 24.38006951.87112081 36.71151999 8.12291875 12.04296241 7.25179794 14.41308982 20.30729689 16.16098808 35.10503746m-363.9474879-6.67482182c5.2889478 15.3747167 13.80783056 42.65098009 18.50848897 57.73720872 0 .57697612-.58828938 1.45375356-.88243407 1.45375356-3.52973628.28283144-12.3371071 0-21.73842393 0-7.63644869 0-12.92539649 0-15.86118676-.29414469 0 0-.58828938-.29414469-.29414469-1.45375356 4.40651373-12.4728662 12.63690842-39.4549849 19.09112172-57.44306403 0-.28848806.88243407 0 1.17657876 0m-81.953236 131.42611025c-.58828938.58263276-.58828938 4.64409213 0 5.22106826 10.27809427 0 17.92019959-.87112082 28.49243855-.87112082 13.21954118 0 23.20914739.87112082 33.48724166.87112082.58828938-.28283144 1.47072345-4.6384355.87677744-5.22106826-5.57743585-.57697612-9.3956602-1.74224162-13.50802923-2.6077058-7.93059338-1.74224163-7.93059338-6.38633376-8.21908145-9.57667233-.29980131-5.803701 9.98394959-32.19753032 14.9787527-46.1298067.29414468-1.15960888 1.7592115-2.61336245 2.64164558-2.61336245 3.81822434-.28848806 14.09631861 0 25.25684696 0 7.34796062 0 15.5726987 0 18.50848897.2941447 1.17657876 0 2.05901283 1.44809693 2.35315752 2.03072968 4.70065842 12.76701088 12.92539648 36.2589897 17.03776552 49.03165721.28848806.87112082.58263275 4.6384355-2.9414469 6.09218907-2.64164559 1.15960887-8.51888276 2.31921775-13.80217393 3.47882662-.58828938.87112082-.29414469 4.34994744 0 5.22106826 10.86638365-.28283144 14.69026463-.87112082 42.00046779-.87112082 18.50848897 0 32.02217484.87112082 39.36447884.87112082.58263275-.57697613.88243407-4.92692357.58263275-5.22106826-18.7913204-2.9018505-21.15013456-4.93258019-29.66336069-27.84758288-8.81302745-24.95138902-34.65816379-101.83628574-43.77099256-128.81840444-1.17092213-4.34994744-2.93013364-10.15364845-3.52407965-13.6381317-3.22993497.29414469-6.45986993.58263275-12.6312518.58263275-4.4008571 0-9.68980489-.28848806-13.21388454-.58263275-.58828938 3.1959952-2.05901284 8.7055515-3.22993497 12.77266751-7.05381594 21.46124913-36.13454387 101.24233973-50.81915187 136.65283513-7.05381593 16.817157-11.16618497 18.27091057-30.2573067 20.87861638M54.6689384 40.82603376c5.2889478.58263276 10.57223897 1.45375357 14.684608 2.61336245 7.34796063 2.60770581 7.04815931 7.82877406 7.64210532 14.5092525.87677744 22.62085801 1.75921151 119.52456356.58263275 161.2987662-.29414469 19.7359774-1.75921151 27.56475146-4.40651372 31.04357809-2.64164559 2.9018505-4.98914648 3.19599519-7.342304 3.19599519-5.87158055 0-20.26770049-5.803701-33.19309697-15.3747167-3.22993496 5.79804438-6.75401462 16.53432557-7.63644869 20.88992964v4.93258019c2.93579027 4.05580275 9.98960621 6.3750205 17.33191021 6.3750205 20.85598986 0 42.5944138-15.3747167 59.62652269-43.22795621 8.22473807-14.2094512 12.92539648-31.9146989 13.80783056-49.90277803 1.7592115-32.49167501 1.17657876-82.3887964 1.7592115-116.62271305 0-12.4728662 2.35315753-15.08622863 6.46552657-17.11695832 3.22993496-1.45375357 7.0481593-2.03072969 10.87204028-2.61336244.28848806-.86546419.28848806-4.06145938 0-4.9325802-9.40131683 0-22.03256863.87112082-36.42868856.87112082-23.49763545 0-34.07553104-.87112081-43.76533594-.87112081-.88243407.58263275-.58828938 4.067116 0 4.93258019"/>
  <path fill="#231f20" d="M909.8154325 256.62076046c.56566286.0565663.98425338.12444584 1.41981379.24889167.9276871.22060851 1.33496436.46950017 2.48325998 2.4493202 1.17657876 2.0703261 2.98669993 5.43036352 3.65418211 6.8671472.2149519.50343995.37899412 1.10304258.37899412 1.57254276-.02828314 1.35193425 0 2.57376604-.06222291 4.03883287 0 .92203047-.13010246 1.57254276-.98425339 1.7592115-.4751568.1357591-1.10869922.22060853-1.99678992.31677121-.13010245.09050606-.13010245.90506059 0 1.00122328 1.19920528 0 2.3079045-.0961627 4.75156808-.0961627 1.88365734 0 3.99923646.0961627 4.98348985.0961627.12444583-.0961627.197982-.87677745.09616268-1.00122328-.7523316-.09616268-1.32930773-.18101211-1.83840431-.2771748-.88243407-.22626515-1.02384979-.85415093-1.05213293-1.91194049-.03393977-1.60648254-.06222292-2.95276016-.06222292-4.3612607 0-.53737972.13010246-.91637384.35071098-1.35193424.70142195-1.41415717 2.73215164-5.01742962 3.96529669-6.99724965.89940396-1.3802174 1.37456076-1.76486814 2.28527798-2.03638632.36202423-.13010246.89940395-.19232537 1.40850053-.28283143.12444583-.13010246.12444583-.93900036 0-1.00122328-1.01819315 0-1.90062723.09050606-3.5353929.09050606-1.44809694 0-2.85094085-.09050606-3.70509178-.09050606-.13010246.06222292-.18666875.78627139-.09050606 1.00122328.68445207.09050606 1.10304259.15272897 1.58385603.28283143.76364487.15272897.82021115.49778332.66748218 1.09172933-.44121704 1.2218318-2.42103707 4.90429705-3.46185674 6.62391216-.06222292.02828314-.15272897.02828314-.23192178 0-.50909658-.91071721-2.87922398-5.45864666-3.54670616-6.8671472-.19232538-.44687366-.22060852-.78627138.24889166-.91637383.22626514-.06222292.70142195-.19232538 1.02384978-.2149519.12444583-.13010245.0961627-.9107172-.04525303-1.00122327-.50909658.02828315-2.6246757.09050606-4.41217035.09050606-1.61213917 0-3.22993496-.09050606-4.24812812-.09050606-.09050606.12444583-.16404223.81455453-.02828315.9672835m-7.55725588 17.25271741c-1.11435585-.15272897-1.62345243-.18101211-2.12689238-.37333749-.67879544-.21495189-.83718104-.75798824-.89374733-1.53294636-.10181931-1.82143443-.06222291-9.97829296-.06222291-14.46965611 0-.1187892.06222291-.22060852.1187892-.24889166.57697612-.0395964 2.64730221-.06787955 3.71640503 0 .6109159.06222291.95597024.28283143 1.21617516.97294013.28848806.72404846.46384355 1.66304882.593946 2.78871792.10181932.13010246 1.01819317.0961627 1.14829563-.02828314.12444583-1.94022363.41293389-4.16893532.76364487-5.42470688-.0395964-.06222292-.1583856-.22060852-.2545483-.22060852-.85980755.28848806-1.78749465.40727726-3.43357359.40727726H891.6576545c-.89374733 0-1.95153689-.09050606-2.80568781-.4355604-.09050606-.03393978-.31111458.13010246-.31111458.18666874-.09616269 1.3802174-.38465075 3.98226658-.63354241 5.27197791.05090966.22060852.98425339.40727726 1.10304259.28283143.39030738-1.10304258.79758464-2.07598271 1.18223539-2.76609141.40727726-.75233161.84283767-1.0068799 1.49334996-1.03516304.85415093-.0395964 2.8226577-.0395964 3.38832057 0 .07353617 0 .17535549.18666874.17535549.24889166 0 4.9948031.02262651 11.10961868-.10181932 14.02843907-.07353617 1.40850054-.28848806 1.84406094-1.18223539 2.03072969-.4355604.13575909-1.26142819.22060852-2.11557912.3167712-.13575908.12444583-.16404223.8484943 0 1.00122328.9672835 0 2.61901907-.0961627 5.32288757-.0961627 2.0929526 0 3.85216412.0961627 4.98348985.0961627.1583856-.12444583.23192178-.87677745.10181932-1.00122328m-33.28925966-17.21877763c.67879544.05656628 1.21617516.15272897 1.69133197.28283143.63354241.18666875.83152441.44121703.8880907 1.40850054.06222291.93900035.09050606 3.51842302.09050606 6.02430952 0 3.54104954 0 6.14309872-.09050606 7.52331611-.03393977 1.06910282-.3167712 1.44244031-.95031362 1.60648254-.46950017.12444583-1.30668122.24889166-2.34184426.34505435-.10181932.15272897-.10181932.84283767 0 1.02950642 1.57254277 0 3.64286886-.0961627 5.45299003-.0961627 3.36003742 0 6.16572523.12444584 8.8243407.12444584 1.43678368 0 1.6177958-.18101212 1.77052477-.49778332.52040984-1.00122328 1.23314505-3.69943515 1.40850054-4.4800499-.13010246-.19232537-.8880907-.44121704-1.0860727-.40727726-.47515681 1.05778956-1.07475945 2.19477192-1.64607894 2.85094084-.66182555.78627138-1.08041608.94465699-2.51154313.9672835-1.6177958 0-3.55801942-.08484943-4.19721846-.21495189-.3733375-.09050606-.69576533-.5317231-.69576533-1.09738596 0-1.51031985-.03393977-4.02186297 0-5.77541786 0-.06222291.09050606-.25454829.18666875-.25454829 1.02950642 0 3.53539291 0 4.2255016.06787955.66748219.06222291.9276871.44121703 1.08607271.87677744.13010246.40727726.10181932.40727726.32242783 1.28971133.14707235.1187892 1.0238498.09616269 1.17092214-.02828314-.03393978-.82021116-.0565663-2.07598272-.0565663-3.04326622 0-1.02950642.11313258-2.28527798.1753555-3.01498307-.15272898-.1187892-1.01253653-.1753555-1.19354865-.06222292-.09616269.4129339-.16969886.82021116-.28848806 1.1652655-.197982.6901087-.44687366 1.00122328-1.1256691 1.02950642-1.02950642.09616269-3.32609765.06787954-4.31600767.06787954-.09616269 0-.18666875-.12444583-.18666875-.25454829-.03393977-1.88365734-.03393977-4.32732092 0-6.27320118 0-.16969886.16404224-.53737972.35071098-.56566286.44687366-.06787955 3.81822435-.06787955 4.57055596 0 .63919904.06222291 1.0860727.28283143 1.37456076.94465698.22060852.49778332.37899412 1.09172933.50343995 2.19477192.1583856.09050606.98991002.06222292 1.13698236-.09616269.09616269-1.56688613.28848806-3.6315556.50909658-4.57621258 0-.06222292-.05090966-.12444583-.12444583-.12444583-.93900036.12444583-2.69255524.15272897-3.9087304.15272897h-6.34108073c-1.62345242 0-3.49013988-.09050606-4.60449573-.09050606-.13010246.09050606-.197982.84283767-.07353617 1.00122328m-13.01024591 0c.76364487.09050606 1.23880167.15272897 1.7761814.3167712.61091589.18666875.75798824.6505123.8315244 1.340621.05090967 1.38021739.04525304 3.07720598.04525304 6.14875535 0 3.07154936.00565663 6.55603261-.04525303 7.56291251-.10181932 1.06910282-.26020492 1.40850054-1.12001248 1.60082591-.38465075.09616269-.82021115.15272898-1.48769333.22060852-.1583856.1187892-.1583856.90506059 0 1.02950642 1.13698236 0 2.28527797-.0961627 4.79116447-.0961627 2.04204295 0 3.42791697.06787955 4.54792944.0961627.14707235-.0961627.24889166-.87677745.11313257-1.02950642-.66748218-.09616269-1.39153065-.18666875-1.7988079-.3167712-.92203048-.2149519-.99556665-.87677745-1.01819317-1.56122951-.07353617-1.17092214-.06222291-3.7107484-.06222291-7.24614132 0-2.73215164-.01131326-5.11924893.06222291-6.18269512.02262652-.91637384.09616269-1.35759088.78061476-1.60082591.41859052-.13010246.98425338-.19232537 1.66304882-.28283143.12444583-.1583856.09050606-.87677745 0-1.00122328-.70707858 0-1.94022363.09050606-4.53661618.09050606-2.00810317 0-3.52973628-.09050606-4.51398967-.09050606-.1187892.12444583-.15272897.84283767-.02828314 1.00122328m-5.74713472 4.265098c.02828314.15272898.97859676.06222292 1.11435584-.09050605.02262652-1.5781994.30545795-4.05014612.50343996-5.08530917-1.43112706-.09050606-3.84085086-.56000623-6.38633376-.56000623-2.6642721 0-4.76288133.46950017-6.44290004 1.34062099-3.50145314 1.75921151-5.14187545 5.08530916-5.14187545 8.56413579 0 6.68047844 4.11802566 10.25546775 11.20578137 10.25546775 2.22305506 0 3.81256772-.44121703 4.7968211-.7523316.85415093-.56000624 2.14386226-3.03195297 2.53982627-4.34994745-.13575909-.26020491-.66748218-.57131949-.8880907-.60525926-.7297051 1.25577156-1.62345242 2.45497684-2.42103707 3.10548913-.92203047.81455453-2.15517551 1.03516305-3.20165182 1.03516305-5.30026105 0-7.53462937-4.48570653-7.53462937-8.9996962 0-5.55480934 2.44366358-8.40575019 6.23360478-8.40575019 1.33496437 0 2.6642721.19232538 3.78428457.78627139 1.22748842.68445206 1.51597649 1.68567534 1.83840432 3.76165806m-31.09448774 13.01590254c-1.42547042 0-2.51154312-.40727726-3.4957965-1.13132573-2.37578404-1.88365735-3.33175429-5.51521295-3.33175429-8.53019602 0-3.03760959.76364487-5.76976123 2.7038685-7.0651292.6901087-.46384354 1.61213917-.7127352 2.56810941-.7127352 1.36890414 0 2.41538044.40162063 3.39963383 1.18789201 2.16083214 1.73092837 3.08286261 5.08530917 3.08286261 8.31524413 0 2.76043479-.57697612 5.45864666-2.16083214 6.93502674-.70142196.62222915-1.74224163 1.00122327-2.76609142 1.00122327m-1.05213293 1.40850053c3.275188 0 6.4146169-1.31233784 8.45665985-4.01620634 1.32930773-1.71961512 1.92325374-3.9483268 1.92325374-6.39199039 0-5.24369476-3.41094708-9.7520278-9.96132307-9.7520278-3.3374109 0-6.25057466 1.31233784-8.04372595 3.29215787-1.87234409 1.8157778-2.59073593 4.25944138-2.59073593 6.7087616 0 2.54548289.71839184 5.26632127 2.69255525 7.31402085 1.69133197 1.75355488 4.12368229 2.84528421 7.52331611 2.84528421m-27.05565487-6.23360478c-.14707235-.09616268-.94465699.1187892-1.04081967.30545795.05656628 1.10869922.6731388 4.45742338.98991001 4.92692356.75798824.40727727 2.69255524 1.00122327 4.78550785 1.00122327 4.76288133 0 7.43846668-2.69255524 7.43846668-5.92814683 0-2.2513382-1.18789202-3.63721223-3.275188-4.92692356-1.27274144-.77495813-2.35315751-1.31233785-3.68812188-2.16083215-1.30102459-.87677744-2.02507306-1.75921151-2.02507306-3.1959952 0-1.50466321 1.08041608-2.8622541 2.90750713-2.8622541 1.00122328 0 1.79315129.19232538 2.48891661.70142196.7693015.52606647 1.11435585 1.43678368 1.39153065 3.32044102.13010246.13010246.8880907.13010246 1.0464763-.03393977.10181932-1.82143443.28848807-3.38266394.54303636-4.51398967-1.49334997-.1583856-2.78871793-.56000623-5.17581523-.56000623-3.58064594 0-6.56168924 1.9741634-6.56168924 5.54915271 0 3.13377228 2.14386226 4.6384355 4.88167053 6.26754455 2.91882039 1.75921152 3.77862795 2.69821187 3.77862795 4.3612607 0 1.8553742-1.39153065 2.73780827-2.92447702 2.73780827-1.01253653 0-2.16083215-.25454829-2.98669993-.8484943-1.13132573-.82021115-1.8949706-2.07032609-2.57376604-4.14065218m-27.78535997-12.4558963c.593946.09050606 1.29536796.15272897 1.66870545.28283143.79758464.18666875.93900036.62788578.9672835 1.47072345.09050606 1.06910282.05656629 2.82831433.05656629 6.34108073 0 3.47882662-.0395964 6.77664113-.12444583 7.52897274-.06222292.75233161-.24889166 1.09172933-.89940396 1.27839808-.593946.16404223-.91637384.19232537-1.92891037.28848806-.11313257.1187892-.11313257.87677744 0 1.02950642.98425339 0 2.60770581-.0961627 4.73459819-.0961627 2.21739843 0 6.31279758.15838561 8.69423824.15838561 1.23880168 0 1.58951266-.1583856 1.69133197-.40727726.69576533-1.1256691 1.70830186-4.6384355 1.86668746-5.55480934-.09616269-.2149519-.9276871-.46384355-1.10304259-.40162064-.54869298 1.25577156-1.43112705 2.85094084-2.03638631 3.66549537-.62788579.82021116-1.21617517 1.07475945-1.83840432 1.07475945-1.43678368.02262651-3.69377851 0-4.45176675-.19232538-.2545483-.09050606-.57697613-.37899412-.60525927-.93900036-.06787954-1.00122327-.13010246-4.45176675-.09616269-7.84008732 0-3.10548913.02828315-5.3681406.06787955-6.09218906.02828314-.75233161.13010246-1.09172933.85415092-1.31233785.35071098-.09616269.72404847-.16404223 1.54991626-.28283143.13575908-.1583856.13575908-.87677745 0-1.00122328-1.01253653 0-2.2117418.09050606-4.44611013.09050606-2.43235032 0-3.36003742-.09050606-4.53661618-.09050606-.15272898.09050606-.22060852.81455453-.08484943 1.00122328m-13.69469799 3.19033856c.6109159 1.56122951 1.70830186 4.81379099 2.12689238 6.12612884 0 .06222291-.06787954.18666874-.08484943.18666874-.33374109.03393978-1.18789202.02828315-2.13820563.02828315-.97294013 0-1.71395849.00565663-2.05901283-.02828315-.06222292-.03393977-.10181932-.09616268-.06222292-.21495189.50909658-1.49900659 1.49334997-4.4008571 2.08729598-6.09218906.03393977-.0395964.10181931-.00565663.13010245-.00565663m-9.55970243 14.00015593c-.08484943.18666875-.08484943.87677744 0 1.02950642.96162687 0 2.1721454-.0961627 3.53539291-.0961627 1.83840432 0 3.20165182.0961627 4.0275196.0961627.0961627-.12444583.18666875-.91071722.0961627-1.02950642-.60525927-.06787954-1.08041608-.15272897-1.54425963-.28848806-.86546418-.18666875-.9276871-.59960264-.9276871-1.06910282 0-.60525926.78061476-2.70952513 1.3632475-4.28772452.06787955-.13010246.22060853-.28848806.34505436-.28848806.40727726-.02828315 1.0464763-.02828315 2.53416964-.02828315 1.05778955 0 2.132549-.03393977 2.64164558 0 .09616269 0 .25454829.15272898.28283143.22060852.48081344 1.19920528 1.33496437 3.53539291 1.63476568 4.66671864.0565663.18666875.01696989.50909658-.33374109.69576533-.34505434.15272897-.97859675.28283143-1.6177958.37899412-.1187892.15272897-.0622229.87677744 0 1.02950642 1.0238498-.02828315 2.35881416-.0961627 4.63277888-.0961627 2.09860923 0 3.56367605.0961627 4.37823058.0961627.10747594-.12444583.197982-.91071722.10747594-1.02950642-2.35315752-.3167712-2.5454829-.53737972-3.52973628-2.99801319-1.10304259-2.7434649-3.93701354-10.78153422-4.88732716-13.41186655-.18666874-.53737972-.4129339-1.25011493-.54303635-1.75355488-.31111458.03393977-.75233161.06222291-1.43112705.06222291-.53737972 0-1.04081967-.02828314-1.42547042-.06222291-.06787955.50343995-.34505435 1.4424403-.60525927 2.06466946-.75233161 2.19477192-3.45620011 9.44656986-5.1701586 13.45146295-.89374732 2.08163934-1.30102458 2.330531-3.56367605 2.64730221m-4.53095955-12.92539648c.03393977.15272897.97294013.06222291 1.10869921-.09050606.02828315-1.5781994.31111458-4.05014612.50343995-5.08530917-1.41981379-.09050606-3.84085086-.56000623-6.3750205-.56000623-2.67558535 0-4.76288132.46950017-6.4542133 1.34062099-3.50145313 1.75921151-5.13056219 5.08530916-5.13056219 8.56413579 0 6.68047844 4.1067124 10.25546775 11.19446812 10.25546775 2.22305506 0 3.81822434-.44121703 4.7968211-.7523316.85980756-.56000624 2.15517552-3.03195297 2.53982627-4.34994745-.12444583-.26020491-.66748218-.57131949-.8880907-.60525926-.7297051 1.25577156-1.61213917 2.45497684-2.4097238 3.10548913-.9276871.81455453-2.16648879 1.03516305-3.21296509 1.03516305-5.30026105 0-7.52331611-4.48570653-7.52331611-8.9996962 0-5.55480934 2.44366358-8.40575019 6.22229152-8.40575019 1.33496436 0 2.6642721.19232538 3.78428457.78627139 1.23880168.68445206 1.52728974 1.68567534 1.84406095 3.76165806m-29.9235656-4.26509801c.77495812.09050606 1.2444583.15272897 1.78183802.3167712.59960264.18666875.76364487.6505123.83718104 1.340621.05656629 1.38021739.04525303 3.07720598.04525303 6.14875535 0 3.07154936.01131326 6.55603261-.04525303 7.56291251-.10181931 1.06910282-.27151817 1.40850054-1.1256691 1.60082591-.3733375.09616269-.81455453.15272898-1.49334997.22060852-.15272897.1187892-.15272897.90506059 0 1.02950642 1.14829562 0 2.2909346-.0961627 4.79116448-.0961627 2.03638631 0 3.4335736.06787955 4.54792944.0961627.1583856-.0961627.24889166-.87677745.13010246-1.02950642-.67879544-.09616269-1.40284391-.18666875-1.81012117-.3167712-.9276871-.2149519-.98425339-.87677745-1.01253653-1.56122951-.07353618-1.17092214-.06222292-3.7107484-.06222292-7.24614132 0-2.73215164-.01131326-5.11924893.06222292-6.18269512.02828314-.91637384.08484943-1.35759088.78627138-1.60082591.40727726-.13010246.97859676-.19232537 1.64607894-.28283143.12444583-.1583856.09616269-.87677745 0-1.00122328-.69576533 0-1.92891037.09050606-4.53661618.09050606-1.99678992 0-3.51842303-.09050606-4.49701979-.09050606-.13575909.12444583-.16404223.84283767-.04525303 1.00122328m-28.69607718 0c.94465698.15272897 1.70830185.28283143 2.24568157.46950018.66182556.25454828.86546419.90506058.82586779 1.4820367-.13010246 2.59639256-.78627138 10.47041965-1.11435585 12.88580009-.17535549 1.4424403-.50909658 1.84406094-1.41981379 2.10426586-.44687366.12444583-.98991002.15272897-1.58385602.24889166-.1357591.15272897-.0961627.87677744 0 1.02950642.98425338 0 2.4097238-.0961627 3.80125445-.0961627 1.934567 0 3.26953137.0961627 4.15762207.0961627.16969886-.12444583.22626514-.91071722.06787954-1.02950642-.92203047-.12444583-1.46506682-.18666875-1.99678991-.37899412-.9276871-.2771748-1.11435585-.74667498-1.11435585-1.87800071 0-2.35881416.34505435-8.880907.5713195-11.45467304.03393977-.03393977.09616268-.06222291.15272897-.06222291 2.25699483 5.36248396 5.24369476 12.04861904 6.00733963 14.61672845.13010246.06222292 1.11435585.06222292 1.27274145-.02828314.95597025-2.69255524 5.209755-11.76578761 6.44290004-14.5262224.03393978-.03393977.13010246-.03393977.1583856 0 0 2.94710353.07353618 9.53707592 0 11.8619503 0 .84283767-.1583856 1.31799448-.73536172 1.50466322-.4129339.1583856-.91637384.22060852-1.68567534.34505435-.08484943.15272897-.08484943.87677744 0 1.02950642 1.2218318 0 2.66992873-.0961627 4.42348361-.0961627 2.72083839 0 4.03883286.0961627 4.97783322.0961627.16969886-.15272898.197982-.84283767.10181932-1.02950642-.75798824-.09616269-1.36324751-.22060852-1.81012117-.3167712-.8880907-.2149519-1.0860727-.84283767-1.142639-1.75921152-.15272897-2.132549-.41859051-11.1322452-.35071097-13.2647942 0-.75798824.1187892-1.22748842.8880907-1.47638008.44687366-.13010246 1.05213293-.2545483 1.934567-.3733375.1583856-.13010245.1583856-.93900035 0-1.00122327-1.70830185 0-3.11114576.09050606-6.52774947.09050606-.03393977.49778332-.2941447 1.15395225-.5713195 1.84971757-1.09172933 2.5058865-4.35560406 9.28818426-5.09096579 10.70234143-.05656628.02828314-.13010246.05090965-.19232537 0-.7297051-1.41415717-3.55801943-7.43846669-5.01742962-10.60617874-.28848806-.6901087-.50909658-1.31799448-.56566287-1.94588026-3.11680239 0-5.05702602-.09050606-7.01987616-.09050606-.09050606.06222292-.18101212.84283767-.09050606 1.00122328m-20.61841146 0c.67879544.05656628 1.21617516.15272897 1.69133197.28283143.6335424.18666875.8315244.44121703.88243407 1.40850054.06222291.93900035.09616268 3.51842302.09616268 6.02430952 0 3.54104954 0 6.14309872-.09616268 7.52331611-.02828315 1.06910282-.31111458 1.44244031-.95031362 1.60648254-.4751568.12444583-1.30102459.24889166-2.3475009.34505435-.1018193.15272897-.1018193.84283767 0 1.02950642 1.58951266 0 3.65418212-.0961627 5.45864666-.0961627 3.36003743 0 6.16572524.12444584 8.82999734.12444584 1.42547042 0 1.61213917-.18101212 1.78183803-.49778332.50909658-1.00122328 1.23314505-3.69943515 1.39153065-4.4800499-.13010246-.19232537-.88243407-.44121704-1.08041608-.40727726-.48081343 1.05778956-1.07475944 2.19477192-1.64607894 2.85094084-.6731388.78627138-1.0860727.94465699-2.51719975.9672835-1.6177958 0-3.55801943-.08484943-4.19156183-.21495189-.37899413-.09050606-.70142196-.5317231-.70142196-1.09738596 0-1.51031985-.02828314-4.02186297 0-5.77541786 0-.06222291.10181932-.25454829.19232538-.25454829 1.01819315 0 3.52973628 0 4.2255016.06787955.67879544.06222291.9276871.44121703 1.0860727.87677744.13010247.40727726.10181932.40727726.30545795 1.28971133.16969886.1187892 1.0238498.09616269 1.1822354-.02828314-.02828315-.82021116-.0565663-2.07598272-.0565663-3.04326622 0-1.02950642.1187892-2.28527798.18101212-3.01498307-.15272897-.1187892-1.01253653-.1753555-1.19920527-.06222292-.10747595.4129339-.16404223.82021116-.28283143 1.1652655-.18666875.6901087-.44687367 1.00122328-1.11435585 1.02950642-1.0464763.09616269-3.34306754.06787954-4.32732092.06787954-.09050606 0-.19232538-.12444583-.19232538-.25454829-.02828314-1.88365734-.02828314-4.32732092 0-6.27320118 0-.16969886.1583856-.53737972.36202424-.56566286.4355604-.06787955 3.80125445-.06787955 4.56489932 0 .64485567.06222291 1.0860727.28283143 1.36324751.94465698.23192177.49778332.38465075 1.09172933.5147532 2.19477192.15838561.09050606.98991002.06222292 1.14829563-.09616269.08484943-1.56688613.28283143-3.6315556.50343995-4.57621258 0-.06222292-.06787955-.12444583-.13010246-.12444583-.95031362.12444583-2.69255524.15272897-3.9087304.15272897h-6.34673736c-1.6177958 0-3.48448325-.09050606-4.61015236-.09050606-.1187892.09050606-.18101211.84283767-.06222291 1.00122328m-25.77160017 0c.72404847.09050606 1.23314505.15272897 1.74224163.3167712.6335424.15272898.791928.49778332.85415092 1.47072345.02262652.8088979.05656629 3.76165806.05656629 6.80492428 0 2.75477816-.03393977 5.58309249-.05656629 6.2392614-.06222291 1.39153066-.24889166 1.88365735-1.11435584 2.1099225-.44121704.09616269-.78627139.15272897-1.51597648.24889166-.1357591.15272897-.10181932.93334373 0 1.02950642.65616892 0 2.24568157-.0961627 4.50833304-.0961627 2.61901907 0 4.11236903.0961627 4.72328493.0961627.13010246-.0961627.24323503-.84283767.13010246-1.02950642-.74101836-.09616269-1.39718728-.22060852-1.8157778-.34505435-.76364487-.21495189-.8880907-.72404847-.92203047-1.70264522-.0395964-1.15395225-.0395964-3.76165806-.0395964-5.6453154 0-.02828315.07353617-.1583856.10181931-.18666875.197982-.06222292 1.2444583-.06222292 4.51398967-.09050606 1.48769334 0 3.46185674 0 4.067116.02828314.12444584 0 .18666875.12444583.18666875.22060852 0 2.04204295 0 4.64974876-.02828314 5.93380346-.03393977.97294013-.28848806 1.34627762-.85415093 1.4990066-.4525303.13575909-.88243407.22060852-1.62345242.28848806-.11313258.18666875-.11313258.90506059.03393977 1.02950642.7297051 0 2.6077058-.0961627 4.53095955-.0961627 2.0703261 0 3.73337492.0961627 4.57621259.0961627.16969886-.0961627.22060852-.87677745.13575909-1.02950642-1.0634462-.12444583-1.56688614-.22060852-2.00244655-.37899412-.5713195-.18101212-.70142195-.66182555-.7693015-1.50466322-.06787954-1.2840547-.05656628-4.07842927-.05656628-6.36936387 0-3.82388098-.01131326-5.33420083.05656628-7.08775571.02828315-1.0068799.22626515-1.3236511.82586779-1.53294637.37899412-.16404223.92203047-.22626514 1.5612295-.3167712.14707235-.1583856.1187892-.87677745 0-1.00122328-.76364486 0-2.03638631.09050606-4.32732092.09050606-2.17780203 0-3.3939772-.09050606-4.53095955-.09050606-.14707235.12444583-.14707235.87112082 0 1.00122328.76364487.09050606 1.30102459.15272897 1.74789825.34505434.47515681.12444584.63919904.59960264.66182556 1.03516305.06222291 1.538603.06222291 4.29903778.06222291 5.86592392 0 .09616269-.1187892.18666874-.18666874.22626514-.39030738.02828315-1.49334997.02828315-3.9652967.02828315-3.81822434 0-4.27075463 0-4.54792944-.06787955-.06787954-.03393977-.13010245-.12444583-.16969886-.24889166 0-2.16648877 0-3.98226657.0395964-5.36248397.03393978-.97859675.197982-1.31799447.83718105-1.53860299.30545794-.09616269.93900035-.22626515 1.49334996-.28283143.11313258-.09050606.11313258-.8484943.01696989-1.00122328-.85415093 0-2.08729598.09050606-4.43479687.09050606-2.2909346 0-3.7107484-.09050606-4.47439327-.09050606-.10181931.09050606-.16404223.87112082-.02828314 1.00122328m-5.79238775 4.265098c.03393977.15272898.97859676.06222292 1.11435585-.09050605.03393977-1.5781994.3167712-4.05014612.50909658-5.08530917-1.43112705-.09050606-3.8465075-.56000623-6.38067713-.56000623-2.66992873 0-4.76853796.46950017-6.45986993 1.34062099-3.49013988 1.75921151-5.1305622 5.08530916-5.1305622 8.56413579 0 6.68047844 4.11802567 10.25546775 11.20578138 10.25546775 2.22305506 0 3.80691109-.44121703 4.7968211-.7523316.85415093-.56000624 2.16083215-3.03195297 2.53416964-4.34994745-.13010246-.26020491-.66748218-.57131949-.88243407-.60525926-.74101835 1.25577156-1.62345242 2.45497684-2.42103706 3.10548913-.91071722.81455453-2.15517552 1.03516305-3.20165182 1.03516305-5.30026106 0-7.53462938-4.48570653-7.53462938-8.9996962 0-5.55480934 2.45497684-8.40575019 6.23360478-8.40575019 1.32930774 0 2.6642721.19232538 3.77862795.78627139 1.2444583.68445206 1.5216331 1.68567534 1.83840431 3.76165806m-49.00337407-4.2424715c.94465699.09616269 1.58385603.26020492 2.1891153.5317231.72404846.32242783 1.04081967 1.19920527 1.04081967 1.86103082-.02828315 5.27197791-.1187892 10.9738596-.3167712 12.64256506-.09050607 1.06344618-.40727727 1.57254276-1.11435585 1.78749465-.53737973.19232538-1.06910282.24889166-1.77052477.34505435-.10181932.1187892-.12444583.90506059 0 1.02950642.8880907 0 2.28527797-.0961627 4.03883286-.0961627 1.55557288 0 2.97538667.0961627 3.99923646.0961627.14707234-.15272898.14707234-.91071722.05656629-1.02950642-.79192802-.09616269-1.37456077-.18666875-1.87800072-.3167712-.88243407-.19232538-1.33496436-.6505123-1.39153065-1.96850678-.09616269-1.4424403-.13010246-8.00978618-.06787954-11.39810674 0-.02828315.09616268-.09050606.16969886 0 2.02507306 2.57376603 9.68414826 12.33145047 11.49426943 14.83733697.53737972-.06222292 2.37578404-.0961627 2.85094085-.03393978-.02828315-1.09738596-.06222292-2.90750713-.06222292-4.3216643.03393977-4.64974875.06222292-9.19202156.24889166-11.85629366.13575909-1.1652655.40727726-1.5781994 1.30668122-1.84971757.40727727-.13010246.79192801-.19232537 1.3010246-.28283143.1018193-.13010246.1018193-.91071722 0-1.00122328-.5713195 0-2.05335621.09050606-3.62024235.09050606-1.99678991 0-3.46185674-.09050606-4.25378475-.09050606-.08484943.06222292-.13010246.87112082-.03393977 1.00122328.82586778.09050606 1.40850053.18666874 2.00244654.34505434.98425339.24889167 1.27274145.71839184 1.36890414 1.75355489.19232537 2.10426586.12444583 6.73704473.12444583 10.7589077-.03393977 0-.06222292.03393978-.10181932.03393978-1.92891037-2.22305506-7.1669485-8.71686476-9.870817-12.1391251-.7297051-.88243407-1.01819316-1.28971134-1.17657877-1.72527174-.39030737.03393977-1.21617516.06222291-2.07032609.06222291-1.86668745 0-3.42226033-.1187892-4.43479686-.09050606-.10181932.09050606-.12444583.91071722-.02828315 1.0238498m-13.31570386 3.16771204c.61657252 1.56122951 1.71961511 4.81379099 2.13820563 6.12612884 0 .06222291-.06787954.18666874-.10181931.18666874-.3167712.03393978-1.1822354.02828315-2.12689238.02828315-.98425338 0-1.71395848.00565663-2.07032609-.02828315-.05656628-.03393977-.08484943-.09616268-.05656628-.21495189.50909658-1.49900659 1.48769333-4.4008571 2.0929526-6.09218906.03393977-.0395964.09616269-.00565663.12444583-.00565663m-9.54838918 14.00015593c-.09050605.18666875-.09050605.87677744 0 1.02950642.944657 0 2.16083215-.0961627 3.51842303-.0961627 1.8553742 0 3.21296508.0961627 4.03883286.0961627.09050606-.12444583.18666875-.91071722.09050606-1.02950642-.60525927-.06787954-1.07475944-.15272897-1.54991625-.28848806-.86546419-.18666875-.92203047-.59960264-.92203047-1.06910282 0-.60525926.78061475-2.70952513 1.35759088-4.28772452.07353617-.13010246.23192177-.28848806.34505434-.28848806.42424715-.02828315 1.05213293-.02828315 2.5454829-.02828315 1.05213293 0 2.132549-.03393977 2.64164558 0 .09050606 0 .24889166.15272898.28848806.22060852.47515681 1.19920528 1.32930774 3.53539291 1.60648254 4.66671864.07353618.18666875.03393978.50909658-.30545794.69576533-.3563676.15272897-.99556665.28283143-1.62345243.37899412-.12444583.15272897-.06222291.87677744 0 1.02950642 1.01253653-.02828315 2.3475009-.0961627 4.63277887-.0961627 2.0929526 0 3.55801943.0961627 4.37823058.0961627.09050606-.12444583.19232538-.91071722.09050606-1.02950642-2.34750089-.3167712-2.528513-.53737972-3.50710977-2.99801319-1.12001247-2.7434649-3.94267017-10.78153422-4.89298378-13.41186655-.19232538-.53737972-.41859053-1.25011493-.54303636-1.75355488-.3167712.03393977-.76364487.06222291-1.43112705.06222291-.5317231 0-1.04081967-.02828314-1.43112705-.06222291-.05656628.50343995-.34505435 1.4424403-.593946 2.06466946-.7693015 2.19477192-3.46185675 9.44656986-5.18147186 13.45146295-.8880907 2.08163934-1.30668122 2.330531-3.5523628 2.64730221m-4.5422728-12.92539648c.0395964.15272897.98425338.06222291 1.10304258-.09050606.0395964-1.5781994.32242783-4.05014612.50909658-5.08530917-1.42547042-.09050606-3.84085086-.56000623-6.3750205-.56000623-2.66992873 0-4.76853796.46950017-6.4542133 1.34062099-3.49013988 1.75921151-5.13621882 5.08530916-5.13621882 8.56413579 0 6.68047844 4.1236823 10.25546775 11.211438 10.25546775 2.21739844 0 3.81256772-.44121703 4.79116447-.7523316.85980756-.56000624 2.1495189-3.03195297 2.53982627-4.34994745-.13010246-.26020491-.66748218-.57131949-.89940395-.60525926-.72404847 1.25577156-1.60648254 2.45497684-2.40406718 3.10548913-.91637385.81455453-2.15517552 1.03516305-3.21296508 1.03516305-5.2889478 0-7.52897275-4.48570653-7.52897275-8.9996962 0-5.55480934 2.46063347-8.40575019 6.22794816-8.40575019 1.33496436 0 2.67558535.19232538 3.7899412.78627139 1.22748842.68445206 1.5216331 1.68567534 1.83840431 3.76165806m-29.91225234-4.26509801c.76364486.09050606 1.23314504.15272897 1.7761814.3167712.59960263.18666875.7693015.6505123.82586778 1.340621.06222291 1.38021739.06222291 3.07720598.06222291 6.14875535 0 3.07154936 0 6.55603261-.06222291 7.56291251-.09616269 1.06910282-.2545483 1.40850054-1.11435585 1.60082591-.37333749.09616269-.82021115.15272898-1.48769333.22060852-.1583856.1187892-.1583856.90506059 0 1.02950642 1.13132573 0 2.28527797-.0961627 4.79116447-.0961627 2.03072969 0 3.4335736.06787955 4.54792944.0961627.14707235-.0961627.24323503-.87677745.1187892-1.02950642-.66748218-.09616269-1.39718728-.18666875-1.81012117-.3167712-.91637384-.2149519-.98425338-.87677745-1.01819316-1.56122951-.05656628-1.17092214-.05656628-3.7107484-.05656628-7.24614132 0-2.73215164 0-5.11924893.05656628-6.18269512.03393978-.91637384.10181932-1.35759088.78627139-1.60082591.41859052-.13010246.99556664-.19232537 1.66304882-.28283143.1187892-.1583856.09050606-.87677745 0-1.00122328-.69576532 0-1.94022363.09050606-4.54792944.09050606-1.98547666 0-3.51842302-.09050606-4.50267641-.09050606-.13010246.12444583-.1583856.84283767-.02828314 1.00122328m-14.45268623.24323503c2.75477816 0 4.25944138 1.79315128 4.25944138 4.5196463 0 2.0137598-.7693015 2.92447701-1.65173557 3.36003742-.57697612.2771748-2.03638631.37899412-3.65983874.31111458-.10181931 0-.18666874-.09050606-.18666874-.2149519 0-3.58064593 0-6.52774946.05656628-7.342304 0-.15272897.13010246-.40727725.23192178-.46950017.24889166-.12444583.72404847-.16404223.95031361-.16404223m-7.71564149-.24323503c.60525927.05656628 1.2048619.18666874 1.62345243.28283143.66182555.15272897.91071721.56000624.94465698 1.40850054.06787955 1.25577156.06787955 3.58064594.06787955 6.6521953 0 1.88365734-.02828315 6.11481558-.10181932 7.0255328-.05656629 1.03516304-.2771748 1.4424403-.98425339 1.6008259-.37333749.09616269-.88243407.15272898-1.4820367.24889166-.197982.09050606-.1357591.87677745 0 1.00122328.66182555 0 2.0533562-.0961627 4.50833304-.0961627 2.37578403 0 3.89741714.0961627 4.56489932.0961627.1583856-.06222292.22626515-.93900036.06787955-1.02950642-.83718104-.09616269-1.17092213-.15272897-1.71961511-.28848806-.68445207-.18666875-.8880907-.52606647-.95597025-1.4990066-.02828314-1.22748841-.05656628-3.48448325-.05656628-5.3681406 0-.06787954.08484943-.18666874.12444583-.18666874h1.26708482c.38465075.02828314.6731388.18666875.89374732.56000624 1.07475945 1.66870545 2.69255525 4.49136315 3.9652967 5.96774323.32242783.40162064.89940395.9672835 1.5612295 1.2840547 1.23314505.58828939 4.24812813.71839185 5.96774324.58828939.13010246-.09050606.28848806-.9672835.23192177-1.02950642-1.7196151-.21495189-2.00810317-.34505434-3.18468193-1.47072345-1.56122951-1.538603-4.31600767-5.49824305-5.07965254-6.83886405-.03393977-.07353617-.03393977-.21495189.02828315-.24323503 2.03638631-.85980755 3.67680862-2.32487438 3.67680862-4.84207413 0-2.78871793-2.0533562-4.7968211-5.89420706-4.7968211-1.69133197 0-3.39963382.06222291-5.77541786.06222291-1.14829562 0-3.4335736-.09050606-4.19156183-.09050606-.16404223.06222292-.22626515.81455453-.06787955 1.00122328m-19.9735558 0c.66748219.05656628 1.21051854.15272897 1.68001872.28283143.63919904.18666875.83152441.44121703.89374733 1.40850054.06222291.93900035.09050606 3.51842302.09050606 6.02430952 0 3.54104954.00565663 6.14309872-.09050606 7.52331611-.02828314 1.06910282-.3167712 1.44244031-.95031362 1.60648254-.48647006.12444583-1.30102459.24889166-2.35315752.34505435-.09616269.15272897-.09616269.84283767 0 1.02950642 1.58385603 0 3.64852549-.0961627 5.46430329-.0961627 3.3543808 0 6.1600686.12444584 8.8243407.12444584 1.43112705 0 1.61213917-.18101212 1.78183803-.49778332.50909658-1.00122328 1.23314505-3.69943515 1.39153065-4.4800499-.13010246-.19232537-.88243407-.44121704-1.0860727-.40727726-.4751568 1.05778956-1.06910282 2.19477192-1.64042231 2.85094084-.66182556.78627138-1.07475945.94465699-2.5058865.9672835-1.62910905 0-3.56933268-.08484943-4.19721846-.21495189-.3733375-.09050606-.69576533-.5317231-.69576533-1.09738596 0-1.51031985-.0395964-4.02186297 0-5.77541786 0-.06222291.0791928-.25454829.18101212-.25454829 1.02384979 0 3.52973628 0 4.2255016.06787955.67879545.06222291.9276871.44121703 1.0860727.87677744.13010247.40727726.0961627.40727726.31677121 1.28971133.1583856.1187892 1.0238498.09616269 1.17657877-.02828314-.03393978-.82021116-.06222292-2.07598272-.06222292-3.04326622 0-1.02950642.1187892-2.28527798.18101212-3.01498307-.15272898-.1187892-1.0068799-.1753555-1.19354865-.06222292-.10181932.4129339-.16969886.82021116-.28848806 1.1652655-.19232538.6901087-.44687367 1.00122328-1.11435585 1.02950642-1.0464763.09616269-3.34306753.06787954-4.32732092.06787954-.10181932 0-.18101212-.12444583-.18101212-.25454829-.0395964-1.88365734-.0395964-4.32732092 0-6.27320118 0-.16969886.15272898-.53737972.35071098-.56566286.4355604-.06787955 3.80691109-.06787955 4.56489933 0 .6335424.06222291 1.08041607.28283143 1.36890413.94465698.22060852.49778332.37899412 1.09172933.50909658 2.19477192.1583856.09050606.98425339.06222292 1.13698236-.09616269.09616269-1.56688613.28848806-3.6315556.50343995-4.57621258 0-.06222292-.05090966-.12444583-.1187892-.12444583-.94465699.12444583-2.69255524.15272897-3.9087304.15272897h-6.34673736c-1.6177958 0-3.49013988-.09050606-4.5988391-.09050606-.13010246.09050606-.19232537.84283767-.06787954 1.00122328m-28.80355313 0c.95597024.15272897 1.71395848.28283143 2.26265146.46950018.66182556.25454828.85415093.90506058.82586779 1.4820367-.13010246 2.59639256-.79758464 10.47041965-1.11435585 12.88580009-.19232537 1.4424403-.50909658 1.84406094-1.43112705 2.10426586-.44687366.12444583-.98425339.15272897-1.58951265.24889166-.12444583.15272897-.09050606.87677744 0 1.02950642.98425338 0 2.4097238-.0961627 3.80691108-.0961627 1.934567 0 3.275188.0961627 4.1632787.0961627.1583856-.12444583.22060852-.91071722.06222291-1.02950642-.92203047-.12444583-1.46506682-.18666875-2.00244654-.37899412-.91637385-.2771748-1.11435585-.74667498-1.11435585-1.87800071.00565663-2.35881416.3563676-8.880907.57697612-11.45467304.02828315-.03393977.0961627-.06222291.1583856-.06222291 2.25133821 5.36248396 5.24369477 12.04861904 6.00168301 14.61672845.13010246.06222292 1.10869922.06222292 1.27274145-.02828314.95031362-2.69255524 5.209755-11.76578761 6.4542133-14.5262224.02262652-.03393977.1187892-.03393977.15272898 0 0 2.94710353.06787954 9.53707592 0 11.8619503 0 .84283767-.15272898 1.31799448-.7297051 1.50466322-.4129339.1583856-.92203047.22060852-1.68567534.34505435-.09616269.15272897-.09616269.87677744 0 1.02950642 1.21051853 0 2.66992873-.0961627 4.41217035-.0961627 2.72649502 0 4.03317624.0961627 4.98348985.0961627.1583856-.15272898.19232537-.84283767.09616269-1.02950642-.76364487-.09616269-1.36890414-.22060852-1.81012117-.3167712-.89374733-.2149519-1.08041608-.84283767-1.14829562-1.75921152-.1583856-2.132549-.40727726-11.1322452-.34505435-13.2647942 0-.75798824.12444583-1.22748842.8880907-1.47638008.44687366-.13010246 1.0464763-.2545483 1.934567-.3733375.16404223-.13010245.16404223-.93900035 0-1.00122327-1.71395848 0-3.11114576.09050606-6.52774947.09050606-.03393977.49778332-.2941447 1.15395225-.57697612 1.84971757-1.08041608 2.5058865-4.35560407 9.28818426-5.07965254 10.70234143-.06787954.02828314-.13010246.05090965-.19232537 0-.73536173-1.41415717-3.55801943-7.43846669-5.01742962-10.60617874-.28848807-.6901087-.51475321-1.31799448-.57697613-1.94588026-3.10548913 0-5.04005613-.09050606-7.0085629-.09050606-.10181932.06222292-.197982.84283767-.10181932 1.00122328m-14.16419816 3.19033856c.60525926 1.56122951 1.71395848 4.81379099 2.132549 6.12612884 0 .06222291-.06787954.18666874-.10181931.18666874-.3167712.03393978-1.17092214.02828315-2.12123575.02828315-.98425339 0-1.71395848.00565663-2.07032609-.02828315-.05656629-.03393977-.08484943-.09616268-.05656629-.21495189.50343995-1.49900659 1.48769334-4.4008571 2.0929526-6.09218906.03393978-.0395964.0961627-.00565663.12444584-.00565663m-9.5540458 14.00015593c-.0961627.18666875-.0961627.87677744 0 1.02950642.95597024 0 2.16083214-.0961627 3.52407965-.0961627 1.84406094 0 3.20730845.0961627 4.03317623.0961627.09050606-.12444583.19232538-.91071722.09050606-1.02950642-.593946-.06787954-1.08041607-.15272897-1.54991625-.28848806-.85415093-.18666875-.92203047-.59960264-.92203047-1.06910282 0-.60525926.791928-2.70952513 1.36890413-4.28772452.06222292-.13010246.22060852-.28848806.34505435-.28848806.41859052-.02828315 1.05213293-.02828315 2.53982627-.02828315 1.0464763 0 2.12689237-.03393977 2.63598895 0 .09050606 0 .2545483.15272898.28283144.22060852.48081343 1.19920528 1.33496436 3.53539291 1.6177958 4.66671864.06787954.18666875.0395964.50909658-.31111458.69576533-.35636761.15272897-.9842534.28283143-1.62345243.37899412-.12444583.15272897-.06222291.87677744 0 1.02950642 1.01819316-.02828315 2.35315752-.0961627 4.6384355-.0961627 2.0929526 0 3.55801943.0961627 4.38388721.0961627.09050606-.12444583.18101212-.91071722.09050606-1.02950642-2.3475009-.3167712-2.53982627-.53737972-3.52407965-2.99801319-1.10869922-2.7434649-3.93701355-10.78153422-4.88732717-13.41186655-.19232537-.53737972-.41293389-1.25011493-.53737972-1.75355488-.32242783.03393977-.7693015.06222291-1.43678368.06222291-.53737972 0-1.0464763-.02828314-1.42547042-.06222291-.06222291.50343995-.35071098 1.4424403-.60525927 2.06466946-.76364486 2.19477192-3.4562001 9.44656986-5.17015859 13.45146295-.89374733 2.08163934-1.30668122 2.330531-3.55801943 2.64730221m-25.22856381-17.1904945c.66748218.0565663 1.2048619.15272898 1.68567534.28283144.6335424.18666875.83152441.44121703.8880907 1.40850054.06222291.93900035.09616268 3.51842302.09616268 6.02430952 0 3.54104954.00565663 6.14309872-.09616268 7.52331611-.02828315 1.06910282-.3167712 1.44244031-.95031362 1.60648254-.48081343.12444583-1.30668122.24889166-2.35315752.34505435-.09616269.15272897-.09616269.84283767 0 1.02950642 1.58951265 0 3.65418211-.0961627 5.46430328-.0961627 3.36003743 0 6.16006861.12444584 8.82434071.12444584 1.42547042 0 1.6177958-.18101212 1.78183803-.49778332.50909658-1.00122328 1.23880167-3.69943515 1.39718728-4.4800499-.13010246-.19232537-.8880907-.44121704-1.0860727-.40727726-.47515681 1.05778956-1.07475945 2.19477192-1.64607894 2.85094084-.66748219.78627138-1.08041608.94465699-2.5058865.9672835-1.62910905 0-3.56367606-.08484943-4.19721847-.21495189-.37899412-.09050606-.70142195-.5317231-.70142195-1.09738596 0-1.51031985-.02828314-4.02186297 0-5.77541786 0-.06222291.10181932-.25454829.19232538-.25454829 1.01819315 0 3.52973628 0 4.2255016.06787955.66748219.06222291.9276871.44121703 1.0860727.87677744.12444584.40727726.09050606.40727726.31111458 1.28971133.16404223.1187892 1.01819316.09616269 1.17657876-.02828314-.03393977-.82021116-.06222291-2.07598272-.06222291-3.04326622 0-1.02950642.12444583-2.28527798.18666874-3.01498307-.1583856-.1187892-1.01253653-.1753555-1.2048619-.06222292-.09616269.4129339-.15272897.82021116-.28283143 1.1652655-.19232538.6901087-.44687367 1.00122328-1.11435585 1.02950642-1.0464763.09616269-3.33175428.06787954-4.3216643.06787954-.09050605 0-.19232537-.12444583-.19232537-.25454829-.02828314-1.88365734-.02828314-4.32732092 0-6.27320118 0-.16969886.1583856-.53737972.3563676-.56566286.44687367-.06787955 3.8069111-.06787955 4.5762126 0 .6335424.06222291 1.08041607.28283143 1.3632475.94465698.22060852.49778332.37899412 1.09172933.50343995 2.19477192.1583856.09050606.98425339.06222292 1.14263899-.09616269.09616268-1.56688613.28283143-3.6315556.50343995-4.57621258 0-.06222292-.06222292-.12444583-.12444583-.12444583-.95031362.12444583-2.69255524.15272897-3.90307378.15272897h-6.35239398c-1.61213917 0-3.48448325-.09050606-4.5988391-.09050606-.13010246.09050606-.19232537.84283767-.06787954 1.00122328m-25.7772568 0c.72404847.09050606 1.23314505.15272897 1.74224163.3167712.6335424.15272898.791928.49778332.85980755 1.47072345.02828315.8088979.05656629 3.76165806.05656629 6.80492428 0 2.75477816-.02828314 5.58309249-.05656629 6.2392614-.06787954 1.39153066-.26020492 1.88365735-1.11435584 2.1099225-.44121704.09616269-.79758464.15272897-1.52163311.24889166-.13010246.15272897-.09616269.93334373 0 1.02950642.66182555 0 2.2513382-.0961627 4.50267641-.0961627 2.64164558 0 4.12933892.0961627 4.73459819.0961627.12444583-.0961627.24889166-.84283767.12444583-1.02950642-.7297051-.09616269-1.39718728-.22060852-1.81012117-.34505435-.76364487-.21495189-.8880907-.72404847-.92203047-1.70264522-.02828315-1.15395225-.02828315-3.76165806-.02828315-5.6453154 0-.02828315.06222292-.1583856.09616269-.18666875.18666874-.06222292 1.23880168-.06222292 4.50267641-.09050606 1.4990066 0 3.46185674 0 4.067116.02828314.13010247 0 .19798201.12444583.19798201.22060852 0 2.04204295 0 4.64974876-.03393977 5.93380346-.03393977.97294013-.28848806 1.34627762-.85415093 1.4990066-.44687366.13575909-.89940396.22060852-1.62345242.28848806-.12444583.18666875-.12444583.90506059.03393977 1.02950642.7297051 0 2.60204918-.0961627 4.53661618-.0961627 2.06466946 0 3.7107484.0961627 4.57055596.0961627.1583856-.0961627.22626514-.87677745.13010246-1.02950642-1.05213293-.12444583-1.55557288-.22060852-1.99678992-.37899412-.57697612-.18101212-.70707858-.66182555-.7693015-1.50466322-.06222291-1.2840547-.05656628-4.07842927-.05656628-6.36936387 0-3.82388098-.00565663-5.33420083.05656628-7.08775571.03393977-1.0068799.22626515-1.3236511.82586779-1.53294637.38465075-.16404223.92203047-.22626514 1.55557288-.3167712.1583856-.1583856.13575909-.87677745 0-1.00122328-.75798824 0-2.03638632.09050606-4.31600767.09050606-2.19477192 0-3.3939772-.09050606-4.53661618-.09050606-.1583856.12444583-.1583856.87112082 0 1.00122328.76364487.09050606 1.30102459.15272897 1.74224162.34505434.48081344.12444584.63354241.59960264.66748219 1.03516305.06787954 1.538603.06787954 4.29903778.06787954 5.86592392 0 .09616269-.13575909.18666874-.197982.22626514-.37899412.02828315-1.48769334.02828315-3.97095332.02828315-3.80691109 0-4.25378475 0-4.53661619-.06787955-.06222291-.03393977-.13010245-.12444583-.1583856-.24889166 0-2.16648877 0-3.98226657.02828315-5.36248397.03393977-.97859675.19232537-1.31799447.82586778-1.53860299.3167712-.09616269.95597024-.22626515 1.49334997-.28283143.12444583-.09050606.12444583-.8484943.03393977-1.00122328-.85415093 0-2.09860924.09050606-4.44611013.09050606-2.28527798 0-3.71640503-.09050606-4.4800499-.09050606-.09050605.09050606-.15272897.87112082-.02262651 1.00122328m-8.00978618 17.21877763c-1.11435585-.15272897-1.6177958-.18101211-2.12689238-.37333749-.66748218-.21495189-.82586778-.75798824-.89374732-1.53294636-.09050606-1.82143443-.0565663-9.97829296-.0565663-14.46965611 0-.1187892.0565663-.22060852.12444584-.24889166.56566286-.0395964 2.63598895-.06787955 3.7107484 0 .6109159.06222291.96162687.28283143 1.21051853.97294013.28848806.72404846.48081344 1.66304882.60525927 2.78871792.09616269.13010246 1.01819316.0961627 1.14263899-.02828314.12444583-1.94022363.40727726-4.16893532.75798824-5.42470688-.02828315-.06222292-.15272898-.22060852-.24889166-.22060852-.85980756.28848806-1.7761814.40727726-3.42791697.40727726h-11.40376338c-.8880907 0-1.934567-.09050606-2.79437455-.4355604-.0961627-.03393978-.3167712.13010246-.3167712.18666874-.0961627 1.3802174-.37899413 3.98226658-.63354242 5.27197791.06222292.22060852.98425339.40727726 1.10869922.28283143.37899412-1.10304258.79758464-2.07598271 1.17657876-2.76609141.4129339-.75233161.85980756-1.0068799 1.49334997-1.03516304.85415092-.0395964 2.82831433-.0395964 3.3939772 0 .06787953 0 .16404222.18666874.16404222.24889166 0 4.9948031.03393977 11.10961868-.09616269 14.02843907-.06787954 1.40850054-.28848806 1.84406094-1.17657876 2.03072969-.44687366.13575909-1.27274144.22060852-2.12689237.3167712-.13010246.12444583-.1583856.8484943 0 1.00122328.98425338 0 2.63598895-.0961627 5.3285442-.0961627 2.09860923 0 3.84650748.0961627 4.9948031.0961627.1583856-.12444583.22060852-.87677745.09050606-1.00122328m-40.33741897-17.21877763c.69576533.09050606 1.3010246.18666874 1.7761814.3167712.66748218.18666875.85980756.40162064.92203047 1.4594102.06222292 1.1256691.06222292 3.0602361.06222292 6.65785193 0 2.53982626-.03393977 6.15441198-.09616269 7.00290628-.02828314.9672835-.1583856 1.37456076-1.01253653 1.56688613-.44687366.09050606-.98425338.15272898-1.55557288.2149519-.13010246.1583856-.13010246.8484943.02828314 1.00122327 1.62345243 0 2.92447702-.0961627 4.6950018-.0961627 1.9741634 0 3.39963382.0961627 4.89864041.0961627.1583856-.15272898.1583856-.8088979.1187892-1.02950642-.8484943-.09616269-1.51597648-.15272897-2.12123575-.28848806-.7297051-.18666875-.98425338-.59394601-.98425338-1.59516928-.06787955-1.41415717-.03393977-3.42226034-.03393977-5.39642374 0-.06222292.06222291-.19232538.12444583-.19232538.8315244 0 3.9087304 0 4.76853796.06222292.50909658.03393977.85980755.22060852 1.08041607.91071721.13010246.4129339.28283143.85415093.38465075 1.47638008.24323503.06787955.97294013.06787955 1.13698236-.09050606-.03393977-.94465698-.06222292-2.0137598-.06222292-3.16771205 0-1.25577156.09050606-2.43800695.1583856-3.19033856-.19232537-.14141572-.98991-.16969886-1.17092213-.07353617-.09616268.50909658-.25454829 1.08041607-.38465075 1.43112705-.22060851.57697612-.48081343.8880907-1.30102459.92203047-.98991001.06787954-3.4957965.06787954-4.57621258.06787954-.06222292 0-.1583856-.10181931-.1583856-.19232537-.03393978-2.3870973 0-5.06268265.03393977-6.72007485 0-.18666874.15272897-.49778332.34505435-.5317231.60525926-.09616268 3.88044726-.09616268 4.89864041 0 .56566287.03393978 1.01253653.22060853 1.3010246.8484943.28283143.56000625.44121703 1.340621.66748218 2.45497685.1583856.12444583.88243407.06787954 1.06910281-.05090966.10181932-1.91194049.28848807-3.75600143.54303636-4.7572247 0-.09050606-.0961627-.2149519-.18666875-.2149519-.5147532.0961627-1.62345243.18666875-3.5523628.18666875h-7.21785817c-1.90062723 0-3.6145857-.09050606-4.56489932-.09050606-.0961627.09050606-.1583856.84283767-.03393978 1.00122328m-13.55893889 17.28100055c-1.43112705 0-2.51719975-.40727726-3.49579651-1.13132573-2.3870973-1.88365735-3.33741091-5.51521295-3.33741091-8.53019602 0-3.03760959.76364487-5.76976123 2.7038685-7.0651292.69576532-.46384354 1.61213917-.7127352 2.56810941-.7127352 1.36890414 0 2.41538044.40162063 3.39963382 1.18789201 2.16083215 1.73092837 3.08286262 5.08530917 3.08286262 8.31524413 0 2.76043479-.5713195 5.45864666-2.16083214 6.93502674-.69576533.62222915-1.74789826 1.00122327-2.76043479 1.00122327m-1.05213293 1.40850053c3.26953136 0 6.4146169-1.31233784 8.44534659-4.01620634 1.33496436-1.71961512 1.934567-3.9483268 1.934567-6.39199039 0-5.24369476-3.42226034-9.7520278-9.9669797-9.7520278-3.33175428 0-6.2562313 1.31233784-8.0324127 3.29215787-1.87234408 1.8157778-2.6077058 4.25944138-2.6077058 6.7087616 0 2.54548289.73536172 5.26632127 2.69821186 7.31402085 1.68567534 1.75355488 4.12933893 2.84528421 7.52897275 2.84528421m-37.41859858-18.68950108c.60525927.09050606 1.30668122.15272897 1.68567534.28283143.79192802.18666875.92203047.62788578.95031362 1.47072345.09616268 1.06910282.06787954 2.82831433.06787954 6.34108073 0 3.47882662-.03393977 6.77664113-.13010246 7.52897274-.06222291.75233161-.25454829 1.09172933-.8880907 1.27839808-.60525926.16404223-.92203047.19232537-1.934567.28848806-.13575909.1187892-.13575909.87677744 0 1.02950642.97859676 0 2.60204918-.0961627 4.72328493-.0961627 2.22305506 0 6.32411084.15838561 8.69989488.15838561 1.2444583 0 1.58951265-.1583856 1.68567534-.40727726.69576532-1.1256691 1.71395848-4.6384355 1.87234408-5.55480934-.09050605-.2149519-.91637384-.46384355-1.11435584-.40162064-.5317231 1.25577156-1.4198138 2.85094084-2.02507306 3.66549537-.63354241.82021116-1.21051853 1.07475945-1.84406094 1.07475945-1.43112705.02262651-3.68246526 0-4.44611013-.19232538-.24889166-.09050606-.5713195-.37899412-.60525927-.93900036-.05656628-1.00122327-.13010245-4.45176675-.09050605-7.84008732 0-3.10548913.03393977-5.3681406.05656628-6.09218906.03393977-.75233161.13010246-1.09172933.85980756-1.31233785.35071098-.09616269.73536172-.16404223 1.5612295-.28283143.11878921-.1583856.11878921-.87677745 0-1.00122328-1.01819315 0-2.22305505.09050606-4.45176675.09050606-2.43800695 0-3.36003742-.09050606-4.53661618-.09050606-.1583856.09050606-.22060852.81455453-.09616269 1.00122328m-13.68338472 3.19033856c.59960264 1.56122951 1.71395848 4.81379099 2.12689237 6.12612884 0 .06222291-.06787954.18666874-.09050606.18666874-.32242783.03393978-1.18223538.02828315-2.13820563.02828315-.98425338 0-1.70830185.00565663-2.0533562-.02828315-.06787955-.03393977-.10181932-.09616268-.06787955-.21495189.50909658-1.49900659 1.48769334-4.4008571 2.09860924-6.09218906.02262651-.0395964.09050606-.00565663.12444583-.00565663m-9.5540458 14.00015593c-.10181932.18666875-.10181932.87677744 0 1.02950642.9503136 0 2.15517551-.0961627 3.51842302-.0961627 1.84406094 0 3.21296508.0961627 4.03317623.0961627.09050606-.12444583.19232538-.91071722.09050606-1.02950642-.59960264-.06787954-1.07475944-.15272897-1.54991625-.28848806-.85415093-.18666875-.92203047-.59960264-.92203047-1.06910282 0-.60525926.791928-2.70952513 1.3632475-4.28772452.06222292-.13010246.22060852-.28848806.35071098-.28848806.4129339-.02828315 1.05213293-.02828315 2.5454829-.02828315 1.0464763 0 2.12123574-.03393977 2.63033232 0 .0961627 0 .2545483.15272898.28848806.22060852.47515681 1.19920528 1.32930774 3.53539291 1.6177958 4.66671864.06787955.18666875.03393977.50909658-.32242783.69576533-.34505435.15272897-.98425339.28283143-1.61213917.37899412-.13010246.15272897-.06787954.87677744 0 1.02950642 1.01253653-.02828315 2.3475009-.0961627 4.63277887-.0961627 2.09860923 0 3.5523628.0961627 4.37823058.0961627.10181932-.12444583.197982-.91071722.10181932-1.02950642-2.35881415-.3167712-2.5454829-.53737972-3.52973628-2.99801319-1.10869922-2.7434649-3.93701355-10.78153422-4.8929838-13.41186655-.18666874-.53737972-.40727726-1.25011493-.53172309-1.75355488-.3167712.03393977-.76364487.06222291-1.43112705.06222291-.54303635 0-1.0464763-.02828314-1.42547042-.06222291-.06787954.50343995-.35071098 1.4424403-.60525927 2.06466946-.76364487 2.19477192-3.46185674 9.44656986-5.18147185 13.45146295-.8880907 2.08163934-1.30102459 2.330531-3.54670617 2.64730221m-23.59379813-17.16786798c.95031361.09616269 1.5781994.26020492 2.18911529.5317231.7297051.32242783 1.0464763 1.19920527 1.0464763 1.86103082-.03393977 5.27197791-.12444583 10.9738596-.3167712 12.64256506-.0961627 1.06344618-.4129339 1.57254276-1.12001248 1.78749465-.5317231.19232538-1.07475944.24889166-1.77052477.34505435-.09616269.1187892-.13010246.90506059 0 1.02950642.88243407 0 2.28527798-.0961627 4.0275196-.0961627 1.55557289 0 2.98669994.0961627 4.0048931.0961627.1583856-.15272898.1583856-.91071722.06222291-1.02950642-.79192801-.09616269-1.36890413-.18666875-1.87800071-.3167712-.8880907-.19232538-1.32930774-.6505123-1.39153065-1.96850678-.10181932-1.4424403-.13010246-8.00978618-.06787955-11.39810674 0-.02828315.09050606-.09050606.1583856 0 2.0307297 2.57376603 9.6898049 12.33145047 11.49992607 14.83733697.54303635-.06222292 2.38144066-.0961627 2.85659747-.03393978-.03393977-1.09738596-.06222291-2.90750713-.06222291-4.3216643.02828314-4.64974875.06222291-9.19202156.24889166-11.85629366.13010246-1.1652655.41293389-1.5781994 1.30668122-1.84971757.40727726-.13010246.78627138-.19232537 1.29536796-.28283143.10181932-.13010246.10181932-.91071722 0-1.00122328-.5713195 0-2.05901283.09050606-3.60892908.09050606-2.00244655 0-3.46751337-.09050606-4.25944138-.09050606-.0961627.06222292-.13010246.87112082-.03393978 1.00122328.82586779.09050606 1.39153065.18666874 2.00244655.34505434.98425339.24889167 1.26708482.71839184 1.3632475 1.75355489.197982 2.10426586.12444584 6.73704473.12444584 10.7589077-.02262652 0-.06222292.03393978-.08484943.03393978-1.94022363-2.22305506-7.1839184-8.71686476-9.88213027-12.1391251-.73536173-.88243407-1.01819316-1.28971134-1.17657876-1.72527174-.38465075.03393977-1.21051853.06222291-2.05901283.06222291-1.87234409 0-3.42791697-.1187892-4.44611013-.09050606-.09616269.09050606-.13010246.91071722-.02828314 1.0238498m-14.03975233.2206085c2.76609141 0 4.25378475 1.7931513 4.25378475 4.5196463 0 2.01375981-.76364487 2.92447702-1.65173557 3.36003743-.5713195.2771748-2.03638632.37899412-3.65418211.31111458-.09616269 0-.19232538-.09050606-.19232538-.2149519 0-3.58064593 0-6.52774946.06787955-7.342304 0-.15272897.12444583-.40727725.22060851-.46950017.2545483-.12444583.7297051-.16404223.95597025-.16404223m-7.7156415-.24323503c.60525927.05656628 1.20486191.18666874 1.6177958.28283143.66748219.15272897.92203048.56000624.95597025 1.40850054.05656628 1.25577156.05656628 3.58064594.05656628 6.6521953 0 1.88365734-.02828314 6.11481558-.09050605 7.0255328-.06787955 1.03516304-.28848807 1.4424403-.98991002 1.6008259-.37899412.09616269-.8880907.15272898-1.48769334.24889166-.18666874.09050606-.12444583.87677745 0 1.00122328.66182556 0 2.06466946-.0961627 4.50833304-.0961627 2.38144067 0 3.90307378.0961627 4.57055596.0961627.1583856-.06222292.22626515-.93900036.06222291-1.02950642-.82586778-.09616269-1.17092213-.15272897-1.71395848-.28848806-.69576532-.18666875-.8880907-.52606647-.95031361-1.4990066-.03393978-1.22748841-.06787955-3.48448325-.06787955-5.3681406 0-.06787954.09616269-.18666874.13010246-.18666874h1.27274145c.37899412.02828314.66182555.18666875.8880907.56000624 1.08041607 1.66870545 2.69821187 4.49136315 3.96529669 5.96774323.32242783.40162064.89374733.9672835 1.55557288 1.2840547 1.2444583.58828939 4.25378475.71839185 5.97339986.58828939.13010246-.09050606.28848807-.9672835.22626515-1.02950642-1.71961511-.21495189-2.00810317-.34505434-3.1790253-1.47072345-1.55557289-1.538603-4.31600767-5.49824305-5.07965254-6.83886405-.03393977-.07353617-.03393977-.21495189.02828314-.24323503 2.03072969-.85980755 3.68246526-2.32487438 3.68246526-4.84207413 0-2.78871793-2.05901283-4.7968211-5.90552032-4.7968211-1.68001871 0-3.39963382.06222291-5.78107449.06222291-1.13698236 0-3.42226034-.09050606-4.1859052-.09050606-.15838561.06222292-.22060853.81455453-.06222292 1.00122328m-24.58370815 0c.57697612.05656628 1.27274145.18666874 1.65173557.3167712.7297051.20929526.95031361.74667498.98991001 1.56688614.02828314 3.00932645-.0395964 8.8413106.25454829 11.03608251.37899412 3.16771205 2.37578404 5.76976123 7.86271384 5.76976123 4.38954383 0 7.69301497-1.84406094 8.1738284-7.52331611.22060853-2.132549.28848807-5.803701.37899413-8.6263587.06222291-1.54991626.31111457-2.03638632 1.14263899-2.25699484.37899412-.13010246.85415092-.19232537 1.32930773-.28283143.1583856-.13010246.13010246-.87677745 0-1.00122328-.66748218 0-1.6177958.09050606-3.67680863.09050606-1.58951265 0-2.92447701-.09050606-3.9087304-.09050606-.13010246.19232538-.13010246.84283767-.02828314 1.00122328.69576532.09050606 1.32930773.18666874 1.77052477.3167712 1.0464763.18666875 1.34062099.71273521 1.4028439 2.04204295.13010246 2.18911529.09050606 6.67482181-.06222291 9.0223227-.3167712 4.49136316-2.73215164 5.2493514-5.02308625 5.2493514-3.07720599 0-4.73459819-1.44809693-5.17581522-3.48448325-.2545483-.97859676-.35071098-2.47760335-.37899412-3.70509177 0-1.66304883-.06787955-4.98914648 0-7.48937635.02828314-1.01253653.28848806-1.51597648 1.0464763-1.66870545.37899412-.09616269.8880907-.19232537 1.4594102-.28283143.13010245-.1583856.13010245-.87677745 0-1.00122328-1.10869922 0-2.69821188.09050606-4.5762126.09050606-1.77052476 0-3.6145857-.09050606-4.5988391-.09050606-.12444582.12444583-.12444582.84283767-.03393976 1.00122328m-13.3043906 17.28100055c-1.42547043 0-2.51154313-.40727726-3.49579652-1.13132573-2.38144066-1.88365735-3.33175428-5.51521295-3.33175428-8.53019602 0-3.03760959.76364487-5.76976123 2.69821187-7.0651292.70142196-.46384354 1.6177958-.7127352 2.57376604-.7127352 1.36890414 0 2.41538044.40162063 3.39963382 1.18789201 2.16083215 1.73092837 3.077206 5.08530917 3.077206 8.31524413 0 2.76043479-.56566287 5.45864666-2.15517552 6.93502674-.70142196.62222915-1.75355489 1.00122327-2.76609142 1.00122327m-1.0464763 1.40850053c3.26953137 0 6.40896027-1.31233784 8.45100322-4.01620634 1.32930773-1.71961512 1.92891037-3.9483268 1.92891037-6.39199039 0-5.24369476-3.42226034-9.7520278-9.9669797-9.7520278-3.33175428 0-6.2562313 1.31233784-8.0324127 3.29215787-1.87234408 1.8157778-2.6077058 4.25944138-2.6077058 6.7087616 0 2.54548289.73536172 5.26632127 2.69821187 7.31402085 1.68567534 1.75355488 4.12368229 2.84528421 7.52897274 2.84528421m-23.65602105-18.68950108c.82586778.09050606 1.43112705.18666874 1.94022363.34505434.75798824.20929527.8880907.84283767.94465699 1.60648254.10181931 2.1891153.16404223 12.19003476.06222291 16.58523523-.02262651 2.16083215-.18666874 3.01498308-.6901087 3.64286886-.41859052.4355604-.82586778.5317231-1.30102459.5317231-.82586778 0-2.48325998-.7862714-3.68246525-1.6347657-.28848806.47515682-.7693015 1.9119405-.89374733 2.53982628 0 .02828314 0 .50343995.03393977.53737972.35071098.593946 1.33496436.89940396 2.38144067.89940396 2.21739843 0 4.97783322-1.83840432 6.72573147-4.79116448.8880907-1.56688614 1.23880168-3.38832056 1.33496436-5.5265262.1583856-3.28650125.12444583-9.97263632.1583856-12.98196277.03393978-.91071721.22060852-1.22748842.72404848-1.40850054.32242783-.13010245.9276871-.25454828 1.55557288-.34505434.13575908-.1583856.10181931-.87677745 0-1.00122328-.91071722 0-2.0929526.09050606-4.37257396.09050606-2.79437455 0-3.869134-.09050606-4.89298379-.09050606-.09050606.12444583-.12444583.84283767-.02828314 1.00122328"/>
  <path fill="none" stroke="#ffce34" stroke-width="2.684" d="M0 0v37.195" transform="matrix(5.692 0 0 5.622 751.49884319 24.9999439)"/>
  <path fill="none" stroke="#ffce34" stroke-width="2.684" d="M0 0v37.195" transform="matrix(5.692 0 0 5.622 471.65504127 24.9999439)"/>
  <path fill="none" stroke="#ffce34" stroke-width="2.684" d="M0 0v37.195" transform="matrix(5.692 0 0 5.622 188.6011207 24.9999439)"/>
</svg>