<?xml version="1.0" encoding="UTF-8" standalone="no"?>
<!-- Created with Inkscape (http://www.inkscape.org/) -->

<svg
   width="649mm"
   height="863mm"
   viewBox="0 0 649 863"
   version="1.1"
   id="svg1"
   xml:space="preserve"
   sodipodi:docname="jacs_mockup.svg"
   inkscape:version="1.4.3 (fcd0343856, 2026-01-01)"
   inkscape:export-filename="jacs_mockup.png"
   inkscape:export-xdpi="300"
   inkscape:export-ydpi="300"
   xmlns:inkscape="http://www.inkscape.org/namespaces/inkscape"
   xmlns:sodipodi="http://sodipodi.sourceforge.net/DTD/sodipodi-0.dtd"
   xmlns:xlink="http://www.w3.org/1999/xlink"
   xmlns="http://www.w3.org/2000/svg"
   xmlns:svg="http://www.w3.org/2000/svg"
   xmlns:sketch="http://www.bohemiancoding.com/sketch/ns"><sodipodi:namedview
     id="namedview1"
     pagecolor="#ffffff"
     bordercolor="#000000"
     borderopacity="0.25"
     inkscape:showpageshadow="2"
     inkscape:pageopacity="0.0"
     inkscape:pagecheckerboard="0"
     inkscape:deskcolor="#d1d1d1"
     inkscape:document-units="mm"
     showguides="false"
     inkscape:zoom="0.35244482"
     inkscape:cx="941.99144"
     inkscape:cy="327.71088"
     inkscape:window-width="3440"
     inkscape:window-height="1305"
     inkscape:window-x="0"
     inkscape:window-y="0"
     inkscape:window-maximized="1"
     inkscape:current-layer="layer1" /><defs
     id="defs1"><path
       id="path-1"
       d="M 0,3.5246129 H 759.23165 V 129 H 0 Z" /><path
       id="path-3"
       d="M 0,3.5246129 H 759.23165 V 129 H 0 Z" /></defs><g
     inkscape:label="Layer 1"
     inkscape:groupmode="layer"
     id="layer1"
     transform="translate(319.48437,360.62711)"><path
       id="rect1-0"
       style="fill:#ffffff;fill-opacity:1;stroke:#28327f;stroke-width:2.14248;stroke-linecap:square;stroke-dasharray:none;stroke-opacity:1"
       d="M -318.41312 -359.55586 L -318.41312 501.30167 L 328.44456 501.30167 L 328.44456 -359.55586 L -318.41312 -359.55586 z M -288.38446 -212.25115 L 298.43864 -212.25115 L 298.43864 430.94369 L -288.38446 430.94369 L -288.38446 -212.25115 z " /><text
       xml:space="preserve"
       style="font-size:9.87778px;font-family:Arial;-inkscape-font-specification:Arial;text-align:end;writing-mode:lr-tb;direction:ltr;text-anchor:end;fill:#000000;stroke-width:0.352999;stroke-linecap:square"
       x="290.13019"
       y="464.37744"
       id="text1-4"><tspan
         sodipodi:role="line"
         style="font-style:normal;font-variant:normal;font-weight:bold;font-stretch:normal;font-size:9.87778px;font-family:'Trebuchet MS';-inkscape-font-specification:'Trebuchet MS Bold';fill:#000000;stroke-width:0.353"
         x="290.13019"
         y="464.37744"
         id="tspan4-4">www.acs.org</tspan></text><text
       xml:space="preserve"
       style="font-size:9.87778px;font-family:Arial;-inkscape-font-specification:Arial;text-align:end;writing-mode:lr-tb;direction:ltr;text-anchor:end;fill:#000000;stroke-width:0.352999;stroke-linecap:square"
       x="89.812958"
       y="471.49231"
       id="text1-4-9"><tspan
         sodipodi:role="line"
         style="font-style:italic;font-variant:normal;font-weight:bold;font-stretch:normal;font-size:9.87778px;font-family:'Trebuchet MS';-inkscape-font-specification:'Trebuchet MS Bold Italic';fill:#000000;stroke-width:0.353"
         x="89.812958"
         y="471.49231"
         id="tspan4-4-3">MOCKUP FOR DEMONSTRATION ONLY</tspan></text><g
       id="g1"
       transform="matrix(0.41576396,0,0,0.41576396,-154.63313,-345.38216)"><path
         fill="#28327f"
         d="m 819.55827,163.55225 c -0.87678,-0.87678 -4.69501,0 -5.27764,1.15961 0.87112,8.98838 4.40086,38.29537 7.34231,42.93381 4.695,3.19034 23.49763,8.41141 41.41217,8.41141 42.59442,0 67.26297,-22.04954 67.26297,-53.95293 0,-19.15334 -9.98394,-32.79147 -30.83428,-46.42961 C 887.42084,107.55163 880.38399,103.78431 868.62386,94.790271 856.86939,86.08472 851.2863,76.802192 851.2863,64.617814 c 0,-15.086229 10.2894,-26.405143 27.02171,-26.405143 8.81303,0 15.57836,1.453754 22.92632,6.386334 8.21342,5.509556 11.16053,14.509253 13.21388,32.203187 0.87678,0.582633 4.40652,0.288488 5.28329,-0.582633 1.18224,-18.27091 2.93014,-29.007191 4.99481,-40.326105 -10.86073,-0.576977 -23.49198,-4.349948 -43.771,-4.349948 -32.6048,0 -60.20915,17.988079 -60.20915,50.768242 0,26.116652 13.51368,39.749132 44.63645,60.062082 22.92066,15.08623 30.55146,24.94573 30.55146,41.19723 0,15.36906 -9.68415,25.52271 -25.25119,25.52271 -9.99527,0 -19.39658,-2.02508 -27.32718,-7.24614 -10.87204,-7.84009 -17.6204,-16.82848 -23.79743,-38.29538 M 675.04837,81.734772 c 0,0.871121 4.98915,0.871121 5.87724,-0.294144 0.28283,-15.080572 3.81822,-38.001232 5.58309,-45.547174 -15.27289,-0.865465 -40.25257,-4.349948 -56.69639,-4.349948 -24.67421,0 -44.93625,4.349948 -60.51461,12.478523 -31.42257,16.240181 -45.82435,46.12415 -45.82435,77.750361 0,62.36999 36.72849,94.28469 101.64396,94.28469 21.13882,0 34.65817,-3.47883 44.35363,-6.38068 7.63645,-6.09219 18.20869,-29.01285 20.85599,-39.74347 -0.2998,-1.16527 -3.81823,-2.61337 -4.695,-2.61337 -4.99481,10.15365 -12.64257,21.17842 -19.69639,27.84759 -9.10717,8.7112 -23.49763,10.74193 -33.19309,10.74193 -45.51889,0 -65.49245,-39.46064 -65.49245,-87.33269 0,-55.406673 23.49764,-80.069574 54.92587,-80.069574 11.16618,0 24.38006,0.871121 36.71152,8.122919 12.04296,7.251798 14.41309,20.307297 16.16098,35.105037 M 311.10089,75.05995 c 5.28894,15.374717 13.80783,42.65098 18.50848,57.73721 0,0.57698 -0.58829,1.45375 -0.88243,1.45375 -3.52974,0.28283 -12.33711,0 -21.73842,0 -7.63645,0 -12.9254,0 -15.86119,-0.29414 0,0 -0.58829,-0.29415 -0.29415,-1.45376 4.40652,-12.47286 12.63691,-39.45498 19.09113,-57.44306 0,-0.288488 0.88243,0 1.17658,0 m -81.95324,131.42611 c -0.58829,0.58263 -0.58829,4.64409 0,5.22107 10.27809,0 17.9202,-0.87112 28.49244,-0.87112 13.21954,0 23.20915,0.87112 33.48724,0.87112 0.58829,-0.28283 1.47072,-4.63844 0.87678,-5.22107 -5.57744,-0.57698 -9.39566,-1.74224 -13.50803,-2.60771 -7.9306,-1.74224 -7.9306,-6.38633 -8.21908,-9.57667 -0.2998,-5.8037 9.98395,-32.19753 14.97875,-46.1298 0.29414,-1.15961 1.75921,-2.61337 2.64164,-2.61337 3.81823,-0.28848 14.09632,0 25.25685,0 7.34796,0 15.5727,0 18.50849,0.29415 1.17658,0 2.05901,1.4481 2.35316,2.03073 4.70066,12.76701 12.92539,36.25899 17.03776,49.03165 0.28849,0.87113 0.58264,4.63844 -2.94144,6.09219 -2.64165,1.15961 -8.51889,2.31922 -13.80218,3.47883 -0.58829,0.87112 -0.29414,4.34995 0,5.22107 10.86639,-0.28283 14.69027,-0.87112 42.00047,-0.87112 18.50849,0 32.02218,0.87112 39.36448,0.87112 0.58263,-0.57698 0.88243,-4.92692 0.58263,-5.22107 -18.79132,-2.90185 -21.15013,-4.93258 -29.66336,-27.84758 -8.81303,-24.95139 -34.65816,-101.836288 -43.77099,-128.818407 -1.17092,-4.349947 -2.93013,-10.153648 -3.52408,-13.638131 -3.22994,0.294144 -6.45987,0.582632 -12.63125,0.582632 -4.40086,0 -9.68981,-0.288488 -13.21389,-0.582632 -0.58829,3.195995 -2.05901,8.705551 -3.22993,12.772667 -7.05382,21.461249 -36.13455,101.242341 -50.81915,136.652831 -7.05382,16.81716 -11.16619,18.27091 -30.25731,20.87862 M 54.668938,40.826034 c 5.288948,0.582633 10.572239,1.453753 14.684608,2.613362 7.347961,2.607706 7.04816,7.828774 7.642106,14.509253 0.876777,22.620858 1.759211,119.524561 0.582632,161.298761 -0.294144,19.73598 -1.759211,27.56476 -4.406513,31.04358 -2.641646,2.90185 -4.989147,3.196 -7.342304,3.196 -5.871581,0 -20.267701,-5.8037 -33.193097,-15.37472 -3.229935,5.79805 -6.754015,16.53433 -7.636449,20.88993 v 4.93258 c 2.93579,4.0558 9.989606,6.37502 17.33191,6.37502 20.85599,0 42.594414,-15.37471 59.626519,-43.22795 8.22474,-14.20946 12.9254,-31.9147 13.80783,-49.90278 1.75922,-32.49168 1.17658,-82.388799 1.75922,-116.622715 0,-12.472867 2.35315,-15.086229 6.46552,-17.116959 3.22994,-1.453753 7.04816,-2.030729 10.87204,-2.613362 0.28849,-0.865464 0.28849,-4.06146 0,-4.93258 -9.40131,0 -22.03257,0.87112 -36.428686,0.87112 -23.497635,0 -34.075531,-0.87112 -43.765336,-0.87112 -0.882434,0.582632 -0.588289,4.067116 0,4.93258"
         id="path1" /><path
         fill="#231f20"
         d="m 909.81543,256.62076 c 0.56567,0.0566 0.98426,0.12445 1.41982,0.24889 0.92768,0.22061 1.33496,0.4695 2.48326,2.44932 1.17658,2.07033 2.9867,5.43037 3.65418,6.86715 0.21495,0.50344 0.37899,1.10304 0.37899,1.57254 -0.0283,1.35194 0,2.57377 -0.0622,4.03884 0,0.92203 -0.1301,1.57254 -0.98425,1.75921 -0.47516,0.13576 -1.1087,0.22061 -1.99679,0.31677 -0.13011,0.0905 -0.13011,0.90506 0,1.00122 1.1992,0 2.3079,-0.0962 4.75156,-0.0962 1.88366,0 3.99924,0.0962 4.98349,0.0962 0.12445,-0.0962 0.19799,-0.87678 0.0962,-1.00122 -0.75233,-0.0962 -1.32931,-0.18101 -1.83841,-0.27718 -0.88243,-0.22626 -1.02385,-0.85415 -1.05213,-1.91194 -0.0339,-1.60648 -0.0622,-2.95276 -0.0622,-4.36126 0,-0.53738 0.1301,-0.91637 0.35071,-1.35193 0.70142,-1.41416 2.73215,-5.01743 3.96529,-6.99725 0.89941,-1.38022 1.37457,-1.76487 2.28528,-2.03639 0.36203,-0.1301 0.89941,-0.19232 1.4085,-0.28283 0.12445,-0.1301 0.12445,-0.939 0,-1.00122 -1.01819,0 -1.90062,0.0905 -3.53539,0.0905 -1.4481,0 -2.85094,-0.0905 -3.70509,-0.0905 -0.1301,0.0622 -0.18667,0.78627 -0.0905,1.00122 0.68445,0.0905 1.10304,0.15273 1.58386,0.28283 0.76364,0.15273 0.82021,0.49778 0.66748,1.09173 -0.44122,1.22183 -2.42104,4.9043 -3.46186,6.62391 -0.0622,0.0283 -0.15273,0.0283 -0.23192,0 -0.50909,-0.91071 -2.87922,-5.45864 -3.5467,-6.86714 -0.19233,-0.44688 -0.22061,-0.78628 0.24889,-0.91638 0.22626,-0.0622 0.70142,-0.19232 1.02385,-0.21495 0.12444,-0.1301 0.0962,-0.91072 -0.0453,-1.00122 -0.50909,0.0283 -2.62467,0.0905 -4.41217,0.0905 -1.61214,0 -3.22993,-0.0905 -4.24812,-0.0905 -0.0905,0.12444 -0.16405,0.81455 -0.0283,0.96728 m -7.55725,17.25272 c -1.11436,-0.15273 -1.62346,-0.18101 -2.1269,-0.37334 -0.67879,-0.21495 -0.83718,-0.75799 -0.89374,-1.53295 -0.10182,-1.82143 -0.0622,-9.97829 -0.0622,-14.46965 0,-0.11879 0.0622,-0.22061 0.11879,-0.24889 0.57698,-0.0396 2.64731,-0.0679 3.71641,0 0.61091,0.0622 0.95597,0.28283 1.21617,0.97294 0.28849,0.72404 0.46385,1.66305 0.59395,2.78871 0.10182,0.13011 1.01819,0.0962 1.1483,-0.0283 0.12444,-1.94022 0.41293,-4.16893 0.76364,-5.42471 -0.0396,-0.0622 -0.15839,-0.2206 -0.25455,-0.2206 -0.85981,0.28848 -1.78749,0.40727 -3.43357,0.40727 h -11.3868 c -0.89374,0 -1.95153,-0.0905 -2.80568,-0.43556 -0.0905,-0.0339 -0.31112,0.13011 -0.31112,0.18667 -0.0962,1.38022 -0.38465,3.98227 -0.63354,5.27198 0.0509,0.22061 0.98425,0.40728 1.10304,0.28283 0.39031,-1.10304 0.79759,-2.07598 1.18224,-2.76609 0.40727,-0.75233 0.84284,-1.00688 1.49335,-1.03516 0.85415,-0.0396 2.82266,-0.0396 3.38832,0 0.0735,0 0.17535,0.18666 0.17535,0.24889 0,4.9948 0.0226,11.10962 -0.10182,14.02844 -0.0735,1.4085 -0.28848,1.84406 -1.18223,2.03073 -0.43556,0.13576 -1.26143,0.22061 -2.11558,0.31677 -0.13576,0.12444 -0.16404,0.84849 0,1.00122 0.96728,0 2.61902,-0.0962 5.32289,-0.0962 2.09295,0 3.85216,0.0962 4.98349,0.0962 0.15838,-0.12444 0.23192,-0.87678 0.10182,-1.00122 M 868.96892,256.6547 c 0.67879,0.0566 1.21617,0.15273 1.69133,0.28283 0.63354,0.18667 0.83152,0.44122 0.88809,1.4085 0.0622,0.939 0.0905,3.51843 0.0905,6.02431 0,3.54105 0,6.1431 -0.0905,7.52332 -0.0339,1.0691 -0.31677,1.44244 -0.95031,1.60648 -0.4695,0.12445 -1.30669,0.24889 -2.34185,0.34505 -0.10182,0.15273 -0.10182,0.84284 0,1.02951 1.57254,0 3.64287,-0.0962 5.45299,-0.0962 3.36004,0 6.16573,0.12444 8.82434,0.12444 1.43679,0 1.6178,-0.18101 1.77053,-0.49778 0.52041,-1.00122 1.23314,-3.69943 1.4085,-4.48005 -0.1301,-0.19232 -0.88809,-0.44122 -1.08607,-0.40728 -0.47516,1.05779 -1.07476,2.19478 -1.64608,2.85094 -0.66183,0.78628 -1.08042,0.94466 -2.51155,0.96729 -1.61779,0 -3.55802,-0.0848 -4.19722,-0.21495 -0.37333,-0.0905 -0.69576,-0.53173 -0.69576,-1.09739 0,-1.51032 -0.0339,-4.02186 0,-5.77542 0,-0.0622 0.0905,-0.25455 0.18667,-0.25455 1.0295,0 3.53539,0 4.2255,0.0679 0.66748,0.0622 0.92769,0.44122 1.08607,0.87678 0.1301,0.40728 0.10182,0.40728 0.32243,1.28971 0.14707,0.11879 1.02385,0.0962 1.17092,-0.0283 -0.0339,-0.82021 -0.0566,-2.07598 -0.0566,-3.04327 0,-1.0295 0.11313,-2.28527 0.17535,-3.01498 -0.15273,-0.11879 -1.01254,-0.17536 -1.19355,-0.0622 -0.0962,0.41293 -0.1697,0.82021 -0.28849,1.16526 -0.19798,0.69011 -0.44687,1.00123 -1.12566,1.02951 -1.02951,0.0962 -3.3261,0.0679 -4.31601,0.0679 -0.0962,0 -0.18667,-0.12445 -0.18667,-0.25455 -0.0339,-1.88366 -0.0339,-4.32732 0,-6.2732 0,-0.1697 0.16404,-0.53738 0.35071,-0.56566 0.44687,-0.0679 3.81822,-0.0679 4.57056,0 0.6392,0.0622 1.08607,0.28283 1.37456,0.94465 0.22061,0.49779 0.37899,1.09173 0.50344,2.19478 0.15838,0.0905 0.98991,0.0622 1.13698,-0.0962 0.0962,-1.56688 0.28849,-3.63155 0.5091,-4.57621 0,-0.0622 -0.0509,-0.12445 -0.12445,-0.12445 -0.939,0.12445 -2.69256,0.15273 -3.90873,0.15273 h -6.34108 c -1.62345,0 -3.49014,-0.0905 -4.6045,-0.0905 -0.1301,0.0905 -0.19798,0.84283 -0.0735,1.00122 m -13.01025,0 c 0.76365,0.0905 1.2388,0.15273 1.77618,0.31677 0.61092,0.18667 0.75799,0.65051 0.83153,1.34062 0.0509,1.38022 0.0453,3.07721 0.0453,6.14876 0,3.07155 0.006,6.55603 -0.0453,7.56291 -0.10182,1.0691 -0.26021,1.4085 -1.12002,1.60083 -0.38465,0.0962 -0.82021,0.15273 -1.48769,0.2206 -0.15838,0.11879 -0.15838,0.90507 0,1.02951 1.13698,0 2.28528,-0.0962 4.79117,-0.0962 2.04204,0 3.42791,0.0679 4.54792,0.0962 0.14708,-0.0962 0.2489,-0.87678 0.11314,-1.02951 -0.66748,-0.0962 -1.39153,-0.18666 -1.79881,-0.31677 -0.92203,-0.21495 -0.99557,-0.87677 -1.01819,-1.56123 -0.0735,-1.17092 -0.0622,-3.71074 -0.0622,-7.24614 0,-2.73215 -0.0113,-5.11925 0.0622,-6.18269 0.0226,-0.91638 0.0962,-1.35759 0.78061,-1.60083 0.41859,-0.1301 0.98425,-0.19232 1.66305,-0.28283 0.12445,-0.15839 0.0905,-0.87678 0,-1.00122 -0.70708,0 -1.94022,0.0905 -4.53662,0.0905 -2.0081,0 -3.52973,-0.0905 -4.51399,-0.0905 -0.11879,0.12444 -0.15272,0.84283 -0.0283,1.00122 m -5.74713,4.2651 c 0.0283,0.15273 0.97859,0.0622 1.11435,-0.0905 0.0226,-1.5782 0.30546,-4.05014 0.50344,-5.08531 -1.43112,-0.0905 -3.84085,-0.56 -6.38633,-0.56 -2.66427,0 -4.76288,0.4695 -6.4429,1.34062 -3.50145,1.75921 -5.14188,5.08531 -5.14188,8.56413 0,6.68048 4.11803,10.25547 11.20578,10.25547 2.22306,0 3.81257,-0.44122 4.79683,-0.75233 0.85415,-0.56001 2.14386,-3.03195 2.53982,-4.34995 -0.13576,-0.2602 -0.66748,-0.57132 -0.88809,-0.60526 -0.7297,1.25577 -1.62345,2.45498 -2.42104,3.10549 -0.92203,0.81456 -2.15517,1.03517 -3.20165,1.03517 -5.30026,0 -7.53463,-4.48571 -7.53463,-8.9997 0,-5.55481 2.44367,-8.40575 6.23361,-8.40575 1.33496,0 2.66427,0.19232 3.78428,0.78627 1.22749,0.68445 1.51598,1.68568 1.83841,3.76166 m -31.09449,13.0159 c -1.42547,0 -2.51154,-0.40728 -3.4958,-1.13132 -2.37578,-1.88366 -3.33175,-5.51522 -3.33175,-8.5302 0,-3.03761 0.76364,-5.76976 2.70387,-7.06513 0.6901,-0.46384 1.61214,-0.71274 2.56811,-0.71274 1.3689,0 2.41538,0.40163 3.39963,1.1879 2.16083,1.73093 3.08286,5.08531 3.08286,8.31524 0,2.76044 -0.57697,5.45865 -2.16083,6.93503 -0.70142,0.62223 -1.74224,1.00122 -2.76609,1.00122 m -1.05213,1.4085 c 3.27518,0 6.41461,-1.31234 8.45666,-4.01621 1.3293,-1.71961 1.92325,-3.94832 1.92325,-6.39199 0,-5.24369 -3.41095,-9.75202 -9.96132,-9.75202 -3.33741,0 -6.25058,1.31233 -8.04373,3.29215 -1.87234,1.81578 -2.59074,4.25945 -2.59074,6.70877 0,2.54548 0.7184,5.26632 2.69256,7.31402 1.69133,1.75355 4.12368,2.84528 7.52332,2.84528 m -27.05566,-6.2336 c -0.14707,-0.0962 -0.94466,0.11879 -1.04082,0.30545 0.0566,1.1087 0.67314,4.45743 0.98991,4.92693 0.75799,0.40728 2.69256,1.00122 4.78551,1.00122 4.76288,0 7.43847,-2.69255 7.43847,-5.92815 0,-2.25133 -1.1879,-3.63721 -3.27519,-4.92692 -1.27274,-0.77496 -2.35316,-1.31234 -3.68812,-2.16083 -1.30103,-0.87678 -2.02508,-1.75921 -2.02508,-3.196 0,-1.50466 1.08042,-2.86225 2.90751,-2.86225 1.00122,0 1.79315,0.19232 2.48892,0.70142 0.7693,0.52607 1.11435,1.43679 1.39153,3.32044 0.1301,0.1301 0.88809,0.1301 1.04647,-0.0339 0.10182,-1.82143 0.28849,-3.38266 0.54304,-4.51399 -1.49335,-0.15838 -2.78872,-0.56 -5.17582,-0.56 -3.58064,0 -6.56168,1.97416 -6.56168,5.54915 0,3.13377 2.14386,4.63843 4.88167,6.26754 2.91882,1.75922 3.77862,2.69822 3.77862,4.36126 0,1.85538 -1.39153,2.73781 -2.92447,2.73781 -1.01254,0 -2.16084,-0.25455 -2.9867,-0.84849 -1.13133,-0.82021 -1.89497,-2.07033 -2.57377,-4.14065 M 763.2239,256.6547 c 0.59395,0.0905 1.29537,0.15273 1.66871,0.28283 0.79758,0.18667 0.939,0.62789 0.96728,1.47073 0.0905,1.0691 0.0566,2.82831 0.0566,6.34108 0,3.47882 -0.0396,6.77664 -0.12445,7.52897 -0.0622,0.75233 -0.24889,1.09173 -0.8994,1.2784 -0.59395,0.16404 -0.91638,0.19232 -1.92891,0.28848 -0.11314,0.11879 -0.11314,0.87678 0,1.02951 0.98425,0 2.6077,-0.0962 4.73459,-0.0962 2.2174,0 6.3128,0.15838 8.69424,0.15838 1.2388,0 1.58951,-0.15838 1.69133,-0.40727 0.69577,-1.12567 1.70831,-4.63844 1.86669,-5.55481 -0.0962,-0.21495 -0.92769,-0.46385 -1.10304,-0.40162 -0.54869,1.25577 -1.43113,2.85094 -2.03639,3.66549 -0.62788,0.82021 -1.21617,1.07476 -1.8384,1.07476 -1.43679,0.0226 -3.69378,0 -4.45177,-0.19232 -0.25455,-0.0905 -0.57697,-0.379 -0.60526,-0.939 -0.0679,-1.00123 -0.1301,-4.45177 -0.0962,-7.84009 0,-3.10549 0.0283,-5.36814 0.0679,-6.09219 0.0283,-0.75233 0.1301,-1.09173 0.85415,-1.31234 0.35071,-0.0962 0.72405,-0.16404 1.54992,-0.28283 0.13576,-0.15839 0.13576,-0.87678 0,-1.00122 -1.01254,0 -2.21175,0.0905 -4.44611,0.0905 -2.43235,0 -3.36004,-0.0905 -4.53662,-0.0905 -0.15273,0.0905 -0.22061,0.81455 -0.0849,1.00122 m -13.6947,3.19034 c 0.61092,1.56123 1.7083,4.81379 2.1269,6.12613 0,0.0622 -0.0679,0.18667 -0.0849,0.18667 -0.33375,0.0339 -1.1879,0.0283 -2.13821,0.0283 -0.97294,0 -1.71396,0.006 -2.05901,-0.0283 -0.0622,-0.0339 -0.10182,-0.0962 -0.0622,-0.21496 0.5091,-1.499 1.49335,-4.40085 2.0873,-6.09218 0.0339,-0.0396 0.10182,-0.006 0.1301,-0.006 m -9.5597,14.00015 c -0.0849,0.18667 -0.0849,0.87678 0,1.02951 0.96163,0 2.17215,-0.0962 3.53539,-0.0962 1.83841,0 3.20166,0.0962 4.02752,0.0962 0.0962,-0.12444 0.18667,-0.91072 0.0962,-1.02951 -0.60526,-0.0679 -1.08042,-0.15272 -1.54426,-0.28848 -0.86547,-0.18667 -0.92769,-0.59961 -0.92769,-1.06911 0,-0.60526 0.78061,-2.70952 1.36325,-4.28772 0.0679,-0.1301 0.2206,-0.28849 0.34505,-0.28849 0.40728,-0.0283 1.04648,-0.0283 2.53417,-0.0283 1.05779,0 2.13255,-0.0339 2.64165,0 0.0962,0 0.25454,0.15273 0.28283,0.22061 0.48081,1.1992 1.33496,3.53539 1.63476,4.66672 0.0566,0.18666 0.017,0.50909 -0.33374,0.69576 -0.34505,0.15273 -0.97859,0.28283 -1.61779,0.37899 -0.11879,0.15273 -0.0622,0.87678 0,1.02951 1.02385,-0.0283 2.35881,-0.0962 4.63278,-0.0962 2.0986,0 3.56367,0.0962 4.37823,0.0962 0.10747,-0.12444 0.19798,-0.91072 0.10747,-1.02951 -2.35316,-0.31677 -2.54548,-0.53737 -3.52973,-2.99801 -1.10305,-2.74346 -3.93702,-10.78153 -4.88733,-13.41187 -0.18667,-0.53737 -0.41294,-1.25011 -0.54304,-1.75355 -0.31111,0.0339 -0.75233,0.0622 -1.43113,0.0622 -0.53737,0 -1.04081,-0.0283 -1.42547,-0.0622 -0.0679,0.50344 -0.34505,1.44244 -0.60525,2.06467 -0.75234,2.19477 -3.45621,9.44657 -5.17016,13.45146 -0.89375,2.08164 -1.30103,2.33053 -3.56368,2.6473 m -4.53096,-12.92539 c 0.0339,0.15273 0.97294,0.0622 1.1087,-0.0905 0.0283,-1.5782 0.31111,-4.05014 0.50344,-5.08531 -1.41981,-0.0905 -3.84085,-0.56 -6.37502,-0.56 -2.67559,0 -4.76288,0.4695 -6.45421,1.34062 -3.50146,1.75921 -5.13057,5.08531 -5.13057,8.56413 0,6.68048 4.10672,10.25547 11.19447,10.25547 2.22306,0 3.81823,-0.44122 4.79682,-0.75233 0.85981,-0.56001 2.15518,-3.03195 2.53983,-4.34995 -0.12445,-0.2602 -0.66748,-0.57132 -0.88809,-0.60526 -0.72971,1.25577 -1.61214,2.45498 -2.40972,3.10549 -0.92769,0.81456 -2.16649,1.03517 -3.21297,1.03517 -5.30026,0 -7.52332,-4.48571 -7.52332,-8.9997 0,-5.55481 2.44367,-8.40575 6.2223,-8.40575 1.33496,0 2.66427,0.19232 3.78428,0.78627 1.2388,0.68445 1.52729,1.68568 1.84406,3.76166 m -29.92356,-4.2651 c 0.77495,0.0905 1.24445,0.15273 1.78183,0.31677 0.59961,0.18667 0.76365,0.65051 0.83718,1.34062 0.0566,1.38022 0.0453,3.07721 0.0453,6.14876 0,3.07155 0.0113,6.55603 -0.0453,7.56291 -0.10182,1.0691 -0.27151,1.4085 -1.12566,1.60083 -0.37334,0.0962 -0.81456,0.15273 -1.49335,0.2206 -0.15273,0.11879 -0.15273,0.90507 0,1.02951 1.14829,0 2.29093,-0.0962 4.79116,-0.0962 2.03639,0 3.43357,0.0679 4.54793,0.0962 0.15838,-0.0962 0.24889,-0.87678 0.1301,-1.02951 -0.67879,-0.0962 -1.40284,-0.18666 -1.81012,-0.31677 -0.92769,-0.21495 -0.98425,-0.87677 -1.01254,-1.56123 -0.0735,-1.17092 -0.0622,-3.71074 -0.0622,-7.24614 0,-2.73215 -0.0113,-5.11925 0.0622,-6.18269 0.0283,-0.91638 0.0848,-1.35759 0.78628,-1.60083 0.40727,-0.1301 0.97859,-0.19232 1.64607,-0.28283 0.12445,-0.15839 0.0962,-0.87678 0,-1.00122 -0.69576,0 -1.92891,0.0905 -4.53661,0.0905 -1.99679,0 -3.51842,-0.0905 -4.49702,-0.0905 -0.13576,0.12444 -0.16404,0.84283 -0.0453,1.00122 m -28.69608,0 c 0.94466,0.15273 1.7083,0.28283 2.24568,0.4695 0.66183,0.25455 0.86546,0.90506 0.82587,1.48204 -0.13011,2.59639 -0.78627,10.47042 -1.11436,12.8858 -0.17535,1.44244 -0.5091,1.84406 -1.41981,2.10426 -0.44688,0.12445 -0.98991,0.15273 -1.58386,0.24889 -0.13576,0.15273 -0.0962,0.87678 0,1.02951 0.98426,0 2.40973,-0.0962 3.80126,-0.0962 1.93456,0 3.26953,0.0962 4.15762,0.0962 0.1697,-0.12444 0.22626,-0.91072 0.0679,-1.02951 -0.92203,-0.12444 -1.46507,-0.18666 -1.99679,-0.37899 -0.92769,-0.27717 -1.11436,-0.74667 -1.11436,-1.878 0,-2.35881 0.34506,-8.88091 0.57132,-11.45467 0.0339,-0.0339 0.0962,-0.0622 0.15273,-0.0622 2.257,5.36249 5.2437,12.04862 6.00734,14.61673 0.1301,0.0622 1.11436,0.0622 1.27274,-0.0283 0.95597,-2.69256 5.20976,-11.76579 6.4429,-14.52622 0.0339,-0.0339 0.1301,-0.0339 0.15839,0 0,2.9471 0.0735,9.53707 0,11.86195 0,0.84283 -0.15839,1.31799 -0.73536,1.50466 -0.41294,0.15839 -0.91638,0.22061 -1.68568,0.34505 -0.0848,0.15273 -0.0848,0.87678 0,1.02951 1.22183,0 2.66993,-0.0962 4.42348,-0.0962 2.72084,0 4.03884,0.0962 4.97784,0.0962 0.1697,-0.15273 0.19798,-0.84284 0.10182,-1.02951 -0.75799,-0.0962 -1.36325,-0.2206 -1.81012,-0.31677 -0.8881,-0.21495 -1.08608,-0.84283 -1.14264,-1.75921 -0.15273,-2.13255 -0.41859,-11.13224 -0.35071,-13.26479 0,-0.75799 0.11878,-1.22749 0.88809,-1.47638 0.44687,-0.1301 1.05213,-0.25455 1.93456,-0.37334 0.15839,-0.1301 0.15839,-0.939 0,-1.00122 -1.7083,0 -3.11114,0.0905 -6.52775,0.0905 -0.0339,0.49779 -0.29414,1.15396 -0.57132,1.84972 -1.09173,2.50589 -4.3556,9.28818 -5.09096,10.70234 -0.0566,0.0283 -0.1301,0.0509 -0.19233,0 -0.7297,-1.41416 -3.55802,-7.43846 -5.01743,-10.60618 -0.28848,-0.69011 -0.50909,-1.31799 -0.56566,-1.94588 -3.1168,0 -5.05703,-0.0905 -7.01988,-0.0905 -0.0905,0.0622 -0.18101,0.84283 -0.0905,1.00122 m -20.61841,0 c 0.67879,0.0566 1.21617,0.15273 1.69133,0.28283 0.63354,0.18667 0.83152,0.44122 0.88243,1.4085 0.0622,0.939 0.0962,3.51843 0.0962,6.02431 0,3.54105 0,6.1431 -0.0962,7.52332 -0.0283,1.0691 -0.31111,1.44244 -0.95031,1.60648 -0.47516,0.12445 -1.30103,0.24889 -2.3475,0.34505 -0.10182,0.15273 -0.10182,0.84284 0,1.02951 1.58951,0 3.65418,-0.0962 5.45864,-0.0962 3.36004,0 6.16573,0.12444 8.83,0.12444 1.42547,0 1.61214,-0.18101 1.78184,-0.49778 0.5091,-1.00122 1.23315,-3.69943 1.39153,-4.48005 -0.1301,-0.19232 -0.88243,-0.44122 -1.08042,-0.40728 -0.48081,1.05779 -1.07475,2.19478 -1.64607,2.85094 -0.67314,0.78628 -1.08608,0.94466 -2.5172,0.96729 -1.6178,0 -3.55802,-0.0848 -4.19157,-0.21495 -0.37899,-0.0905 -0.70142,-0.53173 -0.70142,-1.09739 0,-1.51032 -0.0283,-4.02186 0,-5.77542 0,-0.0622 0.10182,-0.25455 0.19233,-0.25455 1.01819,0 3.52973,0 4.2255,0.0679 0.67879,0.0622 0.92769,0.44122 1.08607,0.87678 0.1301,0.40728 0.10182,0.40728 0.30546,1.28971 0.1697,0.11879 1.02385,0.0962 1.18224,-0.0283 -0.0283,-0.82021 -0.0566,-2.07598 -0.0566,-3.04327 0,-1.0295 0.11879,-2.28527 0.18101,-3.01498 -0.15273,-0.11879 -1.01254,-0.17536 -1.1992,-0.0622 -0.10748,0.41293 -0.16405,0.82021 -0.28284,1.16526 -0.18666,0.69011 -0.44687,1.00123 -1.11435,1.02951 -1.04648,0.0962 -3.34307,0.0679 -4.32732,0.0679 -0.0905,0 -0.19233,-0.12445 -0.19233,-0.25455 -0.0283,-1.88366 -0.0283,-4.32732 0,-6.2732 0,-0.1697 0.15839,-0.53738 0.36203,-0.56566 0.43556,-0.0679 3.80125,-0.0679 4.5649,0 0.64485,0.0622 1.08607,0.28283 1.36324,0.94465 0.23193,0.49779 0.38465,1.09173 0.51476,2.19478 0.15838,0.0905 0.98991,0.0622 1.14829,-0.0962 0.0848,-1.56688 0.28283,-3.63155 0.50344,-4.57621 0,-0.0622 -0.0679,-0.12445 -0.1301,-0.12445 -0.95031,0.12445 -2.69256,0.15273 -3.90873,0.15273 h -6.34674 c -1.61779,0 -3.48448,-0.0905 -4.61015,-0.0905 -0.11879,0.0905 -0.18101,0.84283 -0.0622,1.00122 m -25.7716,0 c 0.72404,0.0905 1.23314,0.15273 1.74224,0.31677 0.63354,0.15273 0.79193,0.49778 0.85415,1.47072 0.0226,0.8089 0.0566,3.76166 0.0566,6.80493 0,2.75478 -0.0339,5.58309 -0.0566,6.23926 -0.0622,1.39153 -0.24889,1.88366 -1.11436,2.10992 -0.44121,0.0962 -0.78627,0.15273 -1.51597,0.24889 -0.13576,0.15273 -0.10182,0.93335 0,1.02951 0.65617,0 2.24568,-0.0962 4.50833,-0.0962 2.61902,0 4.11237,0.0962 4.72328,0.0962 0.13011,-0.0962 0.24324,-0.84284 0.13011,-1.02951 -0.74102,-0.0962 -1.39719,-0.2206 -1.81578,-0.34505 -0.76365,-0.21495 -0.88809,-0.72405 -0.92203,-1.70264 -0.0396,-1.15396 -0.0396,-3.76166 -0.0396,-5.64532 0,-0.0283 0.0735,-0.15839 0.10182,-0.18667 0.19798,-0.0622 1.24446,-0.0622 4.51399,-0.0905 1.48769,0 3.46186,0 4.06712,0.0283 0.12444,0 0.18667,0.12444 0.18667,0.22061 0,2.04204 0,4.64975 -0.0283,5.9338 -0.0339,0.97294 -0.28849,1.34628 -0.85415,1.49901 -0.45253,0.13576 -0.88243,0.22061 -1.62345,0.28848 -0.11313,0.18667 -0.11313,0.90507 0.0339,1.02951 0.7297,0 2.60771,-0.0962 4.53096,-0.0962 2.07033,0 3.73337,0.0962 4.57621,0.0962 0.1697,-0.0962 0.22061,-0.87678 0.13576,-1.02951 -1.06345,-0.12444 -1.56689,-0.2206 -2.00245,-0.37899 -0.57132,-0.18101 -0.70142,-0.66182 -0.7693,-1.50466 -0.0679,-1.28406 -0.0566,-4.07843 -0.0566,-6.36937 0,-3.82388 -0.0113,-5.3342 0.0566,-7.08775 0.0283,-1.00688 0.22627,-1.32365 0.82587,-1.53295 0.37899,-0.16404 0.92203,-0.22626 1.56123,-0.31677 0.14707,-0.15839 0.11879,-0.87678 0,-1.00122 -0.76364,0 -2.03639,0.0905 -4.32732,0.0905 -2.1778,0 -3.39398,-0.0905 -4.53096,-0.0905 -0.14707,0.12444 -0.14707,0.87112 0,1.00122 0.76364,0.0905 1.30102,0.15273 1.7479,0.34505 0.47515,0.12445 0.6392,0.59961 0.66182,1.03517 0.0622,1.5386 0.0622,4.29904 0.0622,5.86592 0,0.0962 -0.11879,0.18667 -0.18667,0.22627 -0.39031,0.0283 -1.49335,0.0283 -3.9653,0.0283 -3.81822,0 -4.27075,0 -4.54793,-0.0679 -0.0679,-0.0339 -0.1301,-0.12445 -0.1697,-0.24889 0,-2.16649 0,-3.98227 0.0396,-5.36249 0.0339,-0.97859 0.19798,-1.31799 0.83718,-1.5386 0.30546,-0.0962 0.939,-0.22626 1.49335,-0.28283 0.11313,-0.0905 0.11313,-0.84849 0.017,-1.00122 -0.85415,0 -2.0873,0.0905 -4.4348,0.0905 -2.29093,0 -3.71075,-0.0905 -4.47439,-0.0905 -0.10182,0.0905 -0.16404,0.87112 -0.0283,1.00122 m -5.79239,4.2651 c 0.0339,0.15273 0.9786,0.0622 1.11435,-0.0905 0.0339,-1.5782 0.31678,-4.05014 0.5091,-5.08531 -1.43113,-0.0905 -3.84651,-0.56 -6.38068,-0.56 -2.66992,0 -4.76853,0.4695 -6.45987,1.34062 -3.49014,1.75921 -5.13056,5.08531 -5.13056,8.56413 0,6.68048 4.11803,10.25547 11.20578,10.25547 2.22306,0 3.80691,-0.44122 4.79682,-0.75233 0.85416,-0.56001 2.16084,-3.03195 2.53417,-4.34995 -0.1301,-0.2602 -0.66748,-0.57132 -0.88243,-0.60526 -0.74102,1.25577 -1.62345,2.45498 -2.42104,3.10549 -0.91071,0.81456 -2.15517,1.03517 -3.20165,1.03517 -5.30026,0 -7.53463,-4.48571 -7.53463,-8.9997 0,-5.55481 2.45498,-8.40575 6.23361,-8.40575 1.3293,0 2.66427,0.19232 3.77862,0.78627 1.24446,0.68445 1.52164,1.68568 1.83841,3.76166 m -49.00338,-4.24247 c 0.94466,0.0962 1.58386,0.2602 2.18912,0.53172 0.72405,0.32243 1.04082,1.19921 1.04082,1.86103 -0.0283,5.27198 -0.11879,10.97386 -0.31677,12.64257 -0.0905,1.06344 -0.40728,1.57254 -1.11436,1.78749 -0.53738,0.19233 -1.0691,0.24889 -1.77052,0.34505 -0.10182,0.11879 -0.12445,0.90507 0,1.02951 0.88809,0 2.28528,-0.0962 4.03883,-0.0962 1.55557,0 2.97539,0.0962 3.99924,0.0962 0.14707,-0.15273 0.14707,-0.91072 0.0566,-1.02951 -0.79192,-0.0962 -1.37456,-0.18666 -1.878,-0.31677 -0.88243,-0.19232 -1.33496,-0.65051 -1.39153,-1.9685 -0.0962,-1.44244 -0.1301,-8.00979 -0.0679,-11.39811 0,-0.0283 0.0962,-0.0905 0.1697,0 2.02507,2.57377 9.68415,12.33145 11.49427,14.83734 0.53738,-0.0622 2.37578,-0.0962 2.85094,-0.0339 -0.0283,-1.09739 -0.0622,-2.90751 -0.0622,-4.32167 0.0339,-4.64975 0.0622,-9.19202 0.24889,-11.85629 0.13576,-1.16527 0.40728,-1.5782 1.30668,-1.84972 0.40728,-0.1301 0.79193,-0.19232 1.30103,-0.28283 0.10182,-0.1301 0.10182,-0.91072 0,-1.00122 -0.57132,0 -2.05336,0.0905 -3.62025,0.0905 -1.99679,0 -3.46185,-0.0905 -4.25378,-0.0905 -0.0848,0.0622 -0.1301,0.87112 -0.0339,1.00122 0.82587,0.0905 1.4085,0.18667 2.00245,0.34505 0.98425,0.2489 1.27274,0.7184 1.3689,1.75356 0.19233,2.10427 0.12445,6.73704 0.12445,10.75891 -0.0339,0 -0.0622,0.0339 -0.10182,0.0339 -1.92891,-2.22306 -7.16695,-8.71687 -9.87082,-12.13913 -0.72971,-0.88243 -1.01819,-1.28971 -1.17658,-1.72527 -0.39031,0.0339 -1.21617,0.0622 -2.07033,0.0622 -1.86668,0 -3.42226,-0.11879 -4.43479,-0.0905 -0.10182,0.0905 -0.12445,0.91071 -0.0283,1.02385 m -13.3157,3.16771 c 0.61657,1.56123 1.71962,4.81379 2.13821,6.12613 0,0.0622 -0.0679,0.18667 -0.10182,0.18667 -0.31677,0.0339 -1.18224,0.0283 -2.1269,0.0283 -0.98425,0 -1.71395,0.006 -2.07032,-0.0283 -0.0566,-0.0339 -0.0849,-0.0962 -0.0566,-0.21496 0.5091,-1.499 1.4877,-4.40085 2.09295,-6.09218 0.0339,-0.0396 0.0962,-0.006 0.12445,-0.006 m -9.54839,14.00015 c -0.0905,0.18667 -0.0905,0.87678 0,1.02951 0.94466,0 2.16083,-0.0962 3.51842,-0.0962 1.85538,0 3.21297,0.0962 4.03884,0.0962 0.0905,-0.12444 0.18667,-0.91072 0.0905,-1.02951 -0.60526,-0.0679 -1.07476,-0.15272 -1.54991,-0.28848 -0.86547,-0.18667 -0.92203,-0.59961 -0.92203,-1.06911 0,-0.60526 0.78061,-2.70952 1.35759,-4.28772 0.0735,-0.1301 0.23192,-0.28849 0.34505,-0.28849 0.42425,-0.0283 1.05213,-0.0283 2.54548,-0.0283 1.05214,0 2.13255,-0.0339 2.64165,0 0.0905,0 0.24889,0.15273 0.28849,0.22061 0.47516,1.1992 1.32931,3.53539 1.60648,4.66672 0.0735,0.18666 0.0339,0.50909 -0.30546,0.69576 -0.35636,0.15273 -0.99556,0.28283 -1.62345,0.37899 -0.12445,0.15273 -0.0622,0.87678 0,1.02951 1.01254,-0.0283 2.3475,-0.0962 4.63278,-0.0962 2.09295,0 3.55802,0.0962 4.37823,0.0962 0.0905,-0.12444 0.19233,-0.91072 0.0905,-1.02951 -2.3475,-0.31677 -2.52852,-0.53737 -3.50711,-2.99801 -1.12002,-2.74346 -3.94267,-10.78153 -4.89299,-13.41187 -0.19232,-0.53737 -0.41859,-1.25011 -0.54303,-1.75355 -0.31677,0.0339 -0.76365,0.0622 -1.43113,0.0622 -0.53172,0 -1.04082,-0.0283 -1.43113,-0.0622 -0.0566,0.50344 -0.34505,1.44244 -0.59394,2.06467 -0.76931,2.19477 -3.46186,9.44657 -5.18148,13.45146 -0.88809,2.08164 -1.30668,2.33053 -3.55236,2.6473 m -4.54227,-12.92539 c 0.0396,0.15273 0.98425,0.0622 1.10304,-0.0905 0.0396,-1.5782 0.32243,-4.05014 0.5091,-5.08531 -1.42547,-0.0905 -3.84085,-0.56 -6.37502,-0.56 -2.66993,0 -4.76854,0.4695 -6.45422,1.34062 -3.49014,1.75921 -5.13621,5.08531 -5.13621,8.56413 0,6.68048 4.12368,10.25547 11.21143,10.25547 2.2174,0 3.81257,-0.44122 4.79117,-0.75233 0.85981,-0.56001 2.14952,-3.03195 2.53982,-4.34995 -0.1301,-0.2602 -0.66748,-0.57132 -0.8994,-0.60526 -0.72405,1.25577 -1.60648,2.45498 -2.40407,3.10549 -0.91637,0.81456 -2.15517,1.03517 -3.21296,1.03517 -5.28895,0 -7.52897,-4.48571 -7.52897,-8.9997 0,-5.55481 2.46063,-8.40575 6.22794,-8.40575 1.33497,0 2.67559,0.19232 3.78994,0.78627 1.22749,0.68445 1.52164,1.68568 1.83841,3.76166 m -29.91225,-4.2651 c 0.76364,0.0905 1.23314,0.15273 1.77618,0.31677 0.5996,0.18667 0.7693,0.65051 0.82587,1.34062 0.0622,1.38022 0.0622,3.07721 0.0622,6.14876 0,3.07155 0,6.55603 -0.0622,7.56291 -0.0962,1.0691 -0.25455,1.4085 -1.11436,1.60083 -0.37334,0.0962 -0.82021,0.15273 -1.48769,0.2206 -0.15839,0.11879 -0.15839,0.90507 0,1.02951 1.13132,0 2.28527,-0.0962 4.79116,-0.0962 2.03073,0 3.43357,0.0679 4.54793,0.0962 0.14707,-0.0962 0.24324,-0.87678 0.11879,-1.02951 -0.66748,-0.0962 -1.39719,-0.18666 -1.81012,-0.31677 -0.91638,-0.21495 -0.98426,-0.87677 -1.01819,-1.56123 -0.0566,-1.17092 -0.0566,-3.71074 -0.0566,-7.24614 0,-2.73215 0,-5.11925 0.0566,-6.18269 0.0339,-0.91638 0.10181,-1.35759 0.78627,-1.60083 0.41859,-0.1301 0.99556,-0.19232 1.66305,-0.28283 0.11878,-0.15839 0.0905,-0.87678 0,-1.00122 -0.69577,0 -1.94023,0.0905 -4.54793,0.0905 -1.98548,0 -3.51843,-0.0905 -4.50268,-0.0905 -0.1301,0.12444 -0.15839,0.84283 -0.0283,1.00122 m -14.45269,0.24324 c 2.75478,0 4.25944,1.79315 4.25944,4.51964 0,2.01376 -0.7693,2.92448 -1.65173,3.36004 -0.57698,0.27717 -2.03639,0.37899 -3.65984,0.31111 -0.10182,0 -0.18667,-0.0905 -0.18667,-0.21495 0,-3.58064 0,-6.52775 0.0566,-7.3423 0,-0.15273 0.13011,-0.40728 0.23193,-0.4695 0.24889,-0.12445 0.72405,-0.16404 0.95031,-0.16404 m -7.71564,-0.24324 c 0.60526,0.0566 1.20486,0.18667 1.62345,0.28283 0.66183,0.15273 0.91072,0.56001 0.94466,1.4085 0.0679,1.25577 0.0679,3.58065 0.0679,6.6522 0,1.88365 -0.0283,6.11481 -0.10182,7.02553 -0.0566,1.03516 -0.27718,1.44244 -0.98426,1.60083 -0.37333,0.0962 -0.88243,0.15273 -1.48203,0.24889 -0.19798,0.0905 -0.13576,0.87678 0,1.00122 0.66182,0 2.05335,-0.0962 4.50833,-0.0962 2.37579,0 3.89742,0.0962 4.5649,0.0962 0.15839,-0.0622 0.22627,-0.939 0.0679,-1.02951 -0.83718,-0.0962 -1.17092,-0.15272 -1.71961,-0.28848 -0.68446,-0.18667 -0.8881,-0.52607 -0.95598,-1.49901 -0.0283,-1.22749 -0.0566,-3.48448 -0.0566,-5.36814 0,-0.0679 0.0849,-0.18667 0.12444,-0.18667 h 1.26709 c 0.38465,0.0283 0.67314,0.18667 0.89375,0.56001 1.07476,1.6687 2.69255,4.49136 3.96529,5.96774 0.32243,0.40162 0.89941,0.96728 1.56123,1.28405 1.23315,0.58829 4.24813,0.7184 5.96775,0.58829 0.1301,-0.0905 0.28848,-0.96728 0.23192,-1.0295 -1.71962,-0.21495 -2.00811,-0.34506 -3.18468,-1.47073 -1.56123,-1.5386 -4.31601,-5.49824 -5.07966,-6.83886 -0.0339,-0.0735 -0.0339,-0.21495 0.0283,-0.24323 2.03638,-0.85981 3.6768,-2.32488 3.6768,-4.84208 0,-2.78872 -2.05335,-4.79682 -5.8942,-4.79682 -1.69133,0 -3.39964,0.0622 -5.77542,0.0622 -1.1483,0 -3.43357,-0.0905 -4.19156,-0.0905 -0.16404,0.0622 -0.22627,0.81455 -0.0679,1.00122 m -19.97356,0 c 0.66749,0.0566 1.21052,0.15273 1.68002,0.28283 0.6392,0.18667 0.83153,0.44122 0.89375,1.4085 0.0622,0.939 0.0905,3.51843 0.0905,6.02431 0,3.54105 0.006,6.1431 -0.0905,7.52332 -0.0283,1.0691 -0.31677,1.44244 -0.95031,1.60648 -0.48647,0.12445 -1.30103,0.24889 -2.35316,0.34505 -0.0962,0.15273 -0.0962,0.84284 0,1.02951 1.58385,0 3.64852,-0.0962 5.4643,-0.0962 3.35438,0 6.16007,0.12444 8.82434,0.12444 1.43113,0 1.61214,-0.18101 1.78184,-0.49778 0.5091,-1.00122 1.23314,-3.69943 1.39153,-4.48005 -0.1301,-0.19232 -0.88243,-0.44122 -1.08607,-0.40728 -0.47516,1.05779 -1.06911,2.19478 -1.64042,2.85094 -0.66183,0.78628 -1.07476,0.94466 -2.50589,0.96729 -1.62911,0 -3.56933,-0.0848 -4.19722,-0.21495 -0.37334,-0.0905 -0.69576,-0.53173 -0.69576,-1.09739 0,-1.51032 -0.0396,-4.02186 0,-5.77542 0,-0.0622 0.0792,-0.25455 0.18101,-0.25455 1.02385,0 3.52973,0 4.2255,0.0679 0.67879,0.0622 0.92769,0.44122 1.08607,0.87678 0.1301,0.40728 0.0962,0.40728 0.31677,1.28971 0.15839,0.11879 1.02385,0.0962 1.17658,-0.0283 -0.0339,-0.82021 -0.0622,-2.07598 -0.0622,-3.04327 0,-1.0295 0.11879,-2.28527 0.18101,-3.01498 -0.15273,-0.11879 -1.00688,-0.17536 -1.19355,-0.0622 -0.10182,0.41293 -0.1697,0.82021 -0.28849,1.16526 -0.19232,0.69011 -0.44687,1.00123 -1.11435,1.02951 -1.04648,0.0962 -3.34307,0.0679 -4.32732,0.0679 -0.10182,0 -0.18101,-0.12445 -0.18101,-0.25455 -0.0396,-1.88366 -0.0396,-4.32732 0,-6.2732 0,-0.1697 0.15272,-0.53738 0.35071,-0.56566 0.43556,-0.0679 3.80691,-0.0679 4.5649,0 0.63354,0.0622 1.08041,0.28283 1.3689,0.94465 0.22061,0.49779 0.37899,1.09173 0.5091,2.19478 0.15838,0.0905 0.98425,0.0622 1.13698,-0.0962 0.0962,-1.56688 0.28849,-3.63155 0.50344,-4.57621 0,-0.0622 -0.0509,-0.12445 -0.11879,-0.12445 -0.94466,0.12445 -2.69256,0.15273 -3.90873,0.15273 h -6.34674 c -1.61779,0 -3.49014,-0.0905 -4.59884,-0.0905 -0.1301,0.0905 -0.19232,0.84283 -0.0679,1.00122 m -28.80355,0 c 0.95597,0.15273 1.71396,0.28283 2.26265,0.4695 0.66183,0.25455 0.85415,0.90506 0.82587,1.48204 -0.1301,2.59639 -0.79759,10.47042 -1.11436,12.8858 -0.19232,1.44244 -0.50909,1.84406 -1.43112,2.10426 -0.44688,0.12445 -0.98426,0.15273 -1.58952,0.24889 -0.12444,0.15273 -0.0905,0.87678 0,1.02951 0.98426,0 2.40973,-0.0962 3.80691,-0.0962 1.93457,0 3.27519,0.0962 4.16328,0.0962 0.15839,-0.12444 0.22061,-0.91072 0.0622,-1.02951 -0.92203,-0.12444 -1.46507,-0.18666 -2.00245,-0.37899 -0.91637,-0.27717 -1.11436,-0.74667 -1.11436,-1.878 0.006,-2.35881 0.35637,-8.88091 0.57698,-11.45467 0.0283,-0.0339 0.0962,-0.0622 0.15839,-0.0622 2.25133,5.36249 5.24369,12.04862 6.00168,14.61673 0.1301,0.0622 1.1087,0.0622 1.27274,-0.0283 0.95031,-2.69256 5.20975,-11.76579 6.45421,-14.52622 0.0226,-0.0339 0.11879,-0.0339 0.15273,0 0,2.9471 0.0679,9.53707 0,11.86195 0,0.84283 -0.15273,1.31799 -0.7297,1.50466 -0.41294,0.15839 -0.92203,0.22061 -1.68568,0.34505 -0.0962,0.15273 -0.0962,0.87678 0,1.02951 1.21052,0 2.66993,-0.0962 4.41217,-0.0962 2.7265,0 4.03318,0.0962 4.98349,0.0962 0.15839,-0.15273 0.19233,-0.84284 0.0962,-1.02951 -0.76364,-0.0962 -1.3689,-0.2206 -1.81012,-0.31677 -0.89374,-0.21495 -1.08041,-0.84283 -1.14829,-1.75921 -0.15839,-2.13255 -0.40728,-11.13224 -0.34506,-13.26479 0,-0.75799 0.12445,-1.22749 0.88809,-1.47638 0.44688,-0.1301 1.04648,-0.25455 1.93457,-0.37334 0.16404,-0.1301 0.16404,-0.939 0,-1.00122 -1.71396,0 -3.11114,0.0905 -6.52775,0.0905 -0.0339,0.49779 -0.29414,1.15396 -0.57697,1.84972 -1.08042,2.50589 -4.35561,9.28818 -5.07966,10.70234 -0.0679,0.0283 -0.1301,0.0509 -0.19232,0 -0.73536,-1.41416 -3.55802,-7.43846 -5.01743,-10.60618 -0.28849,-0.69011 -0.51476,-1.31799 -0.57698,-1.94588 -3.10549,0 -5.04005,-0.0905 -7.00856,-0.0905 -0.10182,0.0622 -0.19798,0.84283 -0.10182,1.00122 m -14.1642,3.19034 c 0.60526,1.56123 1.71396,4.81379 2.13255,6.12613 0,0.0622 -0.0679,0.18667 -0.10182,0.18667 -0.31677,0.0339 -1.17092,0.0283 -2.12123,0.0283 -0.98426,0 -1.71396,0.006 -2.07033,-0.0283 -0.0566,-0.0339 -0.0849,-0.0962 -0.0566,-0.21496 0.50344,-1.499 1.4877,-4.40085 2.09296,-6.09218 0.0339,-0.0396 0.0962,-0.006 0.12444,-0.006 m -9.55404,14.00015 c -0.0962,0.18667 -0.0962,0.87678 0,1.02951 0.95597,0 2.16083,-0.0962 3.52408,-0.0962 1.84406,0 3.2073,0.0962 4.03317,0.0962 0.0905,-0.12444 0.19233,-0.91072 0.0905,-1.02951 -0.59395,-0.0679 -1.08042,-0.15272 -1.54992,-0.28848 -0.85415,-0.18667 -0.92203,-0.59961 -0.92203,-1.06911 0,-0.60526 0.79193,-2.70952 1.36891,-4.28772 0.0622,-0.1301 0.2206,-0.28849 0.34505,-0.28849 0.41859,-0.0283 1.05213,-0.0283 2.53983,-0.0283 1.04647,0 2.12689,-0.0339 2.63598,0 0.0905,0 0.25455,0.15273 0.28284,0.22061 0.48081,1.1992 1.33496,3.53539 1.61779,4.66672 0.0679,0.18666 0.0396,0.50909 -0.31111,0.69576 -0.35637,0.15273 -0.98426,0.28283 -1.62346,0.37899 -0.12444,0.15273 -0.0622,0.87678 0,1.02951 1.0182,-0.0283 2.35316,-0.0962 4.63844,-0.0962 2.09295,0 3.55802,0.0962 4.38389,0.0962 0.0905,-0.12444 0.18101,-0.91072 0.0905,-1.02951 -2.3475,-0.31677 -2.53982,-0.53737 -3.52408,-2.99801 -1.1087,-2.74346 -3.93701,-10.78153 -4.88732,-13.41187 -0.19233,-0.53737 -0.41294,-1.25011 -0.53738,-1.75355 -0.32243,0.0339 -0.7693,0.0622 -1.43679,0.0622 -0.53738,0 -1.04647,-0.0283 -1.42547,-0.0622 -0.0622,0.50344 -0.35071,1.44244 -0.60526,2.06467 -0.76364,2.19477 -3.4562,9.44657 -5.17015,13.45146 -0.89375,2.08164 -1.30669,2.33053 -3.55802,2.6473 M 398.42226,256.6547 c 0.66748,0.0566 1.20486,0.15273 1.68568,0.28283 0.63354,0.18667 0.83152,0.44122 0.88809,1.4085 0.0622,0.939 0.0962,3.51843 0.0962,6.02431 0,3.54105 0.006,6.1431 -0.0962,7.52332 -0.0283,1.0691 -0.31677,1.44244 -0.95032,1.60648 -0.48081,0.12445 -1.30668,0.24889 -2.35315,0.34505 -0.0962,0.15273 -0.0962,0.84284 0,1.02951 1.58951,0 3.65418,-0.0962 5.4643,-0.0962 3.36004,0 6.16007,0.12444 8.82434,0.12444 1.42547,0 1.6178,-0.18101 1.78184,-0.49778 0.5091,-1.00122 1.2388,-3.69943 1.39719,-4.48005 -0.13011,-0.19232 -0.88809,-0.44122 -1.08608,-0.40728 -0.47515,1.05779 -1.07476,2.19478 -1.64608,2.85094 -0.66748,0.78628 -1.08041,0.94466 -2.50588,0.96729 -1.62911,0 -3.56368,-0.0848 -4.19722,-0.21495 -0.37899,-0.0905 -0.70142,-0.53173 -0.70142,-1.09739 0,-1.51032 -0.0283,-4.02186 0,-5.77542 0,-0.0622 0.10182,-0.25455 0.19232,-0.25455 1.0182,0 3.52974,0 4.2255,0.0679 0.66749,0.0622 0.92769,0.44122 1.08608,0.87678 0.12444,0.40728 0.0905,0.40728 0.31111,1.28971 0.16404,0.11879 1.0182,0.0962 1.17658,-0.0283 -0.0339,-0.82021 -0.0622,-2.07598 -0.0622,-3.04327 0,-1.0295 0.12444,-2.28527 0.18667,-3.01498 -0.15839,-0.11879 -1.01254,-0.17536 -1.20487,-0.0622 -0.0962,0.41293 -0.15272,0.82021 -0.28283,1.16526 -0.19232,0.69011 -0.44687,1.00123 -1.11435,1.02951 -1.04648,0.0962 -3.33176,0.0679 -4.32167,0.0679 -0.0905,0 -0.19232,-0.12445 -0.19232,-0.25455 -0.0283,-1.88366 -0.0283,-4.32732 0,-6.2732 0,-0.1697 0.15838,-0.53738 0.35637,-0.56566 0.44687,-0.0679 3.80691,-0.0679 4.57621,0 0.63354,0.0622 1.08041,0.28283 1.36325,0.94465 0.2206,0.49779 0.37899,1.09173 0.50344,2.19478 0.15838,0.0905 0.98425,0.0622 1.14263,-0.0962 0.0962,-1.56688 0.28284,-3.63155 0.50344,-4.57621 0,-0.0622 -0.0622,-0.12445 -0.12444,-0.12445 -0.95032,0.12445 -2.69256,0.15273 -3.90308,0.15273 H 403.089 c -1.61214,0 -3.48448,-0.0905 -4.59884,-0.0905 -0.1301,0.0905 -0.19232,0.84283 -0.0679,1.00122 m -25.77725,0 c 0.72404,0.0905 1.23314,0.15273 1.74224,0.31677 0.63354,0.15273 0.79192,0.49778 0.8598,1.47072 0.0283,0.8089 0.0566,3.76166 0.0566,6.80493 0,2.75478 -0.0283,5.58309 -0.0566,6.23926 -0.0679,1.39153 -0.2602,1.88366 -1.11435,2.10992 -0.44122,0.0962 -0.79759,0.15273 -1.52163,0.24889 -0.13011,0.15273 -0.0962,0.93335 0,1.02951 0.66182,0 2.25133,-0.0962 4.50267,-0.0962 2.64165,0 4.12934,0.0962 4.7346,0.0962 0.12445,-0.0962 0.24889,-0.84284 0.12445,-1.02951 -0.72971,-0.0962 -1.39719,-0.2206 -1.81013,-0.34505 -0.76364,-0.21495 -0.88809,-0.72405 -0.92203,-1.70264 -0.0283,-1.15396 -0.0283,-3.76166 -0.0283,-5.64532 0,-0.0283 0.0622,-0.15839 0.0962,-0.18667 0.18667,-0.0622 1.23881,-0.0622 4.50268,-0.0905 1.49901,0 3.46186,0 4.06712,0.0283 0.1301,0 0.19798,0.12444 0.19798,0.22061 0,2.04204 0,4.64975 -0.0339,5.9338 -0.0339,0.97294 -0.28849,1.34628 -0.85415,1.49901 -0.44688,0.13576 -0.89941,0.22061 -1.62345,0.28848 -0.12445,0.18667 -0.12445,0.90507 0.0339,1.02951 0.72971,0 2.60205,-0.0962 4.53662,-0.0962 2.06467,0 3.71075,0.0962 4.57056,0.0962 0.15838,-0.0962 0.22626,-0.87678 0.1301,-1.02951 -1.05213,-0.12444 -1.55557,-0.2206 -1.99679,-0.37899 -0.57698,-0.18101 -0.70708,-0.66182 -0.7693,-1.50466 -0.0622,-1.28406 -0.0566,-4.07843 -0.0566,-6.36937 0,-3.82388 -0.006,-5.3342 0.0566,-7.08775 0.0339,-1.00688 0.22626,-1.32365 0.82587,-1.53295 0.38465,-0.16404 0.92203,-0.22626 1.55557,-0.31677 0.15838,-0.15839 0.13576,-0.87678 0,-1.00122 -0.75799,0 -2.03639,0.0905 -4.31601,0.0905 -2.19477,0 -3.39398,-0.0905 -4.53662,-0.0905 -0.15838,0.12444 -0.15838,0.87112 0,1.00122 0.76365,0.0905 1.30103,0.15273 1.74225,0.34505 0.48081,0.12445 0.63354,0.59961 0.66748,1.03517 0.0679,1.5386 0.0679,4.29904 0.0679,5.86592 0,0.0962 -0.13576,0.18667 -0.19798,0.22627 -0.379,0.0283 -1.4877,0.0283 -3.97096,0.0283 -3.80691,0 -4.25378,0 -4.53661,-0.0679 -0.0622,-0.0339 -0.13011,-0.12445 -0.15839,-0.24889 0,-2.16649 0,-3.98227 0.0283,-5.36249 0.0339,-0.97859 0.19233,-1.31799 0.82587,-1.5386 0.31677,-0.0962 0.95597,-0.22626 1.49335,-0.28283 0.12445,-0.0905 0.12445,-0.84849 0.0339,-1.00122 -0.85415,0 -2.09861,0.0905 -4.44611,0.0905 -2.28528,0 -3.7164,-0.0905 -4.48005,-0.0905 -0.0905,0.0905 -0.15273,0.87112 -0.0226,1.00122 m -8.00979,17.21878 c -1.11436,-0.15273 -1.6178,-0.18101 -2.12689,-0.37334 -0.66749,-0.21495 -0.82587,-0.75799 -0.89375,-1.53295 -0.0905,-1.82143 -0.0566,-9.97829 -0.0566,-14.46965 0,-0.11879 0.0566,-0.22061 0.12445,-0.24889 0.56566,-0.0396 2.63599,-0.0679 3.71075,0 0.61091,0.0622 0.96162,0.28283 1.21052,0.97294 0.28848,0.72404 0.48081,1.66305 0.60526,2.78871 0.0962,0.13011 1.01819,0.0962 1.14263,-0.0283 0.12445,-1.94022 0.40728,-4.16893 0.75799,-5.42471 -0.0283,-0.0622 -0.15273,-0.2206 -0.24889,-0.2206 -0.85981,0.28848 -1.77618,0.40727 -3.42792,0.40727 h -11.40376 c -0.88809,0 -1.93457,-0.0905 -2.79437,-0.43556 -0.0962,-0.0339 -0.31678,0.13011 -0.31678,0.18667 -0.0962,1.38022 -0.37899,3.98227 -0.63354,5.27198 0.0622,0.22061 0.98426,0.40728 1.1087,0.28283 0.379,-1.10304 0.79759,-2.07598 1.17658,-2.76609 0.41293,-0.75233 0.85981,-1.00688 1.49335,-1.03516 0.85415,-0.0396 2.82831,-0.0396 3.39398,0 0.0679,0 0.16404,0.18666 0.16404,0.24889 0,4.9948 0.0339,11.10962 -0.0962,14.02844 -0.0679,1.4085 -0.28849,1.84406 -1.17658,2.03073 -0.44688,0.13576 -1.27274,0.22061 -2.12689,0.31677 -0.13011,0.12444 -0.15839,0.84849 0,1.00122 0.98425,0 2.63598,-0.0962 5.32854,-0.0962 2.09861,0 3.84651,0.0962 4.9948,0.0962 0.15839,-0.12444 0.22061,-0.87678 0.0905,-1.00122 M 324.2978,256.6547 c 0.69577,0.0905 1.30102,0.18667 1.77618,0.31677 0.66748,0.18667 0.85981,0.40162 0.92203,1.45941 0.0622,1.12567 0.0622,3.06024 0.0622,6.65785 0,2.53983 -0.0339,6.15442 -0.0962,7.00291 -0.0283,0.96728 -0.15838,1.37456 -1.01253,1.56689 -0.44688,0.0905 -0.98426,0.15272 -1.55558,0.21495 -0.1301,0.15838 -0.1301,0.84849 0.0283,1.00122 1.62345,0 2.92447,-0.0962 4.695,-0.0962 1.97416,0 3.39963,0.0962 4.89864,0.0962 0.15838,-0.15273 0.15838,-0.8089 0.11879,-1.02951 -0.8485,-0.0962 -1.51598,-0.15272 -2.12124,-0.28848 -0.7297,-0.18667 -0.98425,-0.59395 -0.98425,-1.59517 -0.0679,-1.41416 -0.0339,-3.42226 -0.0339,-5.39643 0,-0.0622 0.0622,-0.19232 0.12444,-0.19232 0.83153,0 3.90873,0 4.76854,0.0622 0.5091,0.0339 0.85981,0.22061 1.08042,0.91072 0.1301,0.41293 0.28283,0.85415 0.38465,1.47638 0.24323,0.0679 0.97294,0.0679 1.13698,-0.0905 -0.0339,-0.94465 -0.0622,-2.01376 -0.0622,-3.16771 0,-1.25577 0.0905,-2.43801 0.15838,-3.19034 -0.19232,-0.14141 -0.98991,-0.1697 -1.17092,-0.0735 -0.0962,0.50909 -0.25455,1.08041 -0.38465,1.43112 -0.22061,0.57698 -0.48081,0.88809 -1.30102,0.92203 -0.98991,0.0679 -3.4958,0.0679 -4.57622,0.0679 -0.0622,0 -0.15838,-0.10182 -0.15838,-0.19232 -0.0339,-2.3871 0,-5.06269 0.0339,-6.72008 0,-0.18667 0.15273,-0.49778 0.34505,-0.53172 0.60526,-0.0962 3.88045,-0.0962 4.89864,0 0.56567,0.0339 1.01254,0.22061 1.30103,0.84849 0.28283,0.56001 0.44121,1.34062 0.66748,2.45498 0.15839,0.12445 0.88243,0.0679 1.0691,-0.0509 0.10182,-1.91194 0.28849,-3.756 0.54304,-4.75722 0,-0.0905 -0.0962,-0.21496 -0.18667,-0.21496 -0.51475,0.0962 -1.62345,0.18667 -3.55236,0.18667 h -7.21786 c -1.90063,0 -3.61459,-0.0905 -4.5649,-0.0905 -0.0962,0.0905 -0.15839,0.84283 -0.0339,1.00122 m -13.55894,17.281 c -1.43113,0 -2.5172,-0.40728 -3.4958,-1.13132 -2.38709,-1.88366 -3.33741,-5.51522 -3.33741,-8.5302 0,-3.03761 0.76365,-5.76976 2.70387,-7.06513 0.69577,-0.46384 1.61214,-0.71274 2.56811,-0.71274 1.36891,0 2.41538,0.40163 3.39964,1.1879 2.16083,1.73093 3.08286,5.08531 3.08286,8.31524 0,2.76044 -0.57132,5.45865 -2.16083,6.93503 -0.69577,0.62223 -1.7479,1.00122 -2.76044,1.00122 m -1.05213,1.4085 c 3.26953,0 6.41462,-1.31234 8.44534,-4.01621 1.33497,-1.71961 1.93457,-3.94832 1.93457,-6.39199 0,-5.24369 -3.42226,-9.75202 -9.96698,-9.75202 -3.33175,0 -6.25623,1.31233 -8.03241,3.29215 -1.87234,1.81578 -2.60771,4.25945 -2.60771,6.70877 0,2.54548 0.73537,5.26632 2.69822,7.31402 1.68567,1.75355 4.12933,2.84528 7.52897,2.84528 m -37.4186,-18.6895 c 0.60526,0.0905 1.30668,0.15273 1.68567,0.28283 0.79193,0.18667 0.92204,0.62789 0.95032,1.47073 0.0962,1.0691 0.0679,2.82831 0.0679,6.34108 0,3.47882 -0.0339,6.77664 -0.1301,7.52897 -0.0622,0.75233 -0.25455,1.09173 -0.8881,1.2784 -0.60525,0.16404 -0.92203,0.19232 -1.93456,0.28848 -0.13576,0.11879 -0.13576,0.87678 0,1.02951 0.97859,0 2.60205,-0.0962 4.72328,-0.0962 2.22306,0 6.32411,0.15838 8.6999,0.15838 1.24446,0 1.58951,-0.15838 1.68567,-0.40727 0.69577,-1.12567 1.71396,-4.63844 1.87235,-5.55481 -0.0905,-0.21495 -0.91638,-0.46385 -1.11436,-0.40162 -0.53172,1.25577 -1.41981,2.85094 -2.02507,3.66549 -0.63354,0.82021 -1.21052,1.07476 -1.84406,1.07476 -1.43113,0.0226 -3.68247,0 -4.44611,-0.19232 -0.24889,-0.0905 -0.57132,-0.379 -0.60526,-0.939 -0.0566,-1.00123 -0.1301,-4.45177 -0.0905,-7.84009 0,-3.10549 0.0339,-5.36814 0.0566,-6.09219 0.0339,-0.75233 0.1301,-1.09173 0.85981,-1.31234 0.35071,-0.0962 0.73536,-0.16404 1.56123,-0.28283 0.11878,-0.15839 0.11878,-0.87678 0,-1.00122 -1.0182,0 -2.22306,0.0905 -4.45177,0.0905 -2.43801,0 -3.36004,-0.0905 -4.53662,-0.0905 -0.15838,0.0905 -0.22061,0.81455 -0.0962,1.00122 m -13.68339,3.19034 c 0.59961,1.56123 1.71396,4.81379 2.1269,6.12613 0,0.0622 -0.0679,0.18667 -0.0905,0.18667 -0.32243,0.0339 -1.18223,0.0283 -2.1382,0.0283 -0.98426,0 -1.70831,0.006 -2.05336,-0.0283 -0.0679,-0.0339 -0.10182,-0.0962 -0.0679,-0.21496 0.5091,-1.499 1.48769,-4.40085 2.09861,-6.09218 0.0226,-0.0396 0.0905,-0.006 0.12444,-0.006 m -9.55404,14.00015 c -0.10182,0.18667 -0.10182,0.87678 0,1.02951 0.95031,0 2.15517,-0.0962 3.51842,-0.0962 1.84406,0 3.21297,0.0962 4.03318,0.0962 0.0905,-0.12444 0.19232,-0.91072 0.0905,-1.02951 -0.5996,-0.0679 -1.07476,-0.15272 -1.54991,-0.28848 -0.85415,-0.18667 -0.92203,-0.59961 -0.92203,-1.06911 0,-0.60526 0.79193,-2.70952 1.36325,-4.28772 0.0622,-0.1301 0.2206,-0.28849 0.35071,-0.28849 0.41293,-0.0283 1.05213,-0.0283 2.54548,-0.0283 1.04648,0 2.12123,-0.0339 2.63033,0 0.0962,0 0.25455,0.15273 0.28849,0.22061 0.47516,1.1992 1.32931,3.53539 1.6178,4.66672 0.0679,0.18666 0.0339,0.50909 -0.32243,0.69576 -0.34506,0.15273 -0.98426,0.28283 -1.61214,0.37899 -0.1301,0.15273 -0.0679,0.87678 0,1.02951 1.01253,-0.0283 2.3475,-0.0962 4.63278,-0.0962 2.09861,0 3.55236,0.0962 4.37823,0.0962 0.10182,-0.12444 0.19798,-0.91072 0.10182,-1.02951 -2.35882,-0.31677 -2.54549,-0.53737 -3.52974,-2.99801 -1.1087,-2.74346 -3.93701,-10.78153 -4.89298,-13.41187 -0.18667,-0.53737 -0.40728,-1.25011 -0.53173,-1.75355 -0.31677,0.0339 -0.76364,0.0622 -1.43112,0.0622 -0.54304,0 -1.04648,-0.0283 -1.42547,-0.0622 -0.0679,0.50344 -0.35071,1.44244 -0.60526,2.06467 -0.76365,2.19477 -3.46186,9.44657 -5.18147,13.45146 -0.8881,2.08164 -1.30103,2.33053 -3.54671,2.6473 m -23.5938,-17.16786 c 0.95031,0.0962 1.5782,0.2602 2.18912,0.53172 0.7297,0.32243 1.04647,1.19921 1.04647,1.86103 -0.0339,5.27198 -0.12444,10.97386 -0.31677,12.64257 -0.0962,1.06344 -0.41293,1.57254 -1.12001,1.78749 -0.53172,0.19233 -1.07476,0.24889 -1.77053,0.34505 -0.0962,0.11879 -0.1301,0.90507 0,1.02951 0.88244,0 2.28528,-0.0962 4.02752,-0.0962 1.55558,0 2.9867,0.0962 4.0049,0.0962 0.15838,-0.15273 0.15838,-0.91072 0.0622,-1.02951 -0.79193,-0.0962 -1.3689,-0.18666 -1.878,-0.31677 -0.88809,-0.19232 -1.32931,-0.65051 -1.39153,-1.9685 -0.10182,-1.44244 -0.1301,-8.00979 -0.0679,-11.39811 0,-0.0283 0.0905,-0.0905 0.15838,0 2.03073,2.57377 9.68981,12.33145 11.49993,14.83734 0.54304,-0.0622 2.38144,-0.0962 2.8566,-0.0339 -0.0339,-1.09739 -0.0622,-2.90751 -0.0622,-4.32167 0.0283,-4.64975 0.0622,-9.19202 0.24889,-11.85629 0.1301,-1.16527 0.41293,-1.5782 1.30668,-1.84972 0.40728,-0.1301 0.78627,-0.19232 1.29537,-0.28283 0.10182,-0.1301 0.10182,-0.91072 0,-1.00122 -0.57132,0 -2.05902,0.0905 -3.60893,0.0905 -2.00245,0 -3.46752,-0.0905 -4.25944,-0.0905 -0.0962,0.0622 -0.13011,0.87112 -0.0339,1.00122 0.82586,0.0905 1.39153,0.18667 2.00244,0.34505 0.98426,0.2489 1.26709,0.7184 1.36325,1.75356 0.19798,2.10427 0.12445,6.73704 0.12445,10.75891 -0.0226,0 -0.0622,0.0339 -0.0848,0.0339 -1.94023,-2.22306 -7.18392,-8.71687 -9.88213,-12.13913 -0.73537,-0.88243 -1.0182,-1.28971 -1.17658,-1.72527 -0.38465,0.0339 -1.21052,0.0622 -2.05902,0.0622 -1.87234,0 -3.42791,-0.11879 -4.44611,-0.0905 -0.0962,0.0905 -0.1301,0.91071 -0.0283,1.02385 m -14.03975,0.22061 c 2.76609,0 4.25378,1.79315 4.25378,4.51964 0,2.01376 -0.76364,2.92448 -1.65173,3.36004 -0.57132,0.27717 -2.03639,0.37899 -3.65418,0.31111 -0.0962,0 -0.19233,-0.0905 -0.19233,-0.21495 0,-3.58064 0,-6.52775 0.0679,-7.3423 0,-0.15273 0.12445,-0.40728 0.22061,-0.4695 0.25455,-0.12445 0.7297,-0.16404 0.95597,-0.16404 m -7.71564,-0.24324 c 0.60526,0.0566 1.20486,0.18667 1.61779,0.28283 0.66749,0.15273 0.92203,0.56001 0.95597,1.4085 0.0566,1.25577 0.0566,3.58065 0.0566,6.6522 0,1.88365 -0.0283,6.11481 -0.0905,7.02553 -0.0679,1.03516 -0.28848,1.44244 -0.98991,1.60083 -0.37899,0.0962 -0.88809,0.15273 -1.48769,0.24889 -0.18667,0.0905 -0.12445,0.87678 0,1.00122 0.66183,0 2.06467,-0.0962 4.50833,-0.0962 2.38144,0 3.90308,0.0962 4.57056,0.0962 0.15838,-0.0622 0.22626,-0.939 0.0622,-1.02951 -0.82587,-0.0962 -1.17092,-0.15272 -1.71396,-0.28848 -0.69576,-0.18667 -0.88809,-0.52607 -0.95031,-1.49901 -0.0339,-1.22749 -0.0679,-3.48448 -0.0679,-5.36814 0,-0.0679 0.0962,-0.18667 0.1301,-0.18667 h 1.27274 c 0.379,0.0283 0.66183,0.18667 0.88809,0.56001 1.08042,1.6687 2.69822,4.49136 3.9653,5.96774 0.32243,0.40162 0.89375,0.96728 1.55557,1.28405 1.24446,0.58829 4.25379,0.7184 5.9734,0.58829 0.13011,-0.0905 0.28849,-0.96728 0.22627,-1.0295 -1.71962,-0.21495 -2.0081,-0.34506 -3.17903,-1.47073 -1.55557,-1.5386 -4.316,-5.49824 -5.07965,-6.83886 -0.0339,-0.0735 -0.0339,-0.21495 0.0283,-0.24323 2.03073,-0.85981 3.68247,-2.32488 3.68247,-4.84208 0,-2.78872 -2.05901,-4.79682 -5.90552,-4.79682 -1.68002,0 -3.39963,0.0622 -5.78107,0.0622 -1.13699,0 -3.42227,-0.0905 -4.18591,-0.0905 -0.15839,0.0622 -0.22061,0.81455 -0.0622,1.00122 m -24.58371,0 c 0.57698,0.0566 1.27274,0.18667 1.65173,0.31677 0.72971,0.2093 0.95032,0.74668 0.98991,1.56689 0.0283,3.00932 -0.0396,8.84131 0.25455,11.03608 0.379,3.16771 2.37579,5.76976 7.86272,5.76976 4.38954,0 7.69301,-1.84406 8.17383,-7.52331 0.2206,-2.13255 0.28848,-5.80371 0.37899,-8.62636 0.0622,-1.54992 0.31111,-2.03639 1.14264,-2.257 0.37899,-0.1301 0.85415,-0.19232 1.32931,-0.28283 0.15838,-0.1301 0.1301,-0.87678 0,-1.00122 -0.66749,0 -1.6178,0.0905 -3.67681,0.0905 -1.58952,0 -2.92448,-0.0905 -3.90873,-0.0905 -0.13011,0.19232 -0.13011,0.84283 -0.0283,1.00122 0.69577,0.0905 1.32931,0.18667 1.77053,0.31677 1.04647,0.18667 1.34062,0.71274 1.40284,2.04204 0.1301,2.18912 0.0905,6.67483 -0.0622,9.02233 -0.31677,4.49136 -2.73215,5.24935 -5.02309,5.24935 -3.0772,0 -4.73459,-1.4481 -5.17581,-3.48448 -0.25455,-0.9786 -0.35071,-2.47761 -0.379,-3.7051 0,-1.66305 -0.0679,-4.98914 0,-7.48937 0.0283,-1.01254 0.28849,-1.51598 1.04648,-1.66871 0.37899,-0.0962 0.88809,-0.19232 1.45941,-0.28283 0.1301,-0.15839 0.1301,-0.87678 0,-1.00122 -1.1087,0 -2.69821,0.0905 -4.57621,0.0905 -1.77053,0 -3.61459,-0.0905 -4.59884,-0.0905 -0.12445,0.12444 -0.12445,0.84283 -0.0339,1.00122 m -13.30439,17.281 c -1.42547,0 -2.51154,-0.40728 -3.4958,-1.13132 -2.38144,-1.88366 -3.33175,-5.51522 -3.33175,-8.5302 0,-3.03761 0.76364,-5.76976 2.69821,-7.06513 0.70142,-0.46384 1.6178,-0.71274 2.57377,-0.71274 1.3689,0 2.41538,0.40163 3.39963,1.1879 2.16083,1.73093 3.07721,5.08531 3.07721,8.31524 0,2.76044 -0.56567,5.45865 -2.15518,6.93503 -0.70142,0.62223 -1.75356,1.00122 -2.76609,1.00122 m -1.04648,1.4085 c 3.26953,0 6.40896,-1.31234 8.45101,-4.01621 1.3293,-1.71961 1.92891,-3.94832 1.92891,-6.39199 0,-5.24369 -3.42226,-9.75202 -9.96698,-9.75202 -3.33176,0 -6.25624,1.31233 -8.03242,3.29215 -1.87234,1.81578 -2.6077,4.25945 -2.6077,6.70877 0,2.54548 0.73536,5.26632 2.69821,7.31402 1.68567,1.75355 4.12368,2.84528 7.52897,2.84528 m -23.65602,-18.6895 c 0.82587,0.0905 1.43113,0.18667 1.94022,0.34505 0.75799,0.2093 0.8881,0.84284 0.94466,1.60649 0.10182,2.18911 0.16404,12.19003 0.0622,16.58523 -0.0226,2.16083 -0.18666,3.01499 -0.6901,3.64287 -0.41859,0.43556 -0.82587,0.53172 -1.30103,0.53172 -0.82587,0 -2.48326,-0.78627 -3.68246,-1.63476 -0.28849,0.47516 -0.76931,1.91194 -0.89375,2.53982 0,0.0283 0,0.50344 0.0339,0.53738 0.35071,0.59395 1.33496,0.89941 2.38144,0.89941 2.2174,0 4.97783,-1.83841 6.72573,-4.79117 0.88809,-1.56688 1.2388,-3.38832 1.33496,-5.52652 0.15839,-3.2865 0.12445,-9.97264 0.15839,-12.98196 0.0339,-0.91072 0.22061,-1.22749 0.72405,-1.40851 0.32243,-0.1301 0.92769,-0.25454 1.55557,-0.34505 0.13576,-0.15839 0.10182,-0.87678 0,-1.00122 -0.91072,0 -2.09295,0.0905 -4.37257,0.0905 -2.79438,0 -3.86914,-0.0905 -4.89299,-0.0905 -0.0905,0.12444 -0.12444,0.84283 -0.0283,1.00122"
         id="path2" /><path
         fill="none"
         stroke="#ffce34"
         stroke-width="2.684"
         d="M 0,0 V 37.195"
         transform="matrix(5.692,0,0,5.622,751.49884,24.999944)"
         id="path3" /><path
         fill="none"
         stroke="#ffce34"
         stroke-width="2.684"
         d="M 0,0 V 37.195"
         transform="matrix(5.692,0,0,5.622,471.65504,24.999944)"
         id="path4" /><path
         fill="none"
         stroke="#ffce34"
         stroke-width="2.684"
         d="M 0,0 V 37.195"
         transform="matrix(5.692,0,0,5.622,188.60112,24.999944)"
         id="path5" /></g><g
       id="acs-publications-logo"
       sketch:type="MSLayerGroup"
       transform="matrix(0.23690577,0,0,0.23690577,-279.83911,448.14906)"
       style="fill:none;fill-rule:evenodd;stroke:none;stroke-width:1"><path
         d="M 0,62.819255 65.865275,129.00042 132.75363,62.819255 Z"
         id="Fill-1"
         fill="#0054a5"
         sketch:type="MSShapeGroup" /><g
         id="Group-69"><g
           id="Group-4"><mask
             id="mask-2"
             sketch:name="Clip 3"
             fill="#ffffff"><use
               xlink:href="#path-1"
               id="use1" /></mask><g
             id="Clip-3" /><path
             d="m 69.319099,71.136426 h 0.492747 5.386813 v -2.900419 h -6.86923 c 0,0 -0.492748,-0.09571 -1.031429,0.353709 -0.538681,0.445258 -0.450989,0.624194 -0.450989,0.624194 l 1.482418,2.417709 z M 93.23822,82.088942 c -2.376044,0 -2.806154,-1.868419 -2.806154,-3.857516 0,-2.746452 0.985494,-4.148807 2.626593,-4.148807 1.465715,0 2.392748,0.853065 2.53055,2.330323 h 4.430551 c -0.37165,-3.653613 -2.810331,-5.800839 -7.16154,-5.800839 -3.971209,0 -7.094726,2.858807 -7.094726,7.457033 0,4.619032 2.847913,7.494483 7.554066,7.494483 3.754066,0 6.384836,-2.213806 6.80242,-5.875742 h -4.489013 c -0.17956,1.360742 -0.88945,2.401065 -2.392747,2.401065 z M 51.404813,39.456523 c 0,0 0.81011,-0.174775 1.073187,0.08739 0.455165,0.45358 0.133626,0.715742 0.133626,1.215096 L 38.338659,54.000232 35.378,56.463716 c 10.815385,-2.463484 19.171209,-12.750193 19.171209,-12.750193 0.985494,0 2.960659,2.459322 2.960659,2.459322 0,0 0.985495,-2.958677 3.457582,-4.440097 2.914726,-1.473096 2.417803,-4.377677 2.417803,-4.377677 4.944176,1.431484 4.451428,5.368064 4.451428,5.368064 0.492748,-1.477258 5.428572,-1.964129 5.428572,-1.964129 v 4.431775 c -0.488572,1.964129 0.455165,3.441387 0.455165,3.441387 6.418241,-10.332484 -1.436484,-24.522484 -2.923077,-26.490775 -1.478242,-2.954516 -1.478242,-3.93658 -0.985495,-7.340516 0.985495,-2.459322 6.376484,-1.96829 7.366154,-1.468935 1.474066,0 1.970989,0.977903 1.970989,0.977903 0.492747,-6.8910966 -5.428571,-5.4179998 -5.428571,-5.4179998 v 0.674129 h -2.923077 c 0,0 0.171208,-0.3412258 0.208791,-0.7115807 l -0.116923,-0.00416 c 0,0 -0.225495,1.0278387 -1.344616,0.2704838 -0.450989,-0.316258 -0.768351,-1.2067742 -0.768351,-1.2067742 0,0 0.901978,-0.045774 1.661978,0.087387 0.521978,0.087387 0.60967,0.486871 0.567912,0.8530645 l 2.714286,0.037452 C 72.776681,5.5003935 68.822176,5.9914258 65.368769,5.9914258 c -3.411648,0 -2.426154,-2.4676451 -2.426154,-2.4676451 -3.950329,3.4538709 -0.985494,6.3542903 -0.985494,6.3542903 -4.447253,7.38629 -3.461758,9.308806 -3.461758,9.308806 3.954505,3.936581 3.954505,8.817775 3.954505,8.817775 h -0.98967 c 0,-3.894968 -2.467912,-8.326742 -6.910989,-10.290871 -5.395165,-2.912904 -10.823736,1.473096 -10.823736,1.473096 0,0 -38.3382422,38.754097 -39.3279126,39.740323 -0.9854945,0.932129 -1.970989,0.932129 -2.9189011,1.427323 0,0 5.8837363,0.986225 10.3268137,-2.904581 11.270549,-12.259161 29.498021,-29.89471 29.498021,-29.89471 0,0 0.672308,-0.307935 0.985495,0.04994 0.676483,0.757355 0,1.381548 0,1.381548 0,0 -29.543956,28.954258 -30.483516,29.940484 -1.482418,0.932129 -2.9648356,1.427323 -2.9648356,1.427323 5.3909886,0.986225 9.8382416,-2.904581 9.8382416,-2.904581 L 43.725473,32.432265 c 0,0 0.676483,-0.08739 0.943736,0.270483 0.405055,0.536807 0.04593,1.210936 0.04593,1.210936 0,0 -23.07978,23.041064 -24.558022,24.02729 -0.492747,0.491032 -3.461758,1.918355 -3.461758,1.918355 5.887912,0.986226 10.823736,-3.890806 10.823736,-3.890806 L 47.187231,36.368845 c 0,0 0.805934,-0.04161 0.985494,0.274645 0.313187,0.582581 0,1.202613 0,1.202613 0,0 -18.678461,17.631387 -19.171209,18.617613 -1.482417,1.477258 -3.954505,2.463484 -3.954505,2.463484 0,0 1.983517,0 6.422418,-1.477258 4.405494,-1.481419 19.935384,-17.993419 19.935384,-17.993419 z M 93.872945,58.9272 c -0.93956,-1.477258 -1.975165,-3.362323 -1.975165,-3.362323 0,0 0.04593,0.312097 -0.221318,1.660355 -0.179561,0.844742 -1.215165,1.206774 -1.215165,1.206774 0,0 -0.584616,-1.880903 -1.478242,-2.463483 -2.158901,-1.431484 -1.482418,-3.445549 -1.482418,-3.445549 0,0 -1.077362,0.137323 -1.661978,1.477258 -0.584615,1.389871 -0.317362,1.968291 -0.317362,1.968291 0,0 -1.657802,-1.473097 -1.925055,-2.954517 -0.359121,-1.701967 0.580439,-2.638258 0.580439,-2.638258 0,0 -2.067033,-0.80729 -2.55978,-0.316258 -0.981319,0.499355 -1.975165,1.48142 -1.975165,1.48142 0,0 0.993846,-4.877033 -0.492747,-5.859097 l -0.985495,-0.986226 c 0,0 0.40088,1.165161 -1.478241,1.96829 -1.574286,0.669968 -1.933407,3.308226 -3.42,3.894968 0,0.491032 -1.34044,-2.912903 -1.478242,-3.894968 -0.309011,-1.830967 0.359121,-2.238774 0.359121,-4.207064 0,0 -2.334286,1.115226 -3.683077,1.25671 -0.805934,0.08739 -2.112967,1.96829 -2.112967,1.96829 0,0 1.081538,-2.376097 -0.488572,-4.435936 -0.672307,-0.894677 -0.985494,-1.964129 -0.985494,-1.964129 0,0 -0.993846,1.964129 -1.933407,2.954516 -0.985494,0.977904 -3.457582,2.459323 -3.950329,3.936581 -0.989671,1.473097 -0.989671,2.908742 -0.989671,2.908742 0,0 -0.985494,-1.926677 -1.482417,-2.41771 -0.488572,-0.491032 -1.883297,-0.848903 -1.883297,-0.848903 0,0 -0.04593,1.518871 -1.57011,3.266613 -1.661978,1.876742 -0.455165,4.427613 -0.455165,4.427613 0,0 -3.044176,0.669968 -3.457582,-0.495194 -0.212967,-0.669967 0.542857,-1.701967 0.542857,-1.701967 0,0 -1.524176,0.228871 -2.50967,1.210935 -0.496923,0.986226 -0.993846,2.463484 -1.482418,3.445549 -0.98967,1.481419 -1.97934,2.958677 -2.472088,2.958677 C 42.288989,58.432006 41.838,55.435877 41.838,55.435877 c 0,0 -5.023516,2.505097 -1.565934,6.395904 h 7.900659 c 0,0 0.179561,-1.564645 2.246594,-3.087678 1.69956,-1.252548 -0.271429,-3.757645 -0.271429,-3.757645 0,0 3.411649,0 3.904396,0.982065 0,0 -0.492747,-1.473097 0.496923,-2.459323 0.985494,-0.986226 1.482417,-2.950355 1.482417,-2.950355 0,0 0.488572,1.473097 0.985495,1.964129 0.492747,0.491032 1.975165,1.972452 1.975165,1.972452 0,0 0.04176,-2.009903 0.492747,-2.463484 0.450989,-0.445258 1.482417,-1.473097 1.482417,-2.950355 v -2.41771 c 0,0 4.401319,2.904581 4.401319,4.877033 0,0 0.492747,-0.982065 1.478242,-1.972452 1.482418,-0.486871 2.472088,-0.93629 2.472088,-0.93629 0,0 -0.98967,1.926677 2.964835,6.35429 0,0 1.210989,-1.210935 1.210989,-2.684032 0,-0.499355 1.833187,0.183097 2.693407,1.206774 0.98967,1.161 0.98967,3.445548 0.98967,3.445548 0,0 1.119121,-1.518871 1.970989,-1.96829 0.856044,-0.449419 2.467912,0 2.467912,0 0,0 -0.981319,2.463484 0.492747,4.386 1.486594,1.473097 2.426154,2.459323 2.426154,2.459323 h 8.397583 c 0,0 1.92923,-1.477258 0.93956,-2.904581 z M 91.450967,26.569006 c 0,0 28.011433,28.417452 31.473183,31.371968 3.40748,2.904581 8.8444,1.918355 8.8444,1.918355 -0.98967,0 -1.97934,-0.932129 -1.97934,-0.932129 0,0 -30.976265,-30.922548 -40.806155,-39.740323 -9.341319,-8.813613 -15.939121,4.207065 -15.939121,4.207065 0,0 2.067033,4.564935 3.144396,8.052097 1.386373,4.477548 1.031428,10.028709 1.031428,10.028709 C 88.532066,55.7022 98.812945,55.968523 98.812945,55.968523 97.831626,55.47749 96.83778,54.986458 96.83778,54.986458 L 82.602396,41.245877 c 0,0 -0.354946,-0.445258 0,-0.986225 0.363296,-0.528484 0.993846,0 0.993846,0 0,0 10.276703,9.799838 14.235384,13.74058 3.946154,4.431774 10.318464,4.431774 10.815384,4.431774 -0.49692,0 -3.95033,-2.954516 -3.95033,-2.954516 L 86.064154,37.446619 c 0,0 -0.400879,-0.669967 -0.04593,-1.077774 0.405055,-0.495193 0.98967,0 0.98967,0 0,0 16.749226,16.645161 20.156696,20.094871 3.95033,3.395613 9.33715,2.908742 9.33715,2.908742 -0.49275,0 -2.9189,-1.431484 -2.9189,-1.431484 L 88.486132,33.414329 c 0,0 -0.534506,-0.757355 -0.04593,-1.248387 0.496923,-0.491032 1.03978,-0.228871 1.03978,-0.228871 0,0 21.634938,22.063161 25.539338,25.512871 3.9545,3.395613 10.32681,2.904581 9.34549,2.409387 -0.94791,0 -0.94791,-0.486871 -2.43033,-0.932129 -1.48241,-0.495194 -31.473179,-30.922548 -31.473179,-30.922548 0,0 -0.221319,-0.536807 0,-0.944613 0.40923,-0.620033 0.98967,-0.491033 0.98967,-0.491033 z m -16.331648,57.837775 -0.02506,0.04577 c 0,0 0.442637,-1.032 0.442637,-1.622903 0,-1.77271 -1.444835,-3.208355 -3.223736,-3.208355 -0.108572,0 -0.321539,0.01664 -0.321539,0.01664 L 64.876022,68.722877 c 0,0 -0.22967,-0.45358 -0.993846,-0.48687 -0.939561,-0.04994 -6.372308,0 -6.372308,0 v 2.900419 h 5.432747 c 0,0.245516 3.992088,6.171193 6.543517,10.116097 0,0 -0.396703,0.998709 -0.396703,1.577129 0,1.764387 1.436483,3.204193 3.223736,3.204193 0.146154,0 0.434285,-0.02913 0.434285,-0.02913 l 3.415825,5.051807 c 0,0 1.507472,1.652032 0.02505,1.652032 h -0.309011 c -0.48022,-0.753194 -1.323737,-1.244226 -2.28,-1.244226 -0.952088,0 -1.783077,0.495194 -2.271649,1.235903 -0.826813,0 -1.720439,0.0083 -2.643296,0.0083 -0.48022,-0.753194 -1.29033,-1.244226 -2.25077,-1.244226 -0.952088,0 -1.791428,0.495194 -2.267472,1.235903 -0.968791,0 -1.9,0.0083 -2.776923,0.0083 -0.48022,-0.753194 -1.281978,-1.273355 -2.250769,-1.273355 -0.947912,0 -1.787253,0.495193 -2.267473,1.231742 -0.521978,0 -0.839341,0.04161 -0.839341,0.04161 0,0 -1.478241,0.249677 -0.492747,-1.227581 0.58044,-0.753193 2.376044,-3.383129 3.937802,-5.64271 0,0 0.204616,0.04578 0.363297,0.04578 1.778901,0 3.219561,-1.427323 3.219561,-3.200033 0,-0.578419 -0.417583,-1.585451 -0.417583,-1.585451 l 2.726813,-4.057258 -1.983516,-2.455162 -3.244616,4.906162 c 0,0 -0.200439,-0.01664 -0.300659,-0.01664 -1.783077,0 -3.223736,1.439806 -3.223736,3.208354 0,0.520162 0.334066,1.419001 0.334066,1.419001 l -4.831429,7.12829 c -2.334286,2.634096 0.263077,4.460903 1.933407,4.427613 0.622197,-0.0083 1.628571,-0.02081 2.88967,-0.02497 0.48022,0.711581 1.269451,1.161 2.196484,1.161 0.927032,0 1.74967,-0.466065 2.234066,-1.173484 0.918681,0 1.858241,0.0083 2.822857,0.0083 0.488571,0.707419 1.311208,1.19429 2.238241,1.19429 0.927033,0 1.749671,-0.461903 2.22989,-1.173484 0.947913,0 1.849891,0 2.705935,0.0042 0.488571,0.70742 1.311208,1.169323 2.22989,1.169323 0.931209,0 1.74967,-0.461903 2.238241,-1.173484 1.131649,0.0042 1.833187,0.0083 1.833187,0.0083 1.265275,0.170613 4.514066,-1.081936 2.046154,-4.036452 -0.496923,-0.973742 -4.593406,-7.232323 -4.597582,-7.215677 z m 5.516263,-25.034323 c -0.496923,-1.431484 0,-2.908742 0,-2.908742 0,0 -1.983516,0.22471 -2.472088,1.477258 -0.764175,1.876742 -1.975164,1.918355 -1.975164,1.918355 0,0 0.496923,-2.904581 -0.496923,-3.890806 -0.492748,-0.982065 -1.478242,-1.968291 -1.478242,-1.968291 0,0 0.225494,1.389871 -0.492747,1.968291 -1.352967,1.077774 -1.436484,0.986225 -1.436484,0.986225 0,0 -1.979341,-0.986225 -2.964835,-2.954516 -0.98967,-1.477258 -0.98967,-2.950355 -0.98967,-2.950355 0,0 -1.482418,0 -1.979341,1.473097 -0.488572,1.477258 -0.981319,2.463484 -0.981319,2.463484 0,0 -1.983516,-5.418 -3.411648,-5.418 0,0 0.534505,1.123548 0,1.972452 -0.76,1.206774 -2.426154,2.059838 -1.44066,4.023967 2.067033,4.073904 0.989671,6.266904 0.989671,6.266904 h 21.593187 c 0,0 -2.463737,-0.491033 -2.463737,-2.459323 z M 37.102615,71.257103 31.999758,85.46791 h 4.568352 l 0.534505,-1.872581 h 4.647693 l 0.555384,1.872581 h 4.647693 L 41.846352,71.257103 Z m 0.893627,9.379549 1.440659,-5.089259 1.503297,5.089259 z m 26.54989,23.948228 c 0,-0.516 0.450989,-0.80729 1.482417,-0.80729 0.45099,0 0.868572,0.0749 1.206814,0.258 0.338241,0.17477 0.597142,0.46606 0.672307,0.96542 h 4.426374 c -0.334066,-2.48845 -2.133846,-4.4942 -6.084176,-4.4942 -3.561978,0 -6.176044,1.51055 -6.176044,4.52749 0,5.18913 7.483077,4.06558 8.147033,5.83413 0.02506,0.0832 0.04593,0.17477 0.04593,0.26216 0,0.66997 -0.772527,1.04864 -1.941758,1.04864 -0.450989,0 -0.947912,-0.11651 -1.327912,-0.35371 -0.350769,-0.21222 -0.609671,-0.5368 -0.730769,-0.96125 v 0.004 c -0.01253,-0.0583 -0.02923,-0.11236 -0.03758,-0.16646 h -4.468132 c 0,0.0541 0.0042,0.1082 0.0084,0.16646 0.20044,2.49261 2.626593,4.58158 6.297143,4.58158 3.795824,0 6.493407,-1.50223 6.656264,-4.58158 0.0042,-0.1082 0.0084,-0.20391 0.0084,-0.30794 0,-5.17248 -8.184615,-3.84503 -8.184615,-5.97561 z M 58.992286,56.954748 c -3.102638,-1.564645 -2.338462,-3.354 -2.338462,-3.354 0,0 -1.386373,-0.09155 -1.611868,1.38571 -0.359121,2.014065 -0.07099,3.953226 -0.01253,4.319419 -0.03758,-0.153967 -0.196264,-0.595064 -0.977143,-1.364903 -0.985495,-0.986226 -1.933407,-0.986226 -1.933407,-0.986226 0,0 0.492747,0.986226 0,1.972452 -0.488571,0.932129 -1.478242,0.932129 -1.970989,1.918355 -0.492747,0.986226 0,0.986226 0,0.986226 H 60.4747 c 0,0 0.133627,-4.073904 -1.482417,-4.877033 z"
             id="Fill-2"
             fill="#ffcd34"
             sketch:type="MSShapeGroup"
             mask="url(#mask-2)" /></g><path
           d="m 181.31178,120.72236 -2.25912,-15.46751 c -0.40088,-2.88794 -0.67648,-5.18081 -0.83516,-6.762102 h -0.0794 c -0.31736,1.306645 -0.75582,3.083522 -1.39055,5.022682 l -5.7167,17.20693 h -3.88769 l -5.4411,-16.10003 c -0.71407,-2.1389 -1.31121,-4.27365 -1.70791,-6.129582 h -0.0752 c -0.1211,2.209642 -0.35912,4.465062 -0.71824,7.078352 l -1.82483,15.15126 h -3.72902 l 3.92946,-26.702999 h 4.44307 l 5.67495,16.853229 c 0.48022,1.34409 1.07318,3.483 1.54923,5.30148 h 0.0418 c 0.47604,-1.8601 0.95208,-3.52461 1.46989,-5.06429 l 5.79186,-17.090419 h 4.5266 l 4.05055,26.702999 z"
           id="Fill-5"
           fill="#0054a5"
           sketch:type="MSShapeGroup" /><path
           d="m 197.05297,103.67064 c -2.81868,0 -5.55803,2.17636 -5.55803,7.04091 0,4.74803 1.94594,7.36132 5.55803,7.36132 2.93978,0 5.47868,-2.29703 5.47868,-7.31971 0,-4.46923 -1.82901,-7.08252 -5.47868,-7.08252 m -0.43847,17.41084 c -5.35758,0 -8.85274,-3.09184 -8.85274,-10.01206 0,-5.77171 3.65384,-10.36578 9.60857,-10.36578 5.04022,0 8.8945,2.77142 8.8945,9.84978 0,5.934 -3.81252,10.52806 -9.65033,10.52806"
           id="Fill-7"
           fill="#0054a5"
           sketch:type="MSShapeGroup" /><path
           d="m 213.59508,121.07982 c -1.50748,0 -3.13605,-0.15813 -4.36374,-0.516 l 0.31736,-3.16675 c 1.26945,0.516 2.89802,0.79481 4.36374,0.79481 2.54308,0 4.28857,-1.14852 4.28857,-3.00861 0,-4.42761 -9.17011,-1.66036 -9.17011,-8.58058 0,-3.36649 2.61824,-5.89655 7.8589,-5.89655 1.19011,0 2.62242,0.15813 3.81253,0.39532 l -0.27978,2.92539 c -1.15253,-0.35787 -2.5389,-0.5909 -3.85011,-0.5909 -2.61824,0 -3.85011,1.1069 -3.85011,2.80887 0,4.34855 9.21187,1.86009 9.21187,8.54312 0,3.60368 -3.1778,6.29188 -8.33912,6.29188"
           id="Fill-9"
           fill="#0054a5"
           sketch:type="MSShapeGroup" /><path
           d="m 232.56167,121.03945 c -4.05055,0 -5.28242,-1.66452 -5.28242,-5.89655 v -11.31454 h -4.04637 v -2.76726 h 4.04637 v -6.366777 l 3.57451,-0.990388 v 7.357165 h 5.52044 v 2.76726 h -5.52044 v 10.04951 c 0,3.24581 0.63472,4.11552 2.81868,4.11552 0.91033,0 1.78725,-0.12068 2.50132,-0.32042 l 0.35494,2.92955 c -1.14835,0.2788 -2.69758,0.43693 -3.96703,0.43693"
           id="Fill-11"
           fill="#0054a5"
           sketch:type="MSShapeGroup" /><path
           d="m 255.85066,97.06709 v 23.65694 h -3.65385 V 97.06709 h -7.70022 v -3.046064 h 19.09605 v 3.046064 z"
           id="Fill-13"
           fill="#0054a5"
           sketch:type="MSShapeGroup" /><path
           d="m 273.54697,104.22742 c -4.17165,-0.75319 -6.15517,2.29287 -6.15517,8.58474 v 7.91062 h -3.57033 v -19.6621 h 3.45341 c 0,1.22758 -0.1211,3.05023 -0.43846,4.66897 h 0.0793 c 0.83516,-2.72981 2.86044,-5.418 6.78989,-5.02684 z"
           id="Fill-15"
           fill="#0054a5"
           sketch:type="MSShapeGroup" /><path
           d="m 289.73455,120.72236 c 0,-1.18597 0.0793,-2.967 0.31736,-4.15297 h -0.0793 c -1.15253,2.6882 -3.57033,4.51084 -6.94439,4.51084 -4.5266,0 -5.91715,-2.81303 -5.91715,-6.29187 v -13.72809 h 3.53275 v 12.65864 c 0,2.76726 0.79341,4.43177 3.37407,4.43177 3.25714,0 5.59978,-3.32071 5.59978,-7.67341 v -9.417 h 3.57033 v 19.66209 z"
           id="Fill-17"
           fill="#0054a5"
           sketch:type="MSShapeGroup" /><path
           d="m 302.30461,121.07982 c -1.50747,0 -3.13604,-0.15813 -4.36373,-0.516 l 0.31736,-3.16675 c 1.26945,0.516 2.89802,0.79481 4.36374,0.79481 2.54307,0 4.28857,-1.14852 4.28857,-3.00861 0,-4.42761 -9.17011,-1.66036 -9.17011,-8.58058 0,-3.36649 2.61824,-5.89655 7.8589,-5.89655 1.19011,0 2.62242,0.15813 3.81253,0.39532 l -0.27978,2.92539 c -1.15253,-0.35787 -2.5389,-0.5909 -3.85011,-0.5909 -2.61824,0 -3.85011,1.1069 -3.85011,2.80887 0,4.34855 9.21187,1.86009 9.21187,8.54312 0,3.60368 -3.17781,6.29188 -8.33913,6.29188"
           id="Fill-19"
           fill="#0054a5"
           sketch:type="MSShapeGroup" /><path
           d="m 321.2733,121.03945 c -4.05055,0 -5.28242,-1.66452 -5.28242,-5.89655 v -11.31454 h -4.04638 v -2.76726 h 4.04638 v -6.366777 l 3.5745,-0.990388 v 7.357165 h 5.52044 v 2.76726 h -5.52044 v 10.04951 c 0,3.24581 0.63473,4.11552 2.81869,4.11552 0.91033,0 1.78725,-0.12068 2.50131,-0.32042 l 0.35495,2.92955 c -1.14835,0.2788 -2.69758,0.43693 -3.96703,0.43693"
           id="Fill-21"
           fill="#0054a5"
           sketch:type="MSShapeGroup" /><path
           d="m 336.02941,103.39433 c -2.58066,0 -4.4055,1.90171 -4.84396,4.90616 h 9.24945 c 0.0793,-3.00445 -1.62857,-4.90616 -4.40549,-4.90616 m 7.93824,7.43623 h -12.89912 c -0.15868,5.14335 1.94593,7.36132 6.23033,7.36132 1.90835,0 3.89186,-0.39532 5.63736,-1.14852 l 0.5178,2.80887 c -1.98352,0.79481 -4.36791,1.22759 -6.82747,1.22759 -5.99231,0 -9.24945,-3.16675 -9.24945,-10.09113 0,-5.85078 3.29472,-10.28255 8.89033,-10.28255 5.51626,0 7.82132,3.67858 7.82132,8.06874 0,0.47439 -0.0418,1.26919 -0.1211,2.05568"
           id="Fill-23"
           fill="#0054a5"
           sketch:type="MSShapeGroup" /><path
           d="m 360.27508,104.02851 c -1.19011,-0.27464 -2.38022,-0.43277 -3.49517,-0.43277 -3.77077,0 -6.26791,2.25126 -6.26791,7.91061 0,4.22787 1.38637,6.64142 4.36374,6.64142 3.5745,0 5.39934,-4.14881 5.39934,-7.59435 z m 0.11692,16.6951 c 0,-1.11107 0.0793,-2.85048 0.31736,-3.99484 l -0.0793,-0.0416 c -1.11077,2.65074 -3.52857,4.39432 -6.62703,4.39432 -4.84396,0 -7.26594,-3.52461 -7.26594,-9.25887 0,-6.88277 3.97121,-11.03574 10.20572,-11.03574 1.06901,0 2.1422,0.0749 3.33231,0.19558 v -9.138195 h 3.57033 v 28.879355 z"
           id="Fill-25"
           fill="#0054a5"
           sketch:type="MSShapeGroup" /><path
           d="m 370.94306,121.07982 c -1.3488,0 -2.46374,-1.11107 -2.46374,-2.45516 0,-1.3441 1.11494,-2.45101 2.46374,-2.45101 1.38637,0 2.45956,1.10691 2.45956,2.45101 0,1.34409 -1.07319,2.45516 -2.45956,2.45516"
           id="Fill-27"
           fill="#0054a5"
           sketch:type="MSShapeGroup" /><path
           d="m 412.09747,120.72236 -2.26329,-15.46751 c -0.39671,-2.88794 -0.67231,-5.18081 -0.83099,-6.762102 h -0.0835 c -0.31736,1.306645 -0.75165,3.083522 -1.38637,5.022682 l -5.71671,17.20693 h -3.88769 l -5.4411,-16.10003 c -0.71406,-2.1389 -1.31121,-4.27365 -1.70373,-6.129582 h -0.0835 c -0.11692,2.209642 -0.35495,4.465062 -0.71407,7.078352 l -1.82483,15.15126 h -3.73319 l 3.93363,-26.702999 h 4.44307 l 5.67495,16.853229 c 0.48022,1.34409 1.07319,3.483 1.54923,5.30148 h 0.0418 c 0.47187,-1.8601 0.95209,-3.52461 1.46989,-5.06429 l 5.79187,-17.090419 h 4.52659 L 415.91,120.72236 Z"
           id="Fill-29"
           fill="#0054a5"
           sketch:type="MSShapeGroup" /><path
           d="m 427.83448,103.67064 c -2.81868,0 -5.55384,2.17636 -5.55384,7.04091 0,4.74803 1.94593,7.36132 5.55384,7.36132 2.93978,0 5.47869,-2.29703 5.47869,-7.31971 0,-4.46923 -1.82484,-7.08252 -5.47869,-7.08252 m -0.43428,17.41084 c -5.36176,0 -8.85275,-3.09184 -8.85275,-10.01206 0,-5.77171 3.64967,-10.36578 9.6044,-10.36578 5.04439,0 8.8945,2.77142 8.8945,9.84978 0,5.934 -3.81253,10.52806 -9.64615,10.52806"
           id="Fill-31"
           fill="#0054a5"
           sketch:type="MSShapeGroup" /><path
           d="m 444.37868,121.07982 c -1.50747,0 -3.13604,-0.15813 -4.36791,-0.516 l 0.31736,-3.16675 c 1.27363,0.516 2.9022,0.79481 4.36791,0.79481 2.54308,0 4.2844,-1.14852 4.2844,-3.00861 0,-4.42761 -9.16594,-1.66036 -9.16594,-8.58058 0,-3.36649 2.61825,-5.89655 7.85891,-5.89655 1.19011,0 2.62241,0.15813 3.81252,0.39532 l -0.27978,2.92539 c -1.15252,-0.35787 -2.54307,-0.5909 -3.85011,-0.5909 -2.61824,0 -3.85011,1.1069 -3.85011,2.80887 0,4.34855 9.2077,1.86009 9.2077,8.54312 0,3.60368 -3.17363,6.29188 -8.33495,6.29188"
           id="Fill-33"
           fill="#0054a5"
           sketch:type="MSShapeGroup" /><path
           d="m 463.34528,121.03945 c -4.05055,0 -5.28242,-1.66452 -5.28242,-5.89655 v -11.31454 h -4.04638 v -2.76726 h 4.04638 v -6.366777 l 3.5745,-0.990388 v 7.357165 h 5.51627 v 2.76726 h -5.51627 v 10.04951 c 0,3.24581 0.63473,4.11552 2.81868,4.11552 0.91033,0 1.78308,-0.12068 2.50132,-0.32042 l 0.35495,2.92955 c -1.14835,0.2788 -2.69758,0.43693 -3.96703,0.43693"
           id="Fill-35"
           fill="#0054a5"
           sketch:type="MSShapeGroup" /><path
           d="m 489.68888,121.03945 c -8.61473,0 -12.18506,-5.45961 -12.18506,-13.01651 0,-8.147811 4.05055,-14.23994 13.09956,-14.23994 2.06286,0 4.24682,0.278807 6.15099,0.832258 l -0.59296,3.32071 c -1.8666,-0.632516 -3.93363,-1.027839 -5.95473,-1.027839 -6.11341,0 -8.73582,4.668971 -8.73582,10.519741 0,6.57068 2.86044,10.36994 9.09077,10.36994 1.94593,0 4.28857,-0.55762 5.87538,-1.34826 l 0.59714,3.16258 c -2.02527,0.83226 -4.64769,1.42732 -7.34527,1.42732"
           id="Fill-37"
           fill="#0054a5"
           sketch:type="MSShapeGroup" /><mask
           id="mask-4"
           sketch:name="Clip 40"
           fill="#ffffff"><use
             xlink:href="#path-3"
             id="use2" /></mask><g
           id="Clip-40" /><path
           d="m 501.38703,101.0611 h 3.57868 v 19.66209 h -3.57868 z m 1.78726,-3.915777 c -1.30704,0 -2.38022,-0.990388 -2.38022,-2.292871 0,-1.306646 1.07318,-2.334484 2.38022,-2.334484 1.31121,0 2.38439,1.027838 2.38439,2.334484 0,1.265032 -1.07318,2.292871 -2.38439,2.292871 z"
           id="Fill-39"
           fill="#0054a5"
           sketch:type="MSShapeGroup"
           mask="url(#mask-4)" /><path
           d="m 516.98666,121.03945 c -4.05055,0 -5.28242,-1.66452 -5.28242,-5.89655 v -11.31454 h -4.04637 v -2.76726 h 4.04637 v -6.366777 l 3.57451,-0.990388 v 7.357165 h 5.51626 v 2.76726 h -5.51626 v 10.04951 c 0,3.24581 0.63472,4.11552 2.81868,4.11552 0.91033,0 1.78307,-0.12068 2.50132,-0.32042 l 0.35494,2.92955 c -1.14835,0.2788 -2.69758,0.43693 -3.96703,0.43693"
           id="Fill-41"
           fill="#0054a5"
           sketch:type="MSShapeGroup"
           mask="url(#mask-4)" /><path
           d="m 531.74068,103.39433 c -2.58066,0 -4.40549,1.90171 -4.83978,4.90616 h 9.24945 c 0.0752,-3.00445 -1.62857,-4.90616 -4.40967,-4.90616 m 7.93824,7.43623 H 526.7798 c -0.16286,5.14335 1.94176,7.36132 6.23451,7.36132 1.90417,0 3.88769,-0.39532 5.63319,-1.14852 l 0.5178,2.80887 c -1.98352,0.79481 -4.36792,1.22759 -6.82748,1.22759 -5.99648,0 -9.24945,-3.16675 -9.24945,-10.09113 0,-5.85078 3.29473,-10.28255 8.89451,-10.28255 5.51626,0 7.81714,3.67858 7.81714,8.06874 0,0.47439 -0.0376,1.26919 -0.1211,2.05568"
           id="Fill-42"
           fill="#0054a5"
           sketch:type="MSShapeGroup"
           mask="url(#mask-4)" /><path
           d="m 555.98802,104.02851 c -1.19011,-0.27464 -2.38439,-0.43277 -3.49516,-0.43277 -3.77077,0 -6.27209,2.25126 -6.27209,7.91061 0,4.22787 1.39055,6.64142 4.36791,6.64142 3.57451,0 5.39934,-4.14881 5.39934,-7.59435 z m 0.11693,16.6951 c 0,-1.11107 0.0793,-2.85048 0.32153,-3.99484 l -0.0835,-0.0416 c -1.11077,2.65074 -3.53275,4.39432 -6.62704,4.39432 -4.84395,0 -7.26593,-3.52461 -7.26593,-9.25887 0,-6.88277 3.97121,-11.03574 10.20154,-11.03574 1.07319,0 2.14637,0.0749 3.33648,0.19558 v -9.138195 h 3.57451 v 28.879355 z"
           id="Fill-43"
           fill="#0054a5"
           sketch:type="MSShapeGroup"
           mask="url(#mask-4)" /><path
           d="m 566.656,121.07982 c -1.34879,0 -2.46374,-1.11107 -2.46374,-2.45516 0,-1.3441 1.11495,-2.45101 2.46374,-2.45101 1.38637,0 2.45956,1.10691 2.45956,2.45101 0,1.34409 -1.07319,2.45516 -2.45956,2.45516"
           id="Fill-44"
           fill="#0054a5"
           sketch:type="MSShapeGroup"
           mask="url(#mask-4)" /><path
           d="m 607.81083,120.72236 -2.26329,-15.46751 c -0.3967,-2.88794 -0.67231,-5.18081 -0.83099,-6.762102 h -0.0835 c -0.31736,1.306645 -0.75164,3.083522 -1.38637,5.022682 l -5.7167,17.20693 h -3.89187 l -5.43693,-16.10003 c -0.71406,-2.1389 -1.3112,-4.27365 -1.70373,-6.129582 h -0.0835 c -0.11692,2.209642 -0.35494,4.465062 -0.71406,7.078352 l -1.82484,15.15126 h -3.73319 l 3.92946,-26.702999 h 4.44725 l 5.67494,16.853229 c 0.48022,1.34409 1.07319,3.483 1.54923,5.30148 h 0.0418 c 0.47187,-1.8601 0.95209,-3.52461 1.46989,-5.06429 l 5.79187,-17.090419 h 4.52659 l 4.05055,26.702999 z"
           id="Fill-45"
           fill="#0054a5"
           sketch:type="MSShapeGroup"
           mask="url(#mask-4)" /><path
           d="m 623.54743,103.67064 c -2.81868,0 -5.55385,2.17636 -5.55385,7.04091 0,4.74803 1.94594,7.36132 5.55385,7.36132 2.93978,0 5.47868,-2.29703 5.47868,-7.31971 0,-4.46923 -1.82484,-7.08252 -5.47868,-7.08252 m -0.43429,17.41084 c -5.36175,0 -8.85274,-3.09184 -8.85274,-10.01206 0,-5.77171 3.64967,-10.36578 9.60439,-10.36578 5.0444,0 8.89451,2.77142 8.89451,9.84978 0,5.934 -3.81253,10.52806 -9.64616,10.52806"
           id="Fill-46"
           fill="#0054a5"
           sketch:type="MSShapeGroup"
           mask="url(#mask-4)" /><path
           d="m 640.09204,121.07982 c -1.50747,0 -3.13604,-0.15813 -4.36791,-0.516 l 0.31737,-3.16675 c 1.27362,0.516 2.90219,0.79481 4.36791,0.79481 2.54307,0 4.28857,-1.14852 4.28857,-3.00861 0,-4.42761 -9.17011,-1.66036 -9.17011,-8.58058 0,-3.36649 2.61824,-5.89655 7.8589,-5.89655 1.19011,0 2.62242,0.15813 3.81253,0.39532 l -0.27978,2.92539 c -1.15253,-0.35787 -2.54308,-0.5909 -3.85011,-0.5909 -2.61825,0 -3.85011,1.1069 -3.85011,2.80887 0,4.34855 9.20769,1.86009 9.20769,8.54312 0,3.60368 -3.17363,6.29188 -8.33495,6.29188"
           id="Fill-47"
           fill="#0054a5"
           sketch:type="MSShapeGroup"
           mask="url(#mask-4)" /><path
           d="m 659.05822,121.03945 c -4.05055,0 -5.28242,-1.66452 -5.28242,-5.89655 v -11.31454 h -4.04637 v -2.76726 h 4.04637 v -6.366777 l 3.57451,-0.990388 v 7.357165 h 5.51626 v 2.76726 h -5.51626 v 10.04951 c 0,3.24581 0.63472,4.11552 2.81868,4.11552 0.91033,0 1.78308,-0.12068 2.50132,-0.32042 l 0.35494,2.92955 c -1.14835,0.2788 -2.69758,0.43693 -3.96703,0.43693"
           id="Fill-48"
           fill="#0054a5"
           sketch:type="MSShapeGroup"
           mask="url(#mask-4)" /><path
           d="m 680.8389,96.829481 c -0.9145,0 -1.70791,0.03745 -2.42198,0.07906 v 9.100749 c 0.39671,0.0375 1.19011,0.0749 2.2633,0.0749 3.85011,0 6.07165,-1.93916 6.07165,-4.78548 0,-3.204201 -2.0211,-4.469233 -5.91297,-4.469233 z m 6.82747,23.894129 -8.7734,-11.94706 h -0.47605 v 11.94706 h -3.65384 v -26.703 c 1.82483,-0.120678 3.77077,-0.158129 6.71055,-0.158129 5.27824,0 9.09077,1.860096 9.09077,6.961839 0,4.54829 -3.61209,7.19903 -7.86308,7.51529 0.79758,0.95294 1.62857,1.98077 2.30505,2.85048 l 7.30352,9.53352 z"
           id="Fill-49"
           fill="#0054a5"
           sketch:type="MSShapeGroup"
           mask="url(#mask-4)" /><path
           d="m 701.98277,103.39433 c -2.58066,0 -4.4055,1.90171 -4.83978,4.90616 h 9.24945 c 0.0752,-3.00445 -1.62857,-4.90616 -4.40967,-4.90616 m 7.93824,7.43623 h -12.89912 c -0.16286,5.14335 1.94176,7.36132 6.23451,7.36132 1.90417,0 3.88769,-0.39532 5.63318,-1.14852 l 0.5178,2.80887 c -1.98351,0.79481 -4.36373,1.22759 -6.82747,1.22759 -5.99648,0 -9.24945,-3.16675 -9.24945,-10.09113 0,-5.85078 3.29473,-10.28255 8.89451,-10.28255 5.51626,0 7.81714,3.67858 7.81714,8.06874 0,0.47439 -0.0376,1.26919 -0.1211,2.05568"
           id="Fill-50"
           fill="#0054a5"
           sketch:type="MSShapeGroup"
           mask="url(#mask-4)" /><path
           d="m 724.75813,111.50552 c -6.46835,0 -8.33494,1.78103 -8.33494,3.75765 0,1.70196 1.19011,3.00445 3.01912,3.00445 3.17362,0 5.31582,-3.16258 5.31582,-6.25026 z m 0.20044,9.21726 c 0,-1.38571 0,-2.80887 0.20044,-3.91994 h -0.0835 c -0.94792,2.41771 -3.45341,4.27781 -6.70638,4.27781 -3.25297,0 -5.47868,-2.13891 -5.47868,-5.30565 0,-4.22787 4.32615,-6.76209 11.86769,-6.76209 v -0.90716 c 0,-3.12513 -1.06901,-4.63152 -4.16747,-4.63152 -1.86242,0 -4.24681,0.63668 -5.95473,1.42316 l -0.6723,-2.80887 c 1.90417,-0.79065 4.52241,-1.419 7.10307,-1.419 5.52044,0 7.26594,2.64658 7.26594,6.87861 v 7.51529 c 0,1.8601 0.0376,3.95739 0.1211,5.65936 z"
           id="Fill-51"
           fill="#0054a5"
           sketch:type="MSShapeGroup"
           mask="url(#mask-4)" /><path
           d="m 746.10662,104.02851 c -1.19429,-0.27464 -2.3844,-0.43277 -3.49517,-0.43277 -3.77077,0 -6.27209,2.25126 -6.27209,7.91061 0,4.22787 1.39055,6.64142 4.36791,6.64142 3.57451,0 5.39935,-4.14881 5.39935,-7.59435 z m 0.11692,16.6951 c 0,-1.11107 0.0793,-2.85048 0.31736,-3.99484 l -0.0793,-0.0416 c -1.11077,2.65074 -3.53275,4.39432 -6.63121,4.39432 -4.83978,0 -7.26176,-3.52461 -7.26176,-9.25887 0,-6.88277 3.97121,-11.03574 10.20154,-11.03574 1.07319,0 2.1422,0.0749 3.33649,0.19558 v -9.138195 h 3.57033 v 28.879355 z"
           id="Fill-52"
           fill="#0054a5"
           sketch:type="MSShapeGroup"
           mask="url(#mask-4)" /><path
           d="m 756.77418,121.07982 c -1.3488,0 -2.46374,-1.11107 -2.46374,-2.45516 0,-1.3441 1.11494,-2.45101 2.46374,-2.45101 1.38637,0 2.45956,1.10691 2.45956,2.45101 0,1.34409 -1.07319,2.45516 -2.45956,2.45516"
           id="Fill-53"
           fill="#0054a5"
           sketch:type="MSShapeGroup"
           mask="url(#mask-4)" /><path
           d="m 181.91352,27.86941 c -1.08989,-2.979484 -1.90418,-5.688484 -2.6266,-8.305936 h -0.18373 c -0.72242,2.617452 -1.53671,5.326452 -2.53473,8.127 l -8.24725,23.02442 h 21.74769 z m 15.40461,43.701871 -5.07363,-14.264904 h -26.00703 l -5.07362,14.264904 h -8.51869 l 22.20286,-60.946258 h 9.42066 l 22.38242,60.946258 z"
           id="Fill-54"
           fill="#0054a5"
           sketch:type="MSShapeGroup"
           mask="url(#mask-4)" /><path
           d="m 234.6333,72.294513 c -19.65978,0 -27.81517,-12.463065 -27.81517,-29.707452 0,-18.600968 9.2411,-32.503838 29.8989,-32.503838 4.71451,0 9.69627,0.632516 14.0433,1.893387 l -1.35714,7.586032 c -4.25517,-1.443968 -8.96967,-2.346968 -13.59231,-2.346968 -13.95561,0 -19.93121,10.652903 -19.93121,24.018968 0,14.988968 6.52264,23.656935 20.74967,23.656935 4.4389,0 9.78396,-1.265032 13.40857,-3.071032 l 1.36132,7.224 c -4.62264,1.893387 -10.60242,3.249968 -16.76593,3.249968"
           id="Fill-55"
           fill="#0054a5"
           sketch:type="MSShapeGroup"
           mask="url(#mask-4)" /><path
           d="m 270.40508,72.383981 c -4.98176,0 -9.6044,-0.632517 -13.41275,-1.714452 l 0.99802,-7.948064 c 3.89605,1.535516 8.33495,2.438516 12.86572,2.438516 7.06967,0 13.22901,-2.887936 13.22901,-10.38242 0,-13.723935 -27.63561,-8.310097 -27.63561,-27.722516 0,-10.020387 7.61253,-17.2443869 21.3844,-17.2443869 3.53275,0 7.61253,0.3620319 11.0534,1.1734839 l -0.99802,7.315548 c -3.26132,-0.994548 -6.97362,-1.627064 -10.50637,-1.627064 -8.33495,0 -12.32286,3.790935 -12.32286,9.48358 0,13.09142 27.9989,8.397484 27.9989,27.535259 0,10.927548 -8.97384,18.692516 -22.65384,18.692516"
           id="Fill-56"
           fill="#0054a5"
           sketch:type="MSShapeGroup"
           mask="url(#mask-4)" /><path
           d="m 326.01202,15.139606 c -2.81033,0 -4.98176,0 -7.06549,0.178936 v 26.636419 c 1.80813,0.270484 3.89187,0.453581 6.07165,0.453581 10.50637,-0.09155 16.84945,-5.688484 16.84945,-13.998581 0,-8.663806 -5.16132,-13.270355 -15.85561,-13.270355 m -1.44901,32.05442 c -1.90418,0 -3.80835,-0.09155 -5.61648,-0.270484 v 24.647322 h -5.80022 V 10.624607 c 4.16747,-0.178936 8.8778,-0.270484 13.9556,-0.270484 13.49627,0 20.83736,7.040903 20.83736,17.065451 0,11.917936 -10.33098,19.774452 -23.37626,19.774452"
           id="Fill-57"
           fill="#0054a5"
           sketch:type="MSShapeGroup"
           mask="url(#mask-4)" /><path
           d="m 385.97811,71.571281 c 0,-3.15842 0.26725,-7.67342 0.81429,-10.473968 l -0.18374,-0.09155 c -2.53473,6.861968 -8.33495,11.289581 -16.30659,11.289581 -10.41869,0 -13.59231,-6.412548 -13.59231,-14.356452 V 26.695926 h 5.70835 v 29.074935 c 0,7.494484 1.99604,11.917936 9.15341,11.917936 8.5145,0 14.49428,-8.218549 14.49428,-19.595516 V 26.695926 h 5.71253 v 44.875355 z"
           id="Fill-58"
           fill="#0054a5"
           sketch:type="MSShapeGroup"
           mask="url(#mask-4)" /><path
           d="m 427.27576,30.577994 c -9.69209,0 -14.22286,11.285419 -14.22286,19.320871 v 16.345548 c 2.81033,0.994548 5.79605,1.352419 9.42484,1.352419 9.87164,0 16.39428,-5.867419 16.39428,-19.953387 0,-10.657064 -3.62461,-17.065451 -11.59626,-17.065451 m -5.34506,41.533838 c -5.97978,0 -10.05538,-0.540968 -14.58615,-1.622903 V 5.6601871 h 5.70835 V 29.225574 c 0,2.438516 -0.2756,5.867419 -0.81846,8.122839 l 0.17956,0.09155 c 2.5389,-7.219838 8.61055,-11.468516 15.76791,-11.468516 10.60242,0 16.67407,7.136613 16.67407,21.131032 0,16.249839 -9.15341,25.009355 -22.92528,25.009355"
           id="Fill-59"
           fill="#0054a5"
           sketch:type="MSShapeGroup"
           mask="url(#mask-4)" /><path
           d="m 456.07099,5.6593548 h 5.70835 V 71.570032 h -5.70835 z"
           id="Fill-60"
           fill="#0054a5"
           sketch:type="MSShapeGroup"
           mask="url(#mask-4)" /><path
           d="m 477.35516,26.698839 h 5.70836 v 44.875355 h -5.70836 z m 2.9022,-10.478129 c -2.26329,0 -4.07978,-1.806 -4.07978,-4.06142 0,-2.2595803 1.81649,-4.0655803 4.07978,-4.0655803 2.2633,0 4.07561,1.7186129 4.07561,4.0655803 0,2.168033 -1.81231,4.06142 -4.07561,4.06142 z"
           id="Fill-61"
           fill="#0054a5"
           sketch:type="MSShapeGroup"
           mask="url(#mask-4)" /><path
           d="m 513.41424,72.113497 c -9.51253,0 -19.30066,-4.065581 -19.30066,-21.401516 0,-14.89742 7.42879,-24.555775 21.11297,-24.555775 4.53077,0 8.69824,0.719904 11.95956,2.076484 l -1.26945,4.693936 c -3.08176,-1.173484 -7.3411,-2.25542 -11.59626,-2.25542 -9.06154,0 -14.13517,7.943904 -14.13517,18.867291 0,9.662516 2.80615,17.789516 14.40242,17.789516 4.26352,0 8.24725,-0.903 11.69231,-2.438516 l 1.17758,4.606548 c -3.98791,1.714452 -9.15341,2.617452 -14.0433,2.617452"
           id="Fill-62"
           fill="#0054a5"
           sketch:type="MSShapeGroup"
           mask="url(#mask-4)" /><path
           d="m 560.78771,49.811893 c -17.03736,0 -21.92725,4.872871 -21.92725,9.933001 0,4.515 3.07758,7.852354 7.88396,7.852354 8.42263,0 14.04329,-8.484871 14.04329,-16.703419 z m 0.0877,21.759388 c 0,-3.612 0.0919,-7.224 0.54285,-9.841452 l -0.17956,-0.09155 c -2.1756,5.867419 -8.06351,10.657064 -15.94747,10.657064 -6.9778,0 -12.23099,-4.427613 -12.23099,-11.647451 0,-8.938452 9.51671,-15.167904 27.72747,-15.167904 v -2.438516 c 0,-8.397484 -2.5389,-12.463064 -10.60241,-12.463064 -4.35121,0 -9.78814,1.535516 -13.50044,3.341516 l -1.36132,-4.693936 c 4.25934,-1.897548 9.96769,-3.254129 15.67604,-3.254129 11.68813,0 15.49231,6.142065 15.49231,15.621484 V 57.66841 c 0,4.602387 0.096,9.83729 0.18374,13.902871 z"
           id="Fill-63"
           fill="#0054a5"
           sketch:type="MSShapeGroup"
           mask="url(#mask-4)" /><path
           d="m 593.92956,72.202964 c -8.78593,0 -11.23297,-3.974032 -11.23297,-13.004032 V 31.210093 H 572.3656 v -4.515 h 10.33099 V 11.52719 l 5.61649,-1.5355158 V 26.695093 h 13.86373 v 4.515 h -13.86373 v 25.192452 c 0,8.57642 1.5367,10.744452 7.15736,10.744452 2.35934,0 4.53077,-0.270484 6.25121,-0.724065 l 0.81846,4.877033 c -2.44703,0.540967 -5.80022,0.902999 -8.61055,0.902999"
           id="Fill-64"
           fill="#0054a5"
           sketch:type="MSShapeGroup"
           mask="url(#mask-4)" /><path
           d="m 612.58505,26.698839 h 5.70836 v 44.875355 h -5.70836 z m 2.9022,-10.478129 c -2.26329,0 -4.07978,-1.806 -4.07978,-4.06142 0,-2.2595803 1.81649,-4.0655803 4.07978,-4.0655803 2.2633,0 4.07561,1.7186129 4.07561,4.0655803 0,2.168033 -1.81231,4.06142 -4.07561,4.06142 z"
           id="Fill-65"
           fill="#0054a5"
           sketch:type="MSShapeGroup"
           mask="url(#mask-4)" /><path
           d="m 649.6384,30.577994 c -7.4288,0 -14.49847,5.688483 -14.49847,18.238935 0,11.922097 5.25737,18.779903 14.58616,18.779903 7.43296,0 14.3189,-5.688484 14.3189,-18.871451 0,-11.28542 -4.89407,-18.147387 -14.40659,-18.147387 m -0.90616,41.716935 c -11.95956,0 -19.56791,-7.315548 -19.56791,-23.024419 0,-12.550452 7.60835,-23.299065 21.10879,-23.299065 10.51055,0 19.65978,5.780032 19.65978,22.483452 0,13.091419 -7.97165,23.840032 -21.20066,23.840032"
           id="Fill-66"
           fill="#0054a5"
           sketch:type="MSShapeGroup"
           mask="url(#mask-4)" /><path
           d="M 710.33066,71.571281 V 42.496345 c 0,-7.494484 -2.08374,-11.917935 -9.14923,-11.917935 -8.51868,0 -14.49846,8.218548 -14.49846,19.591354 v 21.401517 h -5.70836 V 26.695926 h 5.79605 c 0,3.16258 -0.27143,7.67758 -0.81429,10.473967 l 0.17956,0.09155 c 2.53891,-6.866129 8.33912,-11.289581 16.31077,-11.289581 10.41868,0 13.59231,6.412549 13.59231,14.360613 v 31.238807 z"
           id="Fill-67"
           fill="#0054a5"
           sketch:type="MSShapeGroup"
           mask="url(#mask-4)" /><path
           d="m 738.30952,72.294513 c -3.44088,0 -7.24506,-0.362032 -10.05539,-1.173484 l 0.81429,-5.418 c 2.89802,1.081935 6.79406,1.714452 10.23912,1.714452 6.70637,0 11.60044,-3.15842 11.60044,-8.214387 0,-11.647452 -22.83758,-4.244517 -22.83758,-20.406968 0,-7.407097 5.89208,-12.820936 17.03736,-12.820936 2.89802,0 6.3389,0.362033 9.05736,0.990387 l -0.72242,4.877033 c -2.81033,-0.811452 -5.98395,-1.35242 -9.14923,-1.35242 -6.9778,0 -10.42703,2.975323 -10.42703,7.67342 0,11.647451 22.92945,4.515 22.92945,20.223871 0,7.673419 -6.89011,13.907032 -18.48637,13.907032"
           id="Fill-68"
           fill="#0054a5"
           sketch:type="MSShapeGroup"
           mask="url(#mask-4)" /></g></g><text
       xml:space="preserve"
       style="font-size:9.17222px;font-family:Arial;-inkscape-font-specification:Arial;text-align:end;writing-mode:lr-tb;direction:ltr;text-anchor:end;opacity:1;fill:#000000;stroke-width:0.352999;stroke-linecap:square"
       x="-157.05077"
       y="-302.91638"
       id="text1"><tspan
         sodipodi:role="line"
         id="tspan1"
         style="font-style:normal;font-variant:normal;font-weight:normal;font-stretch:normal;font-size:9.17222px;font-family:'Trebuchet MS';-inkscape-font-specification:'Trebuchet MS';fill:#000000;stroke-width:0.353"
         x="-157.05077"
         y="-302.91638">Month DD, YYYY</tspan><tspan
         sodipodi:role="line"
         style="font-style:normal;font-variant:normal;font-weight:normal;font-stretch:normal;font-size:9.17222px;font-family:'Trebuchet MS';-inkscape-font-specification:'Trebuchet MS';fill:#000000;stroke-width:0.353"
         x="-157.05077"
         y="-291.39029"
         id="tspan2">Volume XXX</tspan><tspan
         sodipodi:role="line"
         style="font-style:normal;font-variant:normal;font-weight:normal;font-stretch:normal;font-size:9.17222px;font-family:'Trebuchet MS';-inkscape-font-specification:'Trebuchet MS';fill:#000000;stroke-width:0.353"
         x="-157.05077"
         y="-279.86423"
         id="tspan3">Number X</tspan><tspan
         sodipodi:role="line"
         style="font-style:normal;font-variant:normal;font-weight:normal;font-stretch:normal;font-size:9.17222px;font-family:'Trebuchet MS';-inkscape-font-specification:'Trebuchet MS';fill:#000000;stroke-width:0.353"
         x="-157.05077"
         y="-268.33813"
         id="tspan4">pubs.acs.org/JACS</tspan></text></g></svg>
